Golos Text-Black.ufo
<glyph name="numbersign" format="2">
	<advance width="680" height="0"/>
	<unicode hex="0023"/>
	<outline>
		<contour>
			<point x="50" y="0" type="line"/>
			<point x="230" y="0" type="line" name="ab02"/>
			<point x="257" y="145" type="line"/>
			<point x="347" y="145" type="line" name="sv07"/>
			<point x="320" y="0" type="line"/>
			<point x="500" y="0" type="line" name="ab01"/>
			<point x="527" y="145" type="line"/>
			<point x="626" y="145" type="line" name="sv06"/>
			<point x="626" y="305" type="line"/>
			<point x="556" y="305" type="line" name="sv05"/>
			<point x="573" y="395" type="line"/>
			<point x="665" y="395" type="line" name="sv04"/>
			<point x="665" y="555" type="line"/>
			<point x="603" y="555" type="line" name="sv03"/>
			<point x="630" y="700" type="line"/>
			<point x="450" y="700" type="line" name="at02"/>
			<point x="423" y="555" type="line"/>
			<point x="333" y="555" type="line" name="ih01"/>
			<point x="360" y="700" type="line"/>
			<point x="180" y="700" type="line" name="at01"/>
			<point x="153" y="555" type="line" name="iv02"/>
			<point x="54" y="555" type="line"/>
			<point x="54" y="395" type="line"/>
			<point x="123" y="395" type="line" name="sv02"/>
			<point x="106" y="305" type="line" name="iv01"/>
			<point x="15" y="305" type="line"/>
			<point x="15" y="145" type="line"/>
			<point x="77" y="145" type="line" name="sv01"/>
		</contour>
		<contour>
			<point x="286" y="305" type="line"/>
			<point x="303" y="395" type="line"/>
			<point x="393" y="395" type="line" name="sv08"/>
			<point x="376" y="305" type="line" name="sh01"/>
		</contour>
	</outline>
</glyph>
<glyph name="dollar" format="2">
	<advance width="670" height="0"/>
	<unicode hex="0024"/>
	<outline>
		<contour>
			<point x="233" y="-120" type="line" name="sv05"/>
			<point x="437" y="-120" type="line"/>
			<point x="437" y="-7" type="line" name="sv04"/>
			<point x="574" y="16"/>
			<point x="660" y="91" name="iv04"/>
			<point x="660" y="226" type="curve" smooth="yes"/>
			<point x="660" y="386" name="sv01"/>
			<point x="527" y="429" name="iv03"/>
			<point x="410" y="450" type="curve" smooth="yes"/>
			<point x="319" y="466" name="at01"/>
			<point x="294" y="475" name="sv03"/>
			<point x="294" y="500" type="curve" smooth="yes"/>
			<point x="294" y="521" name="sv02"/>
			<point x="308" y="531"/>
			<point x="335" y="531" type="curve" smooth="yes" name="iv02"/>
			<point x="366" y="531"/>
			<point x="378" y="519" name="ih01"/>
			<point x="381" y="500" type="curve" name="iv01"/>
			<point x="645" y="500" type="line"/>
			<point x="629" y="607" name="ab01"/>
			<point x="562" y="681" name="ih02"/>
			<point x="437" y="706" type="curve" name="ih03"/>
			<point x="437" y="800" type="line"/>
			<point x="233" y="800" type="line"/>
			<point x="233" y="706" type="line"/>
			<point x="109" y="682"/>
			<point x="30" y="609"/>
			<point x="30" y="485" type="curve" smooth="yes"/>
			<point x="30" y="339"/>
			<point x="127" y="282"/>
			<point x="260" y="255" type="curve" smooth="yes"/>
			<point x="376" y="231"/>
			<point x="396" y="223"/>
			<point x="396" y="200" type="curve" smooth="yes"/>
			<point x="396" y="179"/>
			<point x="382" y="169"/>
			<point x="335" y="169" type="curve" smooth="yes"/>
			<point x="292" y="169"/>
			<point x="278" y="182"/>
			<point x="274" y="210" type="curve"/>
			<point x="10" y="210" type="line"/>
			<point x="26" y="82"/>
			<point x="98" y="14"/>
			<point x="233" y="-7" type="curve"/>
		</contour>
	</outline>
</glyph>
<glyph name="quotesingle" format="2">
	<advance width="280" height="0"/>
	<unicode hex="0027"/>
	<outline>
		<contour>
			<point x="40" y="400" type="line" name="sv01"/>
			<point x="220" y="400" type="line"/>
			<point x="220" y="700" type="line" name="ih01"/>
			<point x="40" y="700" type="line" name="at01"/>
		</contour>
	</outline>
</glyph>
<glyph name="asterisk" format="2">
	<advance width="450" height="0"/>
	<unicode hex="002A"/>
	<outline>
		<contour>
			<point x="166" y="350" type="line" name="iv01"/>
			<point x="284" y="350" type="line"/>
			<point x="270" y="445" type="line"/>
			<point x="348" y="379" type="line" name="sv02"/>
			<point x="415" y="495" type="line"/>
			<point x="314" y="525" type="line"/>
			<point x="415" y="555" type="line"/>
			<point x="349" y="671" type="line" name="sv01"/>
			<point x="270" y="605" type="line"/>
			<point x="284" y="700" type="line"/>
			<point x="166" y="700" type="line" name="at01"/>
			<point x="180" y="605" type="line"/>
			<point x="102" y="671" type="line" name="iv03"/>
			<point x="35" y="555" type="line"/>
			<point x="136" y="525" type="line"/>
			<point x="35" y="495" type="line"/>
			<point x="102" y="379" type="line" name="iv02"/>
			<point x="180" y="445" type="line" name="ih01"/>
		</contour>
	</outline>
</glyph>
<glyph name="plus" format="2">
	<advance width="600" height="0"/>
	<unicode hex="002B"/>
	<outline>
		<contour>
			<point x="185" y="85" type="line" name="sv04"/>
			<point x="415" y="85" type="line"/>
			<point x="415" y="254" type="line"/>
			<point x="575" y="254" type="line" name="sv03"/>
			<point x="575" y="466" type="line"/>
			<point x="415" y="466" type="line" name="sv02"/>
			<point x="415" y="635" type="line"/>
			<point x="185" y="635" type="line" name="sv01"/>
			<point x="185" y="466" type="line" name="av01"/>
			<point x="25" y="466" type="line"/>
			<point x="25" y="254" type="line"/>
			<point x="185" y="254" type="line" name="ih01"/>
		</contour>
	</outline>
</glyph>
<glyph name="comma" format="2">
	<advance width="340" height="0"/>
	<unicode hex="002C"/>
	<outline>
		<contour>
			<point x="25" y="-175" type="line" name="sv02"/>
			<point x="135" y="-175" type="line" name="ih01"/>
			<point x="275" y="0" type="line"/>
			<point x="275" y="200" type="line"/>
			<point x="65" y="200" type="line" name="sv01"/>
			<point x="65" y="0" type="line" name="ab01"/>
		</contour>
	</outline>
</glyph>
<glyph name="hyphen" format="2">
	<advance width="380" height="0"/>
	<unicode hex="002D"/>
	<outline>
		<contour>
			<point x="20" y="174" type="line"/>
			<point x="360" y="174" type="line" name="sv01"/>
			<point x="360" y="386" type="line" name="av01"/>
			<point x="20" y="386" type="line" name="ih01"/>
		</contour>
	</outline>
</glyph>
<glyph name="period" format="2">
	<advance width="340" height="0"/>
	<unicode hex="002E"/>
	<outline>
		<contour>
			<point x="170" y="-15" type="curve" smooth="yes"/>
			<point x="237" y="-15"/>
			<point x="290" y="38" name="sv01"/>
			<point x="290" y="105" type="curve" smooth="yes"/>
			<point x="290" y="174" name="ih01"/>
			<point x="237" y="225" name="ih02"/>
			<point x="170" y="225" type="curve" smooth="yes" name="ih03"/>
			<point x="103" y="225"/>
			<point x="50" y="174"/>
			<point x="50" y="105" type="curve" smooth="yes"/>
			<point x="50" y="38"/>
			<point x="103" y="-15"/>
		</contour>
	</outline>
</glyph>
<glyph name="slash" format="2">
	<advance width="500" height="0"/>
	<unicode hex="002F"/>
	<outline>
		<contour>
			<point x="0" y="-200" type="line"/>
			<point x="180" y="-200" type="line" name="ab01"/>
			<point x="500" y="700" type="line"/>
			<point x="320" y="700" type="line" name="ih01"/>
		</contour>
	</outline>
</glyph>
<glyph name="two" format="2">
	<advance width="630" height="0"/>
	<unicode hex="0032"/>
	<outline>
		<contour>
			<point x="15" y="0" type="line"/>
			<point x="605" y="0" type="line" name="ab01"/>
			<point x="605" y="212" type="line"/>
			<point x="380" y="212" type="line" name="sv01"/>
			<point x="413" y="237" type="line" smooth="yes" name="iv03"/>
			<point x="535" y="327"/>
			<point x="595" y="395" name="at01"/>
			<point x="595" y="490" type="curve" smooth="yes" name="iv02"/>
			<point x="595" y="622"/>
			<point x="512" y="715" name="ih01"/>
			<point x="315" y="715" type="curve" smooth="yes"/>
			<point x="116" y="715" name="iv01"/>
			<point x="25" y="618" name="sv02"/>
			<point x="25" y="425" type="curve" name="ih02"/>
			<point x="269" y="425" type="line" name="ih03"/>
			<point x="269" y="488"/>
			<point x="284" y="503"/>
			<point x="315" y="503" type="curve" smooth="yes"/>
			<point x="339" y="503"/>
			<point x="351" y="490"/>
			<point x="351" y="465" type="curve" smooth="yes"/>
			<point x="351" y="437"/>
			<point x="337" y="412"/>
			<point x="224" y="320" type="curve" smooth="yes"/>
			<point x="15" y="150" type="line"/>
		</contour>
	</outline>
</glyph>
<glyph name="three" format="2">
	<advance width="650" height="0"/>
	<unicode hex="0033"/>
	<outline>
		<contour>
			<point x="320" y="-15" type="curve" smooth="yes"/>
			<point x="507" y="-15"/>
			<point x="620" y="63" name="iv05"/>
			<point x="620" y="210" type="curve" smooth="yes"/>
			<point x="620" y="283" name="at01"/>
			<point x="588" y="340" name="iv04"/>
			<point x="501" y="360" type="curve"/>
			<point x="569" y="383" name="sv02"/>
			<point x="610" y="437"/>
			<point x="610" y="509" type="curve" smooth="yes" name="iv02"/>
			<point x="610" y="641"/>
			<point x="512" y="715"/>
			<point x="320" y="715" type="curve" smooth="yes" name="iv03"/>
			<point x="121" y="715"/>
			<point x="30" y="617" name="sv01"/>
			<point x="30" y="420" type="curve"/>
			<point x="254" y="420" type="line" name="iv01"/>
			<point x="254" y="496" name="ih01"/>
			<point x="275" y="521" name="ih02"/>
			<point x="315" y="521" type="curve" smooth="yes" name="ih03"/>
			<point x="340" y="521"/>
			<point x="356" y="506"/>
			<point x="356" y="478" type="curve" smooth="yes"/>
			<point x="356" y="450"/>
			<point x="338" y="436"/>
			<point x="315" y="436" type="curve" smooth="yes"/>
			<point x="275" y="436" type="line"/>
			<point x="275" y="274" type="line"/>
			<point x="315" y="274" type="line" smooth="yes"/>
			<point x="356" y="274"/>
			<point x="376" y="261"/>
			<point x="376" y="226" type="curve" smooth="yes"/>
			<point x="376" y="194"/>
			<point x="352" y="179"/>
			<point x="320" y="179" type="curve" smooth="yes"/>
			<point x="260" y="179"/>
			<point x="244" y="221"/>
			<point x="244" y="280" type="curve"/>
			<point x="20" y="280" type="line"/>
			<point x="20" y="109"/>
			<point x="104" y="-15"/>
		</contour>
	</outline>
</glyph>
<glyph name="four" format="2">
	<advance width="645" height="0"/>
	<unicode hex="0034"/>
	<outline>
		<contour>
			<point x="290" y="0" type="line"/>
			<point x="554" y="0" type="line" name="ab01"/>
			<point x="554" y="99" type="line"/>
			<point x="620" y="99" type="line" name="sv03"/>
			<point x="620" y="311" type="line"/>
			<point x="554" y="311" type="line" name="sv02"/>
			<point x="554" y="700" type="line"/>
			<point x="280" y="700" type="line" name="at01"/>
			<point x="10" y="281" type="line" name="sv01"/>
			<point x="10" y="99" type="line"/>
			<point x="290" y="99" type="line" name="ih01"/>
		</contour>
		<contour>
			<point x="202" y="311" type="line"/>
			<point x="290" y="447" type="line" name="iv01"/>
			<point x="290" y="311" type="line" name="sh01"/>
		</contour>
	</outline>
</glyph>
<glyph name="six" format="2">
	<advance width="665" height="0"/>
	<unicode hex="0036"/>
	<outline>
		<contour>
			<point x="347" y="-15" type="curve" smooth="yes"/>
			<point x="535" y="-15"/>
			<point x="640" y="80"/>
			<point x="640" y="235" type="curve" smooth="yes"/>
			<point x="640" y="245" type="line" smooth="yes"/>
			<point x="640" y="365"/>
			<point x="574" y="465"/>
			<point x="434" y="465" type="curve" smooth="yes"/>
			<point x="359" y="465"/>
			<point x="313" y="446"/>
			<point x="288" y="415" type="curve"/>
			<point x="288" y="500"/>
			<point x="309" y="523"/>
			<point x="350" y="523" type="curve" smooth="yes"/>
			<point x="383" y="523"/>
			<point x="394" y="510"/>
			<point x="401" y="490" type="curve" name="hr01"/>
			<point x="625" y="490" type="line"/>
			<point x="614" y="664"/>
			<point x="514" y="715"/>
			<point x="355" y="715" type="curve" smooth="yes"/>
			<point x="150" y="715"/>
			<point x="30" y="610"/>
			<point x="30" y="350" type="curve" smooth="yes"/>
			<point x="30" y="330" type="line" smooth="yes"/>
			<point x="30" y="85"/>
			<point x="140" y="-15"/>
		</contour>
		<contour>
			<point x="335" y="177" type="curve" smooth="yes"/>
			<point x="304" y="177"/>
			<point x="294" y="203"/>
			<point x="294" y="235" type="curve" smooth="yes"/>
			<point x="294" y="245" type="line" smooth="yes"/>
			<point x="294" y="277"/>
			<point x="304" y="303"/>
			<point x="335" y="303" type="curve" smooth="yes"/>
			<point x="366" y="303"/>
			<point x="376" y="277"/>
			<point x="376" y="245" type="curve" smooth="yes"/>
			<point x="376" y="235" type="line" smooth="yes"/>
			<point x="376" y="203"/>
			<point x="366" y="177"/>
		</contour>
	</outline>
</glyph>
<glyph name="seven" format="2">
	<advance width="550" height="0"/>
	<unicode hex="0037"/>
	<outline>
		<contour>
			<point x="80" y="0" type="line"/>
			<point x="360" y="0" type="line" name="ab01"/>
			<point x="530" y="518" type="line" name="sv01"/>
			<point x="530" y="700" type="line"/>
			<point x="10" y="700" type="line" name="at01"/>
			<point x="10" y="488" type="line"/>
			<point x="260" y="488" type="line" name="ih01"/>
		</contour>
	</outline>
</glyph>
<glyph name="eight" format="2">
	<advance width="670" height="0"/>
	<unicode hex="0038"/>
	<outline>
		<contour>
			<point x="335" y="-15" type="curve" smooth="yes"/>
			<point x="511" y="-15"/>
			<point x="645" y="57" name="sv03"/>
			<point x="645" y="204" type="curve" smooth="yes"/>
			<point x="645" y="279" name="at01"/>
			<point x="602" y="343"/>
			<point x="516" y="365" type="curve" name="sv02"/>
			<point x="584" y="388"/>
			<point x="625" y="441" name="ih01"/>
			<point x="625" y="513" type="curve" smooth="yes"/>
			<point x="625" y="641"/>
			<point x="515" y="715" name="iv01"/>
			<point x="335" y="715" type="curve" smooth="yes"/>
			<point x="155" y="715" name="sh01"/>
			<point x="45" y="641"/>
			<point x="45" y="513" type="curve" smooth="yes"/>
			<point x="45" y="441" name="sv01"/>
			<point x="85" y="388"/>
			<point x="153" y="365" type="curve" name="sh02"/>
			<point x="68" y="344" name="ih02"/>
			<point x="25" y="279" name="ih03"/>
			<point x="25" y="204" type="curve" smooth="yes" name="hr01"/>
			<point x="25" y="57"/>
			<point x="159" y="-15"/>
		</contour>
		<contour>
			<point x="335" y="179" type="curve" smooth="yes"/>
			<point x="296" y="179"/>
			<point x="267" y="194"/>
			<point x="267" y="231" type="curve" smooth="yes"/>
			<point x="267" y="268"/>
			<point x="296" y="285"/>
			<point x="335" y="285" type="curve" smooth="yes"/>
			<point x="374" y="285"/>
			<point x="403" y="268"/>
			<point x="403" y="231" type="curve" smooth="yes"/>
			<point x="403" y="194"/>
			<point x="374" y="179"/>
		</contour>
		<contour>
			<point x="335" y="435" type="curve" smooth="yes"/>
			<point x="307" y="435"/>
			<point x="287" y="451"/>
			<point x="287" y="479" type="curve" smooth="yes"/>
			<point x="287" y="507" name="hr03"/>
			<point x="307" y="521"/>
			<point x="335" y="521" type="curve" smooth="yes"/>
			<point x="363" y="521"/>
			<point x="383" y="507"/>
			<point x="383" y="479" type="curve" smooth="yes"/>
			<point x="383" y="451"/>
			<point x="362" y="435"/>
		</contour>
	</outline>
</glyph>
<glyph name="nine" format="2">
	<advance width="665" height="0"/>
	<unicode hex="0039"/>
	<outline>
		<contour>
			<point x="315" y="-15" type="curve" smooth="yes"/>
			<point x="516" y="-15"/>
			<point x="635" y="90"/>
			<point x="635" y="350" type="curve" smooth="yes"/>
			<point x="635" y="370" type="line" smooth="yes"/>
			<point x="635" y="615"/>
			<point x="525" y="715"/>
			<point x="318" y="715" type="curve" smooth="yes"/>
			<point x="130" y="715"/>
			<point x="25" y="620"/>
			<point x="25" y="465" type="curve" smooth="yes"/>
			<point x="25" y="455" type="line" smooth="yes"/>
			<point x="25" y="335"/>
			<point x="91" y="235"/>
			<point x="231" y="235" type="curve" smooth="yes"/>
			<point x="306" y="235"/>
			<point x="352" y="254"/>
			<point x="377" y="285" type="curve"/>
			<point x="377" y="200"/>
			<point x="356" y="177"/>
			<point x="320" y="177" type="curve" smooth="yes"/>
			<point x="281" y="177"/>
			<point x="271" y="190"/>
			<point x="264" y="210" type="curve" name="hr01"/>
			<point x="40" y="210" type="line"/>
			<point x="51" y="36"/>
			<point x="151" y="-15"/>
		</contour>
		<contour>
			<point x="330" y="397" type="curve" smooth="yes"/>
			<point x="299" y="397"/>
			<point x="289" y="423"/>
			<point x="289" y="455" type="curve" smooth="yes"/>
			<point x="289" y="465" type="line" smooth="yes"/>
			<point x="289" y="497"/>
			<point x="299" y="523"/>
			<point x="330" y="523" type="curve" smooth="yes"/>
			<point x="361" y="523"/>
			<point x="371" y="497"/>
			<point x="371" y="465" type="curve" smooth="yes"/>
			<point x="371" y="455" type="line" smooth="yes"/>
			<point x="371" y="422"/>
			<point x="361" y="397"/>
		</contour>
	</outline>
</glyph>
<glyph name="less" format="2">
	<advance width="600" height="0"/>
	<unicode hex="003C"/>
	<outline>
		<contour>
			<point x="575" y="45" type="line" name="av01"/>
			<point x="575" y="270" type="line" name="iv04"/>
			<point x="320" y="363" type="line" name="ih01"/>
			<point x="575" y="455" type="line" name="iv03"/>
			<point x="575" y="675" type="line" name="sv01"/>
			<point x="25" y="448" type="line" name="iv02"/>
			<point x="25" y="272" type="line" name="iv01"/>
		</contour>
	</outline>
</glyph>
<glyph name="equal" format="2">
	<advance width="600" height="0"/>
	<unicode hex="003D"/>
	<outline>
		<contour>
			<point x="25" y="114" type="line" name="sv01"/>
			<point x="575" y="114" type="line"/>
			<point x="575" y="326" type="line"/>
			<point x="25" y="326" type="line" name="ih01"/>
		</contour>
		<contour>
			<point x="25" y="394" type="line" name="sv02"/>
			<point x="575" y="394" type="line"/>
			<point x="575" y="606" type="line"/>
			<point x="25" y="606" type="line" name="sh01"/>
		</contour>
	</outline>
</glyph>
<glyph name="question" format="2">
	<advance width="560" height="0"/>
	<unicode hex="003F"/>
	<outline>
		<contour>
			<point x="170" y="250" type="line"/>
			<point x="390" y="250" type="line" name="iv02"/>
			<point x="390" y="265" type="line" smooth="yes"/>
			<point x="390" y="297"/>
			<point x="418" y="319"/>
			<point x="453" y="347" type="curve" name="at01"/>
			<point x="496" y="379"/>
			<point x="540" y="433" name="iv01"/>
			<point x="540" y="520" type="curve" smooth="yes" name="ih01"/>
			<point x="540" y="629"/>
			<point x="454" y="715"/>
			<point x="280" y="715" type="curve" smooth="yes"/>
			<point x="116" y="715"/>
			<point x="20" y="619"/>
			<point x="20" y="495" type="curve" name="sv01"/>
			<point x="246" y="495" type="line"/>
			<point x="246" y="523" name="sh01"/>
			<point x="257" y="537" name="ih02"/>
			<point x="280" y="537" type="curve" smooth="yes" name="hr01"/>
			<point x="303" y="537"/>
			<point x="314" y="525"/>
			<point x="314" y="500" type="curve" smooth="yes"/>
			<point x="314" y="476"/>
			<point x="294" y="459"/>
			<point x="267" y="440" type="curve"/>
			<point x="225" y="408"/>
			<point x="170" y="362"/>
			<point x="170" y="300" type="curve" smooth="yes"/>
		</contour>
		<contour>
			<point x="280" y="-15" type="curve" smooth="yes"/>
			<point x="347" y="-15"/>
			<point x="400" y="38" name="hr02"/>
			<point x="400" y="105" type="curve" smooth="yes"/>
			<point x="400" y="174"/>
			<point x="347" y="225"/>
			<point x="280" y="225" type="curve" smooth="yes"/>
			<point x="213" y="225"/>
			<point x="160" y="174"/>
			<point x="160" y="105" type="curve" smooth="yes"/>
			<point x="160" y="38"/>
			<point x="213" y="-15"/>
		</contour>
	</outline>
</glyph>
<glyph name="at" format="2">
	<advance width="960" height="0"/>
	<unicode hex="0040"/>
	<outline>
		<contour>
			<point x="511" y="-215" type="curve" smooth="yes"/>
			<point x="604" y="-215"/>
			<point x="672" y="-194"/>
			<point x="732" y="-163" type="curve"/>
			<point x="732" y="-22" type="line"/>
			<point x="675" y="-58"/>
			<point x="599" y="-84"/>
			<point x="511" y="-84" type="curve" smooth="yes"/>
			<point x="323" y="-84"/>
			<point x="172" y="16"/>
			<point x="172" y="264" type="curve" smooth="yes"/>
			<point x="172" y="502"/>
			<point x="313" y="584"/>
			<point x="481" y="584" type="curve" smooth="yes"/>
			<point x="674" y="584"/>
			<point x="790" y="514"/>
			<point x="790" y="290" type="curve" smooth="yes"/>
			<point x="790" y="186"/>
			<point x="766" y="165"/>
			<point x="737" y="165" type="curve" smooth="yes"/>
			<point x="704" y="165"/>
			<point x="699" y="186"/>
			<point x="699" y="231" type="curve" smooth="yes"/>
			<point x="699" y="504" type="line"/>
			<point x="513" y="504" type="line"/>
			<point x="513" y="460" type="line"/>
			<point x="495" y="491"/>
			<point x="476" y="512"/>
			<point x="402" y="512" type="curve" smooth="yes"/>
			<point x="295" y="512"/>
			<point x="231" y="445"/>
			<point x="231" y="288" type="curve" smooth="yes"/>
			<point x="231" y="228" type="line" smooth="yes"/>
			<point x="231" y="71"/>
			<point x="302" y="-6"/>
			<point x="423" y="-6" type="curve" smooth="yes"/>
			<point x="483" y="-6"/>
			<point x="530" y="16"/>
			<point x="553" y="67" type="curve"/>
			<point x="578" y="10"/>
			<point x="622" y="-4" name="hr01"/>
			<point x="689" y="-4" type="curve" smooth="yes" name="hr01"/>
			<point x="825" y="-4"/>
			<point x="940" y="80"/>
			<point x="940" y="290" type="curve" smooth="yes"/>
			<point x="940" y="590"/>
			<point x="760" y="715"/>
			<point x="481" y="715" type="curve" smooth="yes"/>
			<point x="241" y="715"/>
			<point x="20" y="564"/>
			<point x="20" y="264" type="curve" smooth="yes"/>
			<point x="20" y="-62"/>
			<point x="228" y="-215"/>
		</contour>
		<contour>
			<point x="467" y="164" type="curve" smooth="yes"/>
			<point x="438" y="164"/>
			<point x="430" y="182"/>
			<point x="430" y="231" type="curve" smooth="yes"/>
			<point x="430" y="275" type="line" smooth="yes"/>
			<point x="430" y="328"/>
			<point x="436" y="342"/>
			<point x="465" y="342" type="curve" smooth="yes"/>
			<point x="493" y="342"/>
			<point x="501" y="335"/>
			<point x="501" y="275" type="curve" smooth="yes"/>
			<point x="501" y="231" type="line" smooth="yes"/>
			<point x="501" y="180"/>
			<point x="492" y="164"/>
		</contour>
	</outline>
</glyph>
<glyph name="A" format="2">
	<advance width="764" height="0"/>
	<unicode hex="0041"/>
	<anchor x="382" y="0" name="bottom"/>
	<anchor x="762" y="0" name="ogonek"/>
	<anchor x="382" y="700" name="top"/>
	<outline>
		<contour>
			<point x="2" y="0" type="line"/>
			<point x="246" y="0" type="line" name="ab01"/>
			<point x="271" y="94" type="line"/>
			<point x="453" y="94" type="line" name="sh01"/>
			<point x="478" y="0" type="line"/>
			<point x="762" y="0" type="line" name="ab02"/>
			<point x="514" y="700" type="line"/>
			<point x="250" y="700" type="line" name="at01"/>
		</contour>
		<contour>
			<point x="322" y="286" type="line"/>
			<point x="362" y="460" type="line" name="iv01"/>
			<point x="401" y="286" type="line" name="ih01"/>
		</contour>
	</outline>
</glyph>
<glyph name="B" format="2">
	<advance width="730" height="0"/>
	<unicode hex="0042"/>
	<anchor x="365" y="0" name="bottom"/>
	<anchor x="365" y="350" name="center"/>
	<anchor x="365" y="700" name="top"/>
	<outline>
		<contour>
			<point x="40" y="0" type="line"/>
			<point x="444" y="0" type="line" smooth="yes" name="sh01"/>
			<point x="633" y="0"/>
			<point x="710" y="67" name="iv03"/>
			<point x="710" y="198" type="curve" smooth="yes"/>
			<point x="710" y="289"/>
			<point x="667" y="345" name="at01"/>
			<point x="580" y="365" type="curve"/>
			<point x="643" y="388"/>
			<point x="680" y="441" name="iv02"/>
			<point x="680" y="513" type="curve" smooth="yes"/>
			<point x="680" y="642" name="ih01"/>
			<point x="604" y="700"/>
			<point x="445" y="700" type="curve" smooth="yes"/>
			<point x="40" y="700" type="line" name="sh02"/>
		</contour>
		<contour>
			<point x="304" y="172" type="line"/>
			<point x="304" y="279" type="line" name="iv01"/>
			<point x="362" y="279" type="line" smooth="yes" name="ih02"/>
			<point x="426" y="279" name="ih03"/>
			<point x="446" y="265"/>
			<point x="446" y="226" type="curve" smooth="yes"/>
			<point x="446" y="186"/>
			<point x="427" y="172"/>
			<point x="364" y="172" type="curve" smooth="yes"/>
		</contour>
		<contour>
			<point x="304" y="431" type="line"/>
			<point x="304" y="528" type="line"/>
			<point x="353" y="528" type="line" smooth="yes"/>
			<point x="396" y="528"/>
			<point x="416" y="515"/>
			<point x="416" y="480" type="curve" smooth="yes"/>
			<point x="416" y="445"/>
			<point x="396" y="431"/>
			<point x="351" y="431" type="curve" smooth="yes"/>
		</contour>
	</outline>
</glyph>
<glyph name="E" format="2">
	<advance width="615" height="0"/>
	<unicode hex="0045"/>
	<anchor x="308" y="0" name="bottom"/>
	<anchor x="590" y="0" name="ogonek"/>
	<anchor x="315" y="700" name="top"/>
	<anchor x="20" y="700" name="topleft"/>
	<outline>
		<contour>
			<point x="40" y="0" type="line"/>
			<point x="590" y="0" type="line" name="ab01"/>
			<point x="590" y="192" type="line"/>
			<point x="304" y="192" type="line" name="sv02"/>
			<point x="304" y="274" type="line"/>
			<point x="560" y="274" type="line" name="iv02"/>
			<point x="560" y="436" type="line" name="iv01"/>
			<point x="304" y="436" type="line"/>
			<point x="304" y="508" type="line" name="ih01"/>
			<point x="590" y="508" type="line" name="sv01"/>
			<point x="590" y="700" type="line"/>
			<point x="40" y="700" type="line" name="at01"/>
		</contour>
	</outline>
</glyph>
<glyph name="F" format="2">
	<advance width="580" height="0"/>
	<unicode hex="0046"/>
	<anchor x="290" y="0" name="bottom"/>
	<anchor x="290" y="700" name="top"/>
	<outline>
		<contour>
			<point x="40" y="0" type="line"/>
			<point x="304" y="0" type="line" name="ab01"/>
			<point x="304" y="225" type="line"/>
			<point x="535" y="225" type="line" name="sv02"/>
			<point x="535" y="407" type="line" name="iv01"/>
			<point x="304" y="407" type="line"/>
			<point x="304" y="508" type="line" name="ih01"/>
			<point x="565" y="508" type="line" name="sv01"/>
			<point x="565" y="700" type="line"/>
			<point x="40" y="700" type="line" name="at01"/>
		</contour>
	</outline>
</glyph>
<glyph name="G" format="2">
	<advance width="770" height="0"/>
	<unicode hex="0047"/>
	<anchor x="385" y="0" name="bottom"/>
	<anchor x="385" y="700" name="top"/>
	<outline>
		<contour>
			<point x="395" y="-15" type="curve" smooth="yes"/>
			<point x="571" y="-15"/>
			<point x="740" y="84"/>
			<point x="740" y="325" type="curve" smooth="yes" name="iv01"/>
			<point x="740" y="386" type="line" name="sv02"/>
			<point x="415" y="386" type="line"/>
			<point x="415" y="244" type="line" name="sv01"/>
			<point x="488" y="244" type="line"/>
			<point x="473" y="217"/>
			<point x="453" y="199" name="ih01"/>
			<point x="405" y="199" type="curve" smooth="yes" name="iv02"/>
			<point x="336" y="199"/>
			<point x="300" y="244" name="at01"/>
			<point x="300" y="345" type="curve" smooth="yes"/>
			<point x="300" y="365" type="line" smooth="yes"/>
			<point x="300" y="465" name="ab01"/>
			<point x="329" y="501" name="ih02"/>
			<point x="385" y="501" type="curve" smooth="yes" name="ih03"/>
			<point x="420" y="501"/>
			<point x="444" y="484"/>
			<point x="455" y="450" type="curve"/>
			<point x="725" y="450" type="line"/>
			<point x="701" y="638"/>
			<point x="548" y="715"/>
			<point x="390" y="715" type="curve" smooth="yes"/>
			<point x="189" y="715"/>
			<point x="30" y="612"/>
			<point x="30" y="365" type="curve" smooth="yes"/>
			<point x="30" y="345" type="line" smooth="yes"/>
			<point x="30" y="98"/>
			<point x="184" y="-15"/>
		</contour>
	</outline>
</glyph>
<glyph name="K" format="2">
	<advance width="755" height="0"/>
	<unicode hex="004B"/>
	<anchor x="378" y="0" name="bottom"/>
	<anchor x="378" y="700" name="top"/>
	<outline>
		<contour>
			<point x="40" y="0" type="line"/>
			<point x="304" y="0" type="line" name="ab02"/>
			<point x="304" y="181" type="line"/>
			<point x="337" y="221" type="line" name="ih01"/>
			<point x="454" y="0" type="line"/>
			<point x="750" y="0" type="line" name="ab01"/>
			<point x="515" y="403" type="line"/>
			<point x="740" y="700" type="line"/>
			<point x="454" y="700" type="line" name="at02"/>
			<point x="304" y="490" type="line" name="iv01"/>
			<point x="304" y="700" type="line"/>
			<point x="40" y="700" type="line" name="at01"/>
		</contour>
	</outline>
</glyph>
<glyph name="M" format="2">
	<advance width="910" height="0"/>
	<unicode hex="004D"/>
	<anchor x="455" y="0" name="bottom"/>
	<anchor x="455" y="700" name="top"/>
	<outline>
		<contour>
			<point x="40" y="0" type="line"/>
			<point x="304" y="0" type="line" name="ab02"/>
			<point x="304" y="280" type="line" name="iv03"/>
			<point x="385" y="125" type="line"/>
			<point x="525" y="125" type="line" name="iv01"/>
			<point x="606" y="280" type="line" name="iv02"/>
			<point x="606" y="0" type="line"/>
			<point x="870" y="0" type="line" name="ab01"/>
			<point x="870" y="700" type="line"/>
			<point x="611" y="700" type="line" name="at02"/>
			<point x="458" y="405" type="line" name="ih01"/>
			<point x="305" y="700" type="line"/>
			<point x="40" y="700" type="line" name="at01"/>
		</contour>
	</outline>
</glyph>
<glyph name="N" format="2">
	<advance width="760" height="0"/>
	<unicode hex="004E"/>
	<anchor x="380" y="0" name="bottom"/>
	<anchor x="380" y="700" name="top"/>
	<outline>
		<contour>
			<point x="40" y="0" type="line"/>
			<point x="284" y="0" type="line" name="ab02"/>
			<point x="284" y="290" type="line" name="iv01"/>
			<point x="506" y="0" type="line"/>
			<point x="720" y="0" type="line" name="ab01"/>
			<point x="720" y="700" type="line"/>
			<point x="476" y="700" type="line" name="at02"/>
			<point x="476" y="410" type="line" name="ih01"/>
			<point x="254" y="700" type="line"/>
			<point x="40" y="700" type="line" name="at01"/>
		</contour>
	</outline>
</glyph>
<glyph name="P" format="2">
	<advance width="685" height="0"/>
	<unicode hex="0050"/>
	<anchor x="343" y="0" name="bottom"/>
	<anchor x="343" y="700" name="top"/>
	<outline>
		<contour>
			<point x="40" y="0" type="line"/>
			<point x="304" y="0" type="line" name="ab01"/>
			<point x="304" y="204" type="line" name="iv01"/>
			<point x="365" y="204" type="line" smooth="yes"/>
			<point x="580" y="204"/>
			<point x="670" y="294" name="sh01"/>
			<point x="670" y="447" type="curve" smooth="yes" name="at01"/>
			<point x="670" y="610"/>
			<point x="580" y="700"/>
			<point x="365" y="700" type="curve" smooth="yes" name="sv01"/>
			<point x="40" y="700" type="line"/>
		</contour>
		<contour>
			<point x="304" y="386" type="line" name="ih01"/>
			<point x="304" y="508" type="line" name="ih02"/>
			<point x="334" y="508" type="line" smooth="yes" name="ih03"/>
			<point x="387" y="508"/>
			<point x="406" y="480"/>
			<point x="406" y="447" type="curve" smooth="yes"/>
			<point x="406" y="414"/>
			<point x="389" y="386"/>
			<point x="334" y="386" type="curve" smooth="yes"/>
		</contour>
	</outline>
</glyph>
<glyph name="Q" format="2">
	<advance width="760" height="0"/>
	<unicode hex="0051"/>
	<anchor x="380" y="0" name="bottom"/>
	<anchor x="380" y="700" name="top"/>
	<outline>
		<contour>
			<point x="380" y="-15" type="curve" smooth="yes"/>
			<point x="449" y="-15" name="iv02"/>
			<point x="512" y="-1" name="sv01"/>
			<point x="568" y="26" type="curve"/>
			<point x="625" y="-30" type="line" name="iv01"/>
			<point x="735" y="80" type="line"/>
			<point x="684" y="131" type="line"/>
			<point x="719" y="187" name="at01"/>
			<point x="740" y="256"/>
			<point x="740" y="345" type="curve" smooth="yes"/>
			<point x="740" y="365" type="line" smooth="yes" name="ih01"/>
			<point x="740" y="604"/>
			<point x="577" y="715"/>
			<point x="380" y="715" type="curve" smooth="yes"/>
			<point x="183" y="715" name="sv02"/>
			<point x="20" y="604"/>
			<point x="20" y="365" type="curve" smooth="yes"/>
			<point x="20" y="345" type="line" smooth="yes" name="iv04"/>
			<point x="20" y="93" name="iv03"/>
			<point x="183" y="-15"/>
		</contour>
		<contour>
			<point x="380" y="199" type="curve" smooth="yes" name="sh01"/>
			<point x="324" y="199" name="ih02"/>
			<point x="290" y="240" name="ih03"/>
			<point x="290" y="345" type="curve" smooth="yes"/>
			<point x="290" y="365" type="line" smooth="yes"/>
			<point x="290" y="461"/>
			<point x="324" y="501"/>
			<point x="380" y="501" type="curve" smooth="yes"/>
			<point x="436" y="501"/>
			<point x="470" y="461"/>
			<point x="470" y="365" type="curve" smooth="yes"/>
			<point x="470" y="355" type="line"/>
			<point x="470" y="351"/>
			<point x="470" y="349"/>
			<point x="470" y="345" type="curve"/>
			<point x="445" y="370" type="line"/>
			<point x="335" y="260" type="line"/>
			<point x="395" y="200" type="line"/>
			<point x="392" y="199"/>
			<point x="387" y="199"/>
		</contour>
	</outline>
</glyph>
<glyph name="S" format="2">
	<advance width="670" height="0"/>
	<unicode hex="0053"/>
	<anchor x="335" y="0" name="bottom"/>
	<anchor x="335" y="700" name="top"/>
	<outline>
		<contour>
			<point x="335" y="-15" type="curve" smooth="yes"/>
			<point x="532" y="-15"/>
			<point x="660" y="61" name="iv03"/>
			<point x="660" y="226" type="curve" smooth="yes"/>
			<point x="660" y="386" name="sv02"/>
			<point x="527" y="429" name="iv04"/>
			<point x="410" y="450" type="curve" smooth="yes"/>
			<point x="319" y="466" name="at01"/>
			<point x="294" y="475"/>
			<point x="294" y="500" type="curve" smooth="yes" name="iv01"/>
			<point x="294" y="521"/>
			<point x="308" y="531" name="sv01"/>
			<point x="335" y="531" type="curve" smooth="yes" name="iv02"/>
			<point x="366" y="531"/>
			<point x="378" y="519" name="ih01"/>
			<point x="381" y="500" type="curve" name="ih02"/>
			<point x="645" y="500" type="line" name="ih03"/>
			<point x="625" y="632"/>
			<point x="526" y="715"/>
			<point x="335" y="715" type="curve" smooth="yes"/>
			<point x="154" y="715"/>
			<point x="30" y="641"/>
			<point x="30" y="485" type="curve" smooth="yes"/>
			<point x="30" y="339"/>
			<point x="127" y="282"/>
			<point x="260" y="255" type="curve" smooth="yes"/>
			<point x="376" y="231"/>
			<point x="396" y="223"/>
			<point x="396" y="200" type="curve" smooth="yes"/>
			<point x="396" y="179"/>
			<point x="382" y="169"/>
			<point x="335" y="169" type="curve" smooth="yes"/>
			<point x="292" y="169"/>
			<point x="278" y="182"/>
			<point x="274" y="210" type="curve" name="hr01"/>
			<point x="10" y="210" type="line"/>
			<point x="30" y="53"/>
			<point x="135" y="-15"/>
		</contour>
	</outline>
</glyph>
<glyph name="U" format="2">
	<advance width="740" height="0"/>
	<unicode hex="0055"/>
	<anchor x="370" y="0" name="bottom"/>
	<anchor x="498" y="0" name="ogonek"/>
	<anchor x="370" y="700" name="top"/>
	<anchor x="720" y="700" name="topright"/>
	<outline>
		<contour>
			<point x="370" y="-15" type="curve" smooth="yes"/>
			<point x="570" y="-15"/>
			<point x="705" y="76"/>
			<point x="705" y="280" type="curve" smooth="yes" name="at02"/>
			<point x="705" y="700" type="line"/>
			<point x="441" y="700" type="line" name="sv01"/>
			<point x="441" y="310" type="line" smooth="yes"/>
			<point x="441" y="240"/>
			<point x="434" y="199" name="at01"/>
			<point x="370" y="199" type="curve" smooth="yes"/>
			<point x="306" y="199" name="ih01"/>
			<point x="299" y="240" name="ih02"/>
			<point x="299" y="310" type="curve" smooth="yes" name="ih03"/>
			<point x="299" y="700" type="line"/>
			<point x="35" y="700" type="line"/>
			<point x="35" y="280" type="line" smooth="yes"/>
			<point x="35" y="76"/>
			<point x="170" y="-15"/>
		</contour>
	</outline>
</glyph>
<glyph name="V" format="2">
	<advance width="774" height="0"/>
	<unicode hex="0056"/>
	<guideline x="387"/>
	<anchor x="387" y="0" name="bottom"/>
	<anchor x="387" y="700" name="top"/>
	<outline>
		<contour>
			<point x="265" y="0" type="line"/>
			<point x="529" y="0" type="line" name="ab01"/>
			<point x="772" y="700" type="line"/>
			<point x="522" y="700" type="line" name="at02"/>
			<point x="402" y="310" type="line" name="ih01"/>
			<point x="282" y="700" type="line"/>
			<point x="2" y="700" type="line" name="at01"/>
		</contour>
	</outline>
</glyph>
<glyph name="W" format="2">
	<advance width="1084" height="0"/>
	<unicode hex="0057"/>
	<anchor x="542" y="0" name="bottom"/>
	<anchor x="542" y="700" name="top"/>
	<outline>
		<contour>
			<point x="192" y="0" type="line"/>
			<point x="456" y="0" type="line" name="ab02"/>
			<point x="535" y="380" type="line" name="ih01"/>
			<point x="628" y="0" type="line"/>
			<point x="892" y="0" type="line" name="ab01"/>
			<point x="1082" y="700" type="line"/>
			<point x="848" y="700" type="line" name="at03"/>
			<point x="761" y="340" type="line" name="iv02"/>
			<point x="679" y="700" type="line"/>
			<point x="425" y="700" type="line" name="at02"/>
			<point x="350" y="340" type="line" name="iv01"/>
			<point x="276" y="700" type="line"/>
			<point x="2" y="700" type="line" name="at01"/>
		</contour>
	</outline>
</glyph>
<glyph name="X" format="2">
	<advance width="790" height="0"/>
	<unicode hex="0058"/>
	<anchor x="395" y="0" name="bottom"/>
	<anchor x="395" y="700" name="top"/>
	<outline>
		<contour>
			<point x="5" y="0" type="line"/>
			<point x="297" y="0" type="line" name="ab02"/>
			<point x="393" y="191" type="line" name="iv01"/>
			<point x="489" y="0" type="line"/>
			<point x="785" y="0" type="line" name="ab01"/>
			<point x="577" y="365" type="line"/>
			<point x="775" y="700" type="line"/>
			<point x="485" y="700" type="line" name="at02"/>
			<point x="397" y="536" type="line" name="ih01"/>
			<point x="309" y="700" type="line"/>
			<point x="15" y="700" type="line" name="at01"/>
			<point x="214" y="362" type="line"/>
		</contour>
	</outline>
</glyph>
<glyph name="Y" format="2">
	<advance width="744" height="0"/>
	<unicode hex="0059"/>
	<anchor x="372" y="0" name="bottom"/>
	<anchor x="387" y="700" name="top"/>
	<anchor x="20" y="700" name="topleft"/>
	<outline>
		<contour>
			<point x="250" y="0" type="line"/>
			<point x="514" y="0" type="line" name="ab01"/>
			<point x="514" y="245" type="line"/>
			<point x="742" y="700" type="line"/>
			<point x="470" y="700" type="line" name="at02"/>
			<point x="391" y="515" type="line" name="ih01"/>
			<point x="304" y="700" type="line"/>
			<point x="2" y="700" type="line" name="at01"/>
			<point x="250" y="245" type="line"/>
		</contour>
	</outline>
</glyph>
<glyph name="backslash" format="2">
	<advance width="500" height="0"/>
	<unicode hex="005C"/>
	<outline>
		<contour>
			<point x="320" y="-200" type="line"/>
			<point x="500" y="-200" type="line" name="ab01"/>
			<point x="180" y="700" type="line" name="ih01"/>
			<point x="0" y="700" type="line" name="at01"/>
		</contour>
	</outline>
</glyph>
<glyph name="asciicircum" format="2">
	<advance width="600" height="0"/>
	<unicode hex="005E"/>
	<outline>
		<contour>
			<point x="20" y="440" type="line"/>
			<point x="230" y="440" type="line" name="sv01"/>
			<point x="295" y="550" type="line" name="ih01"/>
			<point x="360" y="440" type="line"/>
			<point x="580" y="440" type="line" name="iv01"/>
			<point x="410" y="700" type="line"/>
			<point x="190" y="700" type="line" name="at01"/>
		</contour>
	</outline>
</glyph>
<glyph name="a" format="2">
	<advance width="580" height="0"/>
	<unicode hex="0061"/>
	<anchor x="290" y="0" name="bottom"/>
	<anchor x="560" y="0" name="ogonek"/>
	<anchor x="295" y="530" name="top"/>
	<outline>
		<contour>
			<point x="190" y="-15" type="curve" smooth="yes"/>
			<point x="280" y="-15" name="iv03"/>
			<point x="316" y="20"/>
			<point x="340" y="60" type="curve" name="ab02"/>
			<point x="340" y="29"/>
			<point x="345" y="15"/>
			<point x="350" y="0" type="curve" name="at01"/>
			<point x="560" y="0" type="line"/>
			<point x="553" y="40" name="iv02"/>
			<point x="550" y="79" name="ih01"/>
			<point x="550" y="135" type="curve" smooth="yes"/>
			<point x="550" y="320" type="line" smooth="yes" name="iv01"/>
			<point x="550" y="485"/>
			<point x="444" y="545"/>
			<point x="295" y="545" type="curve" smooth="yes" name="ab01"/>
			<point x="124" y="545"/>
			<point x="45" y="469"/>
			<point x="40" y="365" type="curve"/>
			<point x="250" y="365" type="line" name="sv01"/>
			<point x="255" y="380"/>
			<point x="265" y="387" name="sh01"/>
			<point x="290" y="387" type="curve" smooth="yes" name="hr01"/>
			<point x="314" y="387" name="ih02"/>
			<point x="330" y="375"/>
			<point x="330" y="340" type="curve" smooth="yes"/>
			<point x="330" y="326" type="line"/>
			<point x="215" y="326" type="line" smooth="yes"/>
			<point x="72" y="326"/>
			<point x="10" y="260"/>
			<point x="10" y="155" type="curve" smooth="yes"/>
			<point x="10" y="59"/>
			<point x="75" y="-15"/>
		</contour>
		<contour>
			<point x="275" y="143" type="curve" smooth="yes"/>
			<point x="249" y="143"/>
			<point x="236" y="154"/>
			<point x="236" y="177" type="curve" smooth="yes"/>
			<point x="236" y="199"/>
			<point x="249" y="210"/>
			<point x="275" y="210" type="curve" smooth="yes"/>
			<point x="330" y="210" type="line"/>
			<point x="330" y="200" type="line" smooth="yes"/>
			<point x="330" y="162"/>
			<point x="312" y="143"/>
		</contour>
	</outline>
</glyph>
<glyph name="b" format="2">
	<advance width="625" height="0"/>
	<unicode hex="0062"/>
	<anchor x="313" y="0" name="bottom"/>
	<anchor x="313" y="265" name="center"/>
	<anchor x="313" y="530" name="top"/>
	<outline>
		<contour>
			<point x="400" y="-15" type="curve" smooth="yes"/>
			<point x="514" y="-15"/>
			<point x="610" y="68"/>
			<point x="610" y="255" type="curve" smooth="yes"/>
			<point x="610" y="275" type="line" smooth="yes"/>
			<point x="610" y="455"/>
			<point x="526" y="545"/>
			<point x="400" y="545" type="curve" smooth="yes"/>
			<point x="340" y="545"/>
			<point x="288" y="522"/>
			<point x="255" y="475" type="curve"/>
			<point x="255" y="700" type="line"/>
			<point x="35" y="700" type="line"/>
			<point x="35" y="0" type="line" name="hr01"/>
			<point x="239" y="0" type="line"/>
			<point x="239" y="60" type="line"/>
			<point x="263" y="14"/>
			<point x="305" y="-15" name="hr02"/>
		</contour>
		<contour>
			<point x="322" y="163" type="curve" smooth="yes"/>
			<point x="289" y="163"/>
			<point x="255" y="187"/>
			<point x="255" y="250" type="curve" smooth="yes"/>
			<point x="255" y="280" type="line" smooth="yes"/>
			<point x="255" y="341"/>
			<point x="287" y="367"/>
			<point x="322" y="367" type="curve" smooth="yes"/>
			<point x="354" y="367"/>
			<point x="384" y="342"/>
			<point x="384" y="275" type="curve" smooth="yes"/>
			<point x="384" y="255" type="line" smooth="yes"/>
			<point x="384" y="187"/>
			<point x="350" y="163"/>
		</contour>
	</outline>
</glyph>
<glyph name="c" format="2">
	<advance width="590" height="0"/>
	<unicode hex="0063"/>
	<anchor x="295" y="0" name="bottom"/>
	<anchor x="295" y="530" name="top"/>
	<outline>
		<contour>
			<point x="295" y="-15" type="curve" smooth="yes"/>
			<point x="488" y="-15"/>
			<point x="564" y="73" name="iv02"/>
			<point x="575" y="220" type="curve" name="sv02"/>
			<point x="369" y="220" type="line"/>
			<point x="364" y="177"/>
			<point x="341" y="163" name="sv01"/>
			<point x="310" y="163" type="curve" smooth="yes" name="iv01"/>
			<point x="264" y="163"/>
			<point x="241" y="195" name="at01"/>
			<point x="241" y="260" type="curve" smooth="yes"/>
			<point x="241" y="280" type="line" smooth="yes"/>
			<point x="241" y="336" name="ih01"/>
			<point x="265" y="367" name="ih02"/>
			<point x="310" y="367" type="curve" smooth="yes" name="ih03"/>
			<point x="343" y="367"/>
			<point x="364" y="353"/>
			<point x="369" y="310" type="curve" name="hr02"/>
			<point x="575" y="310" type="line"/>
			<point x="564" y="442"/>
			<point x="499" y="545"/>
			<point x="295" y="545" type="curve" smooth="yes"/>
			<point x="125" y="545"/>
			<point x="15" y="435"/>
			<point x="15" y="280" type="curve" smooth="yes"/>
			<point x="15" y="260" type="line" smooth="yes"/>
			<point x="15" y="96"/>
			<point x="125" y="-15"/>
		</contour>
	</outline>
</glyph>
<glyph name="e" format="2">
	<advance width="600" height="0"/>
	<unicode hex="0065"/>
	<anchor x="300" y="0" name="bottom"/>
	<anchor x="429" y="0" name="ogonek"/>
	<anchor x="300" y="530" name="top"/>
	<outline>
		<contour>
			<point x="310" y="-15" type="curve" smooth="yes"/>
			<point x="467" y="-15"/>
			<point x="560" y="44" name="iv02"/>
			<point x="580" y="175" type="curve" name="sv02"/>
			<point x="370" y="175" type="line"/>
			<point x="362" y="158" name="sv01"/>
			<point x="347" y="143" name="hr01"/>
			<point x="310" y="143" type="curve" smooth="yes" name="ih01"/>
			<point x="261" y="143"/>
			<point x="243" y="165"/>
			<point x="238" y="210" type="curve" name="ab01"/>
			<point x="585" y="210" type="line"/>
			<point x="585" y="270" type="line" smooth="yes" name="iv01"/>
			<point x="585" y="451"/>
			<point x="495" y="545" name="sh01"/>
			<point x="300" y="545" type="curve" smooth="yes" name="ih02"/>
			<point x="129" y="545" name="ih03"/>
			<point x="15" y="455"/>
			<point x="15" y="275" type="curve" smooth="yes"/>
			<point x="15" y="255" type="line" smooth="yes"/>
			<point x="15" y="75"/>
			<point x="135" y="-15"/>
		</contour>
		<contour>
			<point x="305" y="387" type="curve" smooth="yes"/>
			<point x="346" y="387"/>
			<point x="363" y="361"/>
			<point x="367" y="326" type="curve"/>
			<point x="239" y="326" type="line"/>
			<point x="243" y="361"/>
			<point x="260" y="387"/>
		</contour>
	</outline>
</glyph>
<glyph name="h" format="2">
	<advance width="605" height="0"/>
	<unicode hex="0068"/>
	<anchor x="303" y="0" name="bottom"/>
	<anchor x="303" y="387" name="center"/>
	<anchor x="303" y="774" name="top"/>
	<outline>
		<contour>
			<point x="35" y="0" type="line"/>
			<point x="255" y="0" type="line" name="ab02"/>
			<point x="255" y="310" type="line" smooth="yes"/>
			<point x="255" y="345" name="ih01"/>
			<point x="272" y="367"/>
			<point x="307" y="367" type="curve" smooth="yes"/>
			<point x="342" y="367" name="ab01"/>
			<point x="355" y="345"/>
			<point x="355" y="310" type="curve" smooth="yes" name="at02"/>
			<point x="355" y="0" type="line" name="iv01"/>
			<point x="575" y="0" type="line"/>
			<point x="575" y="355" type="line" smooth="yes" name="at01"/>
			<point x="575" y="480" name="ih02"/>
			<point x="513" y="545" name="ih03"/>
			<point x="400" y="545" type="curve" smooth="yes"/>
			<point x="324" y="545"/>
			<point x="279" y="510"/>
			<point x="255" y="475" type="curve"/>
			<point x="255" y="700" type="line"/>
			<point x="35" y="700" type="line"/>
		</contour>
	</outline>
</glyph>
<glyph name="l" format="2">
	<advance width="350" height="0"/>
	<unicode hex="006C"/>
	<anchor x="175" y="0" name="bottom"/>
	<anchor x="175" y="387" name="center"/>
	<anchor x="150" y="700" name="top"/>
	<anchor x="300" y="700" name="topright"/>
	<outline>
		<contour>
			<point x="245" y="-8" type="curve" smooth="yes"/>
			<point x="255" y="-8"/>
			<point x="312" y="-7"/>
			<point x="340" y="-4" type="curve"/>
			<point x="340" y="171" type="line"/>
			<point x="333" y="170"/>
			<point x="330" y="170"/>
			<point x="323" y="170" type="curve" smooth="yes"/>
			<point x="267" y="170"/>
			<point x="260" y="193"/>
			<point x="260" y="258" type="curve" smooth="yes"/>
			<point x="260" y="700" type="line"/>
			<point x="40" y="700" type="line"/>
			<point x="40" y="212" type="line" smooth="yes"/>
			<point x="40" y="37"/>
			<point x="96" y="-8"/>
		</contour>
	</outline>
</glyph>
<glyph name="q" format="2">
	<advance width="625" height="0"/>
	<unicode hex="0071"/>
	<anchor x="313" y="0" name="bottom"/>
	<anchor x="313" y="530" name="top"/>
	<outline>
		<contour>
			<point x="370" y="-200" type="line"/>
			<point x="590" y="-200" type="line"/>
			<point x="590" y="530" type="line"/>
			<point x="386" y="530" type="line" name="hr01"/>
			<point x="386" y="470" type="line"/>
			<point x="362" y="516"/>
			<point x="320" y="545" name="hr02"/>
			<point x="226" y="545" type="curve" smooth="yes" name="hr01"/>
			<point x="102" y="545"/>
			<point x="15" y="451"/>
			<point x="15" y="275" type="curve" smooth="yes"/>
			<point x="15" y="256" type="line" smooth="yes"/>
			<point x="15" y="69"/>
			<point x="111" y="-15"/>
			<point x="225" y="-15" type="curve" smooth="yes"/>
			<point x="285" y="-15"/>
			<point x="337" y="8"/>
			<point x="370" y="55" type="curve"/>
		</contour>
		<contour>
			<point x="303" y="163" type="curve" smooth="yes"/>
			<point x="275" y="163"/>
			<point x="241" y="187"/>
			<point x="241" y="255" type="curve" smooth="yes"/>
			<point x="241" y="275" type="line" smooth="yes"/>
			<point x="241" y="342"/>
			<point x="271" y="367"/>
			<point x="303" y="367" type="curve" smooth="yes"/>
			<point x="338" y="367"/>
			<point x="370" y="341"/>
			<point x="370" y="281" type="curve" smooth="yes"/>
			<point x="370" y="251" type="line" smooth="yes"/>
			<point x="370" y="187"/>
			<point x="336" y="163"/>
		</contour>
	</outline>
</glyph>
<glyph name="r" format="2">
	<advance width="405" height="0"/>
	<unicode hex="0072"/>
	<anchor x="145" y="0" name="bottom"/>
	<anchor x="203" y="530" name="top"/>
	<outline>
		<contour>
			<point x="35" y="0" type="line"/>
			<point x="255" y="0" type="line" name="ab01"/>
			<point x="255" y="310" type="line" smooth="yes"/>
			<point x="255" y="346" name="sv01"/>
			<point x="274" y="367"/>
			<point x="330" y="367" type="curve" smooth="yes"/>
			<point x="351" y="367" name="at01"/>
			<point x="378" y="362" name="iv01"/>
			<point x="395" y="354" type="curve" name="ih01"/>
			<point x="395" y="537" type="line" name="at02"/>
			<point x="380" y="544" name="ih02"/>
			<point x="361" y="545" name="ih03"/>
			<point x="345" y="545" type="curve" smooth="yes"/>
			<point x="290" y="545"/>
			<point x="252" y="511"/>
			<point x="239" y="470" type="curve" name="hr01"/>
			<point x="239" y="530" type="line" name="hr02"/>
			<point x="35" y="530" type="line"/>
		</contour>
	</outline>
</glyph>
<glyph name="s" format="2">
	<advance width="560" height="0"/>
	<unicode hex="0073"/>
	<anchor x="280" y="0" name="bottom"/>
	<anchor x="280" y="530" name="top"/>
	<outline>
		<contour>
			<point x="280" y="-15" type="curve" smooth="yes"/>
			<point x="449" y="-15"/>
			<point x="550" y="47" name="iv03"/>
			<point x="550" y="166" type="curve" smooth="yes"/>
			<point x="550" y="287" name="sv02"/>
			<point x="409" y="325" name="iv04"/>
			<point x="319" y="338" type="curve" smooth="yes"/>
			<point x="258" y="346" name="at01"/>
			<point x="245" y="355"/>
			<point x="245" y="370" type="curve" smooth="yes" name="iv01"/>
			<point x="245" y="379"/>
			<point x="252" y="387" name="sv01"/>
			<point x="275" y="387" type="curve" smooth="yes" name="iv02"/>
			<point x="296" y="387"/>
			<point x="307" y="381" name="ih01"/>
			<point x="310" y="360" type="curve" name="ih02"/>
			<point x="530" y="360" type="line" name="ih03"/>
			<point x="522" y="449"/>
			<point x="460" y="545"/>
			<point x="280" y="545" type="curve" smooth="yes"/>
			<point x="120" y="545"/>
			<point x="25" y="478"/>
			<point x="25" y="365" type="curve" smooth="yes"/>
			<point x="25" y="245"/>
			<point x="134" y="216"/>
			<point x="228" y="200" type="curve" smooth="yes"/>
			<point x="317" y="184"/>
			<point x="330" y="178"/>
			<point x="330" y="166" type="curve" smooth="yes"/>
			<point x="330" y="150"/>
			<point x="323" y="143"/>
			<point x="280" y="143" type="curve" smooth="yes"/>
			<point x="241" y="143"/>
			<point x="233" y="155"/>
			<point x="230" y="170" type="curve" name="hr01"/>
			<point x="10" y="170" type="line"/>
			<point x="26" y="79"/>
			<point x="82" y="-15"/>
		</contour>
	</outline>
</glyph>
<glyph name="u" format="2">
	<advance width="605" height="0"/>
	<unicode hex="0075"/>
	<anchor x="303" y="0" name="bottom"/>
	<anchor x="570" y="0" name="ogonek"/>
	<anchor x="300" y="530" name="top"/>
	<anchor x="585" y="530" name="topright"/>
	<outline>
		<contour>
			<point x="205" y="-15" type="curve" smooth="yes"/>
			<point x="293" y="-15" name="iv01"/>
			<point x="342" y="19"/>
			<point x="366" y="60" type="curve" name="ab02"/>
			<point x="366" y="0" type="line" name="hr01"/>
			<point x="570" y="0" type="line" name="at02"/>
			<point x="570" y="530" type="line"/>
			<point x="350" y="530" type="line" name="ih01"/>
			<point x="350" y="220" type="line" smooth="yes"/>
			<point x="350" y="185"/>
			<point x="333" y="163" name="at01"/>
			<point x="298" y="163" type="curve" smooth="yes"/>
			<point x="263" y="163" name="ab01"/>
			<point x="250" y="185" name="ih02"/>
			<point x="250" y="220" type="curve" smooth="yes" name="ih03"/>
			<point x="250" y="530" type="line"/>
			<point x="30" y="530" type="line"/>
			<point x="30" y="175" type="line" smooth="yes"/>
			<point x="30" y="50"/>
			<point x="92" y="-15"/>
		</contour>
	</outline>
</glyph>
<glyph name="v" format="2">
	<advance width="624" height="0"/>
	<unicode hex="0076"/>
	<anchor x="312" y="0" name="bottom"/>
	<anchor x="312" y="530" name="top"/>
	<outline>
		<contour>
			<point x="217" y="0" type="line"/>
			<point x="437" y="0" type="line" name="ab01"/>
			<point x="622" y="530" type="line"/>
			<point x="417" y="530" type="line" name="at02"/>
			<point x="335" y="250" type="line" name="ih01"/>
			<point x="237" y="530" type="line"/>
			<point x="2" y="530" type="line" name="at01"/>
		</contour>
	</outline>
</glyph>
<glyph name="w" format="2">
	<advance width="854" height="0"/>
	<unicode hex="0077"/>
	<anchor x="427" y="0" name="bottom"/>
	<anchor x="427" y="530" name="top"/>
	<outline>
		<contour>
			<point x="152" y="0" type="line"/>
			<point x="372" y="0" type="line" name="ab02"/>
			<point x="428" y="220" type="line" name="ih01"/>
			<point x="492" y="0" type="line"/>
			<point x="712" y="0" type="line" name="ab01"/>
			<point x="852" y="530" type="line"/>
			<point x="662" y="530" type="line" name="at03"/>
			<point x="601" y="270" type="line" name="iv02"/>
			<point x="517" y="530" type="line"/>
			<point x="357" y="530" type="line" name="at02"/>
			<point x="289" y="270" type="line" name="iv01"/>
			<point x="232" y="530" type="line"/>
			<point x="2" y="530" type="line" name="at01"/>
		</contour>
	</outline>
</glyph>
<glyph name="x" format="2">
	<advance width="604" height="0"/>
	<unicode hex="0078"/>
	<anchor x="302" y="0" name="bottom"/>
	<anchor x="302" y="530" name="top"/>
	<outline>
		<contour>
			<point x="2" y="0" type="line"/>
			<point x="236" y="0" type="line" name="ab02"/>
			<point x="298" y="153" type="line" name="iv01"/>
			<point x="364" y="0" type="line"/>
			<point x="602" y="0" type="line" name="ab01"/>
			<point x="462" y="280" type="line"/>
			<point x="592" y="530" type="line"/>
			<point x="359" y="530" type="line" name="at02"/>
			<point x="306" y="401" type="line" name="ih01"/>
			<point x="250" y="530" type="line"/>
			<point x="12" y="530" type="line" name="at01"/>
			<point x="142" y="275" type="line"/>
		</contour>
	</outline>
</glyph>
<glyph name="z" format="2">
	<advance width="520" height="0"/>
	<unicode hex="007A"/>
	<anchor x="260" y="0" name="bottom"/>
	<anchor x="260" y="265" name="center"/>
	<anchor x="260" y="530" name="top"/>
	<outline>
		<contour>
			<point x="20" y="0" type="line"/>
			<point x="500" y="0" type="line" name="ab01"/>
			<point x="500" y="176" type="line"/>
			<point x="306" y="176" type="line" name="ih01"/>
			<point x="490" y="384" type="line" name="sv03"/>
			<point x="490" y="530" type="line"/>
			<point x="30" y="530" type="line" name="at01"/>
			<point x="30" y="354" type="line"/>
			<point x="204" y="354" type="line" name="sv02"/>
			<point x="20" y="146" type="line" name="sv01"/>
		</contour>
	</outline>
</glyph>
<glyph name="braceleft" format="2">
	<advance width="380" height="0"/>
	<unicode hex="007B"/>
	<outline>
		<contour>
			<point x="360" y="-200" type="line"/>
			<point x="360" y="-64" type="line"/>
			<point x="320" y="-64" type="line" smooth="yes"/>
			<point x="280" y="-64"/>
			<point x="260" y="-44"/>
			<point x="260" y="-4" type="curve" smooth="yes"/>
			<point x="260" y="180" type="line" smooth="yes"/>
			<point x="260" y="220"/>
			<point x="241" y="239"/>
			<point x="210" y="250" type="curve"/>
			<point x="241" y="261"/>
			<point x="260" y="280"/>
			<point x="260" y="320" type="curve" smooth="yes"/>
			<point x="260" y="504" type="line" smooth="yes"/>
			<point x="260" y="544"/>
			<point x="280" y="564"/>
			<point x="320" y="564" type="curve" smooth="yes"/>
			<point x="360" y="564" type="line"/>
			<point x="360" y="700" type="line"/>
			<point x="270" y="700" type="line" smooth="yes"/>
			<point x="149" y="700"/>
			<point x="80" y="631" name="hr01"/>
			<point x="80" y="510" type="curve" smooth="yes" name="hr01"/>
			<point x="80" y="368" type="line" smooth="yes"/>
			<point x="80" y="337"/>
			<point x="61" y="318"/>
			<point x="30" y="318" type="curve" name="hr02"/>
			<point x="30" y="182" type="line"/>
			<point x="61" y="182"/>
			<point x="80" y="163" name="hr03"/>
			<point x="80" y="132" type="curve" smooth="yes" name="hr03"/>
			<point x="80" y="-10" type="line" smooth="yes"/>
			<point x="80" y="-131"/>
			<point x="149" y="-200"/>
			<point x="270" y="-200" type="curve" smooth="yes"/>
		</contour>
	</outline>
</glyph>
<glyph name="braceright" format="2">
	<advance width="380" height="0"/>
	<unicode hex="007D"/>
	<outline>
		<contour>
			<point x="20" y="700" type="line"/>
			<point x="20" y="564" type="line"/>
			<point x="60" y="564" type="line" smooth="yes"/>
			<point x="100" y="564"/>
			<point x="120" y="544"/>
			<point x="120" y="504" type="curve" smooth="yes"/>
			<point x="120" y="320" type="line" smooth="yes"/>
			<point x="120" y="280"/>
			<point x="139" y="261"/>
			<point x="170" y="250" type="curve"/>
			<point x="139" y="239"/>
			<point x="120" y="220"/>
			<point x="120" y="180" type="curve" smooth="yes"/>
			<point x="120" y="-4" type="line" smooth="yes"/>
			<point x="120" y="-44"/>
			<point x="100" y="-64"/>
			<point x="60" y="-64" type="curve" smooth="yes"/>
			<point x="20" y="-64" type="line"/>
			<point x="20" y="-200" type="line"/>
			<point x="110" y="-200" type="line" smooth="yes"/>
			<point x="231" y="-200"/>
			<point x="300" y="-131"/>
			<point x="300" y="-10" type="curve" smooth="yes" name="hr01"/>
			<point x="300" y="132" type="line" smooth="yes"/>
			<point x="300" y="163"/>
			<point x="319" y="182"/>
			<point x="350" y="182" type="curve" name="hr02"/>
			<point x="350" y="318" type="line"/>
			<point x="319" y="318"/>
			<point x="300" y="337" name="hr02"/>
			<point x="300" y="368" type="curve" smooth="yes" name="hr03"/>
			<point x="300" y="510" type="line" smooth="yes"/>
			<point x="300" y="631"/>
			<point x="231" y="700"/>
			<point x="110" y="700" type="curve" smooth="yes"/>
		</contour>
	</outline>
</glyph>
<glyph name="asciitilde" format="2">
	<advance width="600" height="0"/>
	<unicode hex="007E"/>
	<outline>
		<contour>
			<point x="395" y="223" type="curve" smooth="yes"/>
			<point x="464" y="223"/>
			<point x="509" y="263"/>
			<point x="537" y="304" type="curve" smooth="yes"/>
			<point x="553" y="327"/>
			<point x="566" y="354"/>
			<point x="575" y="385" type="curve"/>
			<point x="450" y="497" type="line" name="hr01"/>
			<point x="446" y="486"/>
			<point x="441" y="476"/>
			<point x="434" y="467" type="curve"/>
			<point x="423" y="452"/>
			<point x="405" y="437" name="hr02"/>
			<point x="380" y="437" type="curve" smooth="yes"/>
			<point x="329" y="437"/>
			<point x="285" y="497" name="hr03"/>
			<point x="205" y="497" type="curve" smooth="yes"/>
			<point x="135" y="497"/>
			<point x="89" y="456"/>
			<point x="62" y="416" type="curve" smooth="yes"/>
			<point x="45" y="392"/>
			<point x="33" y="365"/>
			<point x="25" y="335" type="curve"/>
			<point x="150" y="223" type="line" name="hr04"/>
			<point x="154" y="234"/>
			<point x="159" y="244"/>
			<point x="166" y="253" type="curve"/>
			<point x="177" y="268"/>
			<point x="195" y="283" name="hr05"/>
			<point x="220" y="283" type="curve" smooth="yes"/>
			<point x="271" y="283"/>
			<point x="315" y="223" name="hr06"/>
		</contour>
	</outline>
</glyph>
<glyph name="exclamdown" format="2">
	<advance width="340" height="0"/>
	<unicode hex="00A1"/>
	<outline>
		<contour>
			<point x="60" y="-200" type="line"/>
			<point x="280" y="-200" type="line" name="ab01"/>
			<point x="280" y="270" type="line"/>
			<point x="60" y="270" type="line" name="sh01"/>
		</contour>
		<contour>
			<point x="170" y="305" type="curve" smooth="yes"/>
			<point x="237" y="305"/>
			<point x="290" y="358" name="at01"/>
			<point x="290" y="425" type="curve" smooth="yes"/>
			<point x="290" y="494" name="ih01"/>
			<point x="237" y="545" name="ih02"/>
			<point x="170" y="545" type="curve" smooth="yes" name="ih03"/>
			<point x="103" y="545"/>
			<point x="50" y="494"/>
			<point x="50" y="425" type="curve" smooth="yes"/>
			<point x="50" y="358"/>
			<point x="103" y="305"/>
		</contour>
	</outline>
</glyph>
<glyph name="cent" format="2">
	<advance width="595" height="0"/>
	<unicode hex="00A2"/>
	<outline>
		<contour>
			<point x="198" y="-120" type="line"/>
			<point x="402" y="-120" type="line"/>
			<point x="402" y="-4" type="line"/>
			<point x="521" y="23"/>
			<point x="572" y="103"/>
			<point x="580" y="220" type="curve"/>
			<point x="374" y="220" type="line"/>
			<point x="369" y="177"/>
			<point x="346" y="163"/>
			<point x="315" y="163" type="curve" smooth="yes"/>
			<point x="269" y="163"/>
			<point x="246" y="195" name="hr01"/>
			<point x="246" y="260" type="curve" smooth="yes"/>
			<point x="246" y="280" type="line" smooth="yes"/>
			<point x="246" y="336"/>
			<point x="270" y="367"/>
			<point x="315" y="367" type="curve" smooth="yes"/>
			<point x="348" y="367"/>
			<point x="369" y="353"/>
			<point x="374" y="310" type="curve"/>
			<point x="580" y="310" type="line"/>
			<point x="572" y="416"/>
			<point x="525" y="505"/>
			<point x="402" y="534" type="curve" name="hr01"/>
			<point x="402" y="630" type="line"/>
			<point x="198" y="630" type="line"/>
			<point x="198" y="530" type="line"/>
			<point x="86" y="495"/>
			<point x="20" y="401" name="hr03"/>
			<point x="20" y="280" type="curve" smooth="yes" name="hr02"/>
			<point x="20" y="260" type="line" smooth="yes"/>
			<point x="20" y="131"/>
			<point x="86" y="35"/>
			<point x="198" y="0" type="curve" name="hr03"/>
		</contour>
	</outline>
</glyph>
<glyph name="sterling" format="2">
	<advance width="670" height="0"/>
	<unicode hex="00A3"/>
	<outline>
		<contour>
			<point x="20" y="0" type="line"/>
			<point x="650" y="0" type="line"/>
			<point x="650" y="202" type="line"/>
			<point x="354" y="202" type="line"/>
			<point x="354" y="269" type="line"/>
			<point x="505" y="269" type="line"/>
			<point x="505" y="411" type="line"/>
			<point x="354" y="411" type="line"/>
			<point x="354" y="480" type="line" smooth="yes"/>
			<point x="354" y="501"/>
			<point x="363" y="511" name="hr01"/>
			<point x="380" y="511" type="curve" smooth="yes" name="hr01"/>
			<point x="397" y="511"/>
			<point x="406" y="501"/>
			<point x="406" y="480" type="curve" name="hr02"/>
			<point x="650" y="480" type="line"/>
			<point x="645" y="618"/>
			<point x="571" y="715"/>
			<point x="383" y="715" type="curve" smooth="yes"/>
			<point x="183" y="715"/>
			<point x="100" y="616"/>
			<point x="100" y="480" type="curve" smooth="yes"/>
			<point x="100" y="411" type="line"/>
			<point x="30" y="411" type="line"/>
			<point x="30" y="269" type="line"/>
			<point x="100" y="269" type="line"/>
			<point x="100" y="202" type="line"/>
			<point x="20" y="202" type="line"/>
		</contour>
	</outline>
</glyph>
<glyph name="yen" format="2">
	<advance width="750" height="0"/>
	<unicode hex="00A5"/>
	<outline>
		<contour>
			<point x="243" y="0" type="line"/>
			<point x="507" y="0" type="line" name="ab01"/>
			<point x="507" y="109" type="line"/>
			<point x="690" y="109" type="line" name="sv07"/>
			<point x="690" y="251" type="line"/>
			<point x="507" y="251" type="line" name="sv06"/>
			<point x="507" y="289" type="line"/>
			<point x="690" y="289" type="line" name="sv05"/>
			<point x="690" y="431" type="line"/>
			<point x="600" y="431" type="line" name="sv04"/>
			<point x="735" y="700" type="line"/>
			<point x="463" y="700" type="line" name="at02"/>
			<point x="384" y="515" type="line" name="ih01"/>
			<point x="317" y="700" type="line"/>
			<point x="15" y="700" type="line" name="at01"/>
			<point x="150" y="431" type="line" name="sv02"/>
			<point x="70" y="431" type="line"/>
			<point x="70" y="289" type="line"/>
			<point x="243" y="289" type="line" name="sv03"/>
			<point x="243" y="251" type="line" name="iv01"/>
			<point x="70" y="251" type="line"/>
			<point x="70" y="109" type="line"/>
			<point x="243" y="109" type="line" name="sv01"/>
		</contour>
	</outline>
</glyph>
<glyph name="section" format="2">
	<advance width="660" height="0"/>
	<unicode hex="00A7"/>
	<outline>
		<contour>
			<point x="330" y="-215" type="curve" smooth="yes"/>
			<point x="525" y="-215"/>
			<point x="595" y="-141" name="iv04"/>
			<point x="595" y="-50" type="curve" smooth="yes"/>
			<point x="595" y="-3" name="sv02"/>
			<point x="576" y="40"/>
			<point x="531" y="72" type="curve" name="iv02"/>
			<point x="596" y="115"/>
			<point x="630" y="179" name="iv06"/>
			<point x="630" y="250" type="curve" smooth="yes" name="at01"/>
			<point x="630" y="344"/>
			<point x="566" y="428" name="iv05"/>
			<point x="446" y="465" type="curve"/>
			<point x="327" y="499" name="sv01"/>
			<point x="305" y="514"/>
			<point x="305" y="540" type="curve" smooth="yes" name="iv01"/>
			<point x="305" y="554" name="iv03"/>
			<point x="313" y="561"/>
			<point x="330" y="561" type="curve" smooth="yes" name="ih01"/>
			<point x="347" y="561"/>
			<point x="355" y="552" name="hr02"/>
			<point x="355" y="520" type="curve" name="iv07"/>
			<point x="595" y="520" type="line"/>
			<point x="595" y="640" name="sh01"/>
			<point x="525" y="715" name="ih02"/>
			<point x="330" y="715" type="curve" smooth="yes" name="ih03"/>
			<point x="135" y="715"/>
			<point x="65" y="641"/>
			<point x="65" y="550" type="curve" smooth="yes"/>
			<point x="65" y="503"/>
			<point x="86" y="460"/>
			<point x="131" y="429" type="curve"/>
			<point x="63" y="386"/>
			<point x="30" y="321" name="hr03"/>
			<point x="30" y="250" type="curve" smooth="yes" name="hr01"/>
			<point x="30" y="154"/>
			<point x="93" y="71"/>
			<point x="214" y="35" type="curve" smooth="yes"/>
			<point x="331" y="0"/>
			<point x="355" y="-13"/>
			<point x="355" y="-40" type="curve" smooth="yes"/>
			<point x="355" y="-54"/>
			<point x="347" y="-61"/>
			<point x="330" y="-61" type="curve" smooth="yes"/>
			<point x="313" y="-61"/>
			<point x="305" y="-53" name="hr04"/>
			<point x="305" y="-20" type="curve" name="hr02"/>
			<point x="65" y="-20" type="line"/>
			<point x="65" y="-140"/>
			<point x="135" y="-215"/>
		</contour>
		<contour>
			<point x="330" y="194" type="curve" smooth="yes"/>
			<point x="295" y="194"/>
			<point x="270" y="219"/>
			<point x="270" y="250" type="curve" smooth="yes" name="hr05"/>
			<point x="270" y="281"/>
			<point x="295" y="306"/>
			<point x="330" y="306" type="curve" smooth="yes"/>
			<point x="365" y="306"/>
			<point x="390" y="281"/>
			<point x="390" y="250" type="curve" smooth="yes"/>
			<point x="390" y="219"/>
			<point x="365" y="194"/>
		</contour>
	</outline>
</glyph>
<glyph name="copyright" format="2">
	<advance width="870" height="0"/>
	<unicode hex="00A9"/>
	<outline>
		<contour>
			<point x="435" y="-45" type="curve" smooth="yes"/>
			<point x="660" y="-45"/>
			<point x="840" y="130" name="av01"/>
			<point x="840" y="350" type="curve" smooth="yes"/>
			<point x="840" y="571" name="ih01"/>
			<point x="660" y="745"/>
			<point x="435" y="745" type="curve" smooth="yes"/>
			<point x="208" y="745" name="sv01"/>
			<point x="30" y="571"/>
			<point x="30" y="350" type="curve" smooth="yes" name="sh01"/>
			<point x="30" y="130"/>
			<point x="208" y="-45" name="iv05"/>
		</contour>
		<contour>
			<point x="435" y="75" type="curve" smooth="yes" name="iv04"/>
			<point x="276" y="75"/>
			<point x="158" y="194"/>
			<point x="158" y="350" type="curve" smooth="yes" name="iv03"/>
			<point x="158" y="506"/>
			<point x="276" y="625" name="iv02"/>
			<point x="435" y="625" type="curve" smooth="yes" name="iv01"/>
			<point x="594" y="625"/>
			<point x="712" y="506"/>
			<point x="712" y="350" type="curve" smooth="yes" name="sh02"/>
			<point x="712" y="194" name="ih02"/>
			<point x="594" y="75" name="ih03"/>
		</contour>
		<contour>
			<point x="435" y="115" type="curve" smooth="yes"/>
			<point x="550" y="115"/>
			<point x="647" y="163"/>
			<point x="650" y="305" type="curve"/>
			<point x="483" y="305" type="line"/>
			<point x="479" y="262" name="hr01"/>
			<point x="458" y="253"/>
			<point x="435" y="253" type="curve" smooth="yes"/>
			<point x="402" y="253" name="hr02"/>
			<point x="380" y="282"/>
			<point x="380" y="347" type="curve" smooth="yes"/>
			<point x="380" y="360" type="line" smooth="yes"/>
			<point x="380" y="425"/>
			<point x="406" y="447"/>
			<point x="435" y="447" type="curve" smooth="yes"/>
			<point x="456" y="447"/>
			<point x="479" y="436"/>
			<point x="483" y="395" type="curve"/>
			<point x="650" y="395" type="line"/>
			<point x="647" y="535" name="hr03"/>
			<point x="547" y="585"/>
			<point x="435" y="585" type="curve" smooth="yes"/>
			<point x="310" y="585"/>
			<point x="206" y="519"/>
			<point x="206" y="360" type="curve" smooth="yes"/>
			<point x="206" y="347" type="line" smooth="yes"/>
			<point x="206" y="178"/>
			<point x="306" y="115"/>
		</contour>
	</outline>
</glyph>
<glyph name="registered" format="2">
	<advance width="610" height="0"/>
	<unicode hex="00AE"/>
	<outline>
		<contour>
			<point x="305" y="136" type="curve" smooth="yes"/>
			<point x="462" y="136"/>
			<point x="590" y="263" name="at01"/>
			<point x="590" y="425" type="curve" smooth="yes"/>
			<point x="590" y="588" name="ih01"/>
			<point x="462" y="715"/>
			<point x="305" y="715" type="curve" smooth="yes"/>
			<point x="148" y="715" name="sv01"/>
			<point x="20" y="588"/>
			<point x="20" y="425" type="curve" smooth="yes" name="sh01"/>
			<point x="20" y="263" name="iv01"/>
			<point x="148" y="136"/>
		</contour>
		<contour>
			<point x="305" y="219" type="curve" smooth="yes"/>
			<point x="193" y="219" name="sv04"/>
			<point x="106" y="306"/>
			<point x="106" y="425" type="curve" smooth="yes" name="sv03"/>
			<point x="106" y="544"/>
			<point x="193" y="631" name="sh02"/>
			<point x="305" y="631" type="curve" smooth="yes" name="iv02"/>
			<point x="417" y="631" name="iv03"/>
			<point x="504" y="544" name="sv05"/>
			<point x="504" y="425" type="curve" smooth="yes"/>
			<point x="504" y="306"/>
			<point x="417" y="219" name="sh03"/>
		</contour>
		<contour>
			<point x="185" y="275" type="line" name="ih03"/>
			<point x="288" y="275" type="line"/>
			<point x="288" y="375" type="line"/>
			<point x="296" y="375" type="line"/>
			<point x="322" y="275" type="line"/>
			<point x="430" y="275" type="line"/>
			<point x="389" y="387" type="line"/>
			<point x="425" y="402"/>
			<point x="444" y="427"/>
			<point x="444" y="474" type="curve" smooth="yes"/>
			<point x="444" y="539"/>
			<point x="409" y="575"/>
			<point x="305" y="575" type="curve" smooth="yes"/>
			<point x="185" y="575" type="line"/>
		</contour>
		<contour>
			<point x="288" y="453" type="line"/>
			<point x="288" y="495" type="line"/>
			<point x="301" y="495" type="line" smooth="yes"/>
			<point x="334" y="495"/>
			<point x="342" y="487"/>
			<point x="342" y="474" type="curve" smooth="yes"/>
			<point x="342" y="461"/>
			<point x="334" y="453"/>
			<point x="301" y="453" type="curve" smooth="yes"/>
		</contour>
	</outline>
</glyph>
<glyph name="degree" format="2">
	<advance width="390" height="0"/>
	<unicode hex="00B0"/>
	<outline>
		<contour>
			<point x="195" y="355" type="curve" smooth="yes"/>
			<point x="295" y="355"/>
			<point x="375" y="435" name="at01"/>
			<point x="375" y="535" type="curve" smooth="yes"/>
			<point x="375" y="635" name="ih01"/>
			<point x="295" y="715"/>
			<point x="195" y="715" type="curve" smooth="yes"/>
			<point x="95" y="715" name="iv01"/>
			<point x="15" y="635"/>
			<point x="15" y="535" type="curve" smooth="yes" name="sh01"/>
			<point x="15" y="435" name="ih02"/>
			<point x="95" y="355" name="ih03"/>
		</contour>
		<contour>
			<point x="195" y="485" type="curve" smooth="yes"/>
			<point x="167" y="485"/>
			<point x="145" y="507"/>
			<point x="145" y="535" type="curve" smooth="yes"/>
			<point x="145" y="563"/>
			<point x="167" y="585"/>
			<point x="195" y="585" type="curve" smooth="yes"/>
			<point x="223" y="585"/>
			<point x="245" y="563"/>
			<point x="245" y="535" type="curve" smooth="yes"/>
			<point x="245" y="507"/>
			<point x="223" y="485"/>
		</contour>
	</outline>
</glyph>
<glyph name="plusminus" format="2">
	<advance width="600" height="0"/>
	<unicode hex="00B1"/>
	<outline>
		<contour>
			<point x="25" y="0" type="line" name="sv01"/>
			<point x="575" y="0" type="line"/>
			<point x="575" y="212" type="line"/>
			<point x="25" y="212" type="line" name="sh01"/>
		</contour>
		<contour>
			<point x="185" y="265" type="line" name="iv01"/>
			<point x="415" y="265" type="line"/>
			<point x="415" y="319" type="line"/>
			<point x="575" y="319" type="line" name="sv04"/>
			<point x="575" y="531" type="line"/>
			<point x="415" y="531" type="line" name="sv03"/>
			<point x="415" y="700" type="line"/>
			<point x="185" y="700" type="line" name="sv02"/>
			<point x="185" y="531" type="line" name="av01"/>
			<point x="25" y="531" type="line"/>
			<point x="25" y="319" type="line"/>
			<point x="185" y="319" type="line" name="ih01"/>
		</contour>
	</outline>
</glyph>
<glyph name="uni00B2" format="2">
	<advance width="420" height="0"/>
	<unicode hex="00B2"/>
	<outline>
		<contour>
			<point x="10" y="380" type="line"/>
			<point x="410" y="380" type="line" name="ab01"/>
			<point x="410" y="508" type="line"/>
			<point x="273" y="508" type="line" name="sv01"/>
			<point x="296" y="523" type="line" smooth="yes" name="iv03"/>
			<point x="389" y="584"/>
			<point x="405" y="616" name="ih01"/>
			<point x="405" y="665" type="curve" smooth="yes" name="iv02"/>
			<point x="405" y="741"/>
			<point x="341" y="795" name="sv03"/>
			<point x="210" y="795" type="curve" smooth="yes"/>
			<point x="80" y="795" name="iv01"/>
			<point x="15" y="738" name="sv02"/>
			<point x="15" y="625" type="curve" name="hr01"/>
			<point x="185" y="625" type="line" name="ih02"/>
			<point x="185" y="656"/>
			<point x="195" y="665" name="hr02"/>
			<point x="215" y="665" type="curve" smooth="yes" name="hr02"/>
			<point x="228" y="665"/>
			<point x="235" y="659"/>
			<point x="235" y="646" type="curve" smooth="yes"/>
			<point x="235" y="633"/>
			<point x="232" y="624"/>
			<point x="184" y="592" type="curve"/>
			<point x="10" y="471" type="line"/>
		</contour>
	</outline>
</glyph>
<glyph name="uni00B3" format="2">
	<advance width="430" height="0"/>
	<unicode hex="00B3"/>
	<outline>
		<contour>
			<point x="215" y="367" type="curve" smooth="yes"/>
			<point x="364" y="367"/>
			<point x="420" y="420" name="iv05"/>
			<point x="420" y="492" type="curve" smooth="yes"/>
			<point x="420" y="548" name="at01"/>
			<point x="385" y="577" name="iv04"/>
			<point x="345" y="590" type="curve"/>
			<point x="385" y="603" name="sv02"/>
			<point x="410" y="624"/>
			<point x="410" y="676" type="curve" smooth="yes" name="iv02"/>
			<point x="410" y="744"/>
			<point x="352" y="795"/>
			<point x="215" y="795" type="curve" smooth="yes" name="iv03"/>
			<point x="71" y="795"/>
			<point x="10" y="742" name="sv01"/>
			<point x="10" y="625" type="curve"/>
			<point x="170" y="625" type="line" name="iv01"/>
			<point x="170" y="652" name="ih01"/>
			<point x="185" y="665" name="ih02"/>
			<point x="215" y="665" type="curve" smooth="yes" name="ih03"/>
			<point x="244" y="665"/>
			<point x="250" y="659"/>
			<point x="250" y="648" type="curve" smooth="yes"/>
			<point x="250" y="636"/>
			<point x="245" y="630"/>
			<point x="214" y="630" type="curve" smooth="yes"/>
			<point x="190" y="630" type="line" name="hr01"/>
			<point x="190" y="540" type="line"/>
			<point x="214" y="540" type="line" smooth="yes"/>
			<point x="251" y="540"/>
			<point x="260" y="531"/>
			<point x="260" y="519" type="curve" smooth="yes"/>
			<point x="260" y="506"/>
			<point x="251" y="497"/>
			<point x="220" y="497" type="curve" smooth="yes"/>
			<point x="181" y="497"/>
			<point x="170" y="507"/>
			<point x="170" y="540" type="curve"/>
			<point x="10" y="540" type="line"/>
			<point x="10" y="421"/>
			<point x="66" y="367"/>
		</contour>
	</outline>
</glyph>
<glyph name="uni00B5" format="2">
	<advance width="610" height="0"/>
	<unicode hex="00B5"/>
	<outline>
		<contour>
			<point x="35" y="-200" type="line"/>
			<point x="255" y="-200" type="line" name="ab01"/>
			<point x="255" y="-11" type="line"/>
			<point x="257" y="-11"/>
			<point x="258" y="-11"/>
			<point x="260" y="-11" type="curve" name="ab02"/>
			<point x="290" y="-11" name="iv01"/>
			<point x="339" y="9"/>
			<point x="371" y="60" type="curve" name="ab03"/>
			<point x="371" y="0" type="line"/>
			<point x="575" y="0" type="line" name="at02"/>
			<point x="575" y="530" type="line" name="hr01"/>
			<point x="355" y="530" type="line" name="ih01"/>
			<point x="355" y="220" type="line" smooth="yes"/>
			<point x="355" y="185"/>
			<point x="338" y="163" name="at01"/>
			<point x="303" y="163" type="curve" smooth="yes" name="ih02"/>
			<point x="268" y="163" name="ih03"/>
			<point x="255" y="185"/>
			<point x="255" y="220" type="curve" smooth="yes"/>
			<point x="255" y="530" type="line"/>
			<point x="35" y="530" type="line"/>
		</contour>
	</outline>
</glyph>
<glyph name="paragraph" format="2">
	<advance width="665" height="0"/>
	<unicode hex="00B6"/>
	<outline>
		<contour>
			<point x="170" y="-200" type="line"/>
			<point x="350" y="-200" type="line" name="ab02"/>
			<point x="350" y="524" type="line" name="ih01"/>
			<point x="440" y="524" type="line"/>
			<point x="440" y="-200" type="line"/>
			<point x="620" y="-200" type="line" name="ab01"/>
			<point x="620" y="700" type="line"/>
			<point x="220" y="700" type="line" smooth="yes" name="at01"/>
			<point x="111" y="700"/>
			<point x="20" y="609" name="iv01"/>
			<point x="20" y="500" type="curve" smooth="yes" name="ih02"/>
			<point x="20" y="408" name="ih03"/>
			<point x="85" y="327"/>
			<point x="170" y="306" type="curve"/>
		</contour>
	</outline>
</glyph>
<glyph name="uni00B9" format="2">
	<advance width="300" height="0"/>
	<unicode hex="00B9"/>
	<outline>
		<contour>
			<point x="110" y="380" type="line"/>
			<point x="280" y="380" type="line" name="ab01"/>
			<point x="280" y="780" type="line"/>
			<point x="120" y="780" type="line" name="ih01"/>
			<point x="10" y="702" type="line"/>
			<point x="10" y="535" type="line" name="iv01"/>
			<point x="110" y="606" type="line"/>
		</contour>
	</outline>
</glyph>
<glyph name="ordmasculine" format="2">
	<advance width="390"/>
	<unicode hex="00BA"/>
	<outline>
		<contour>
			<point x="195" y="365" type="curve" smooth="yes"/>
			<point x="314" y="365"/>
			<point x="380" y="431"/>
			<point x="380" y="535" type="curve" smooth="yes" name="at01"/>
			<point x="380" y="545" type="line" smooth="yes"/>
			<point x="380" y="649"/>
			<point x="314" y="715" name="ih01"/>
			<point x="195" y="715" type="curve" smooth="yes"/>
			<point x="76" y="715"/>
			<point x="10" y="649"/>
			<point x="10" y="545" type="curve" smooth="yes" name="sv01"/>
			<point x="10" y="535" type="line" smooth="yes"/>
			<point x="10" y="431"/>
			<point x="76" y="365" name="sh01"/>
		</contour>
		<contour>
			<point x="195" y="495" type="curve" smooth="yes" name="ih03"/>
			<point x="180" y="495"/>
			<point x="170" y="504"/>
			<point x="170" y="535" type="curve" smooth="yes"/>
			<point x="170" y="545" type="line" smooth="yes"/>
			<point x="170" y="576"/>
			<point x="180" y="585"/>
			<point x="195" y="585" type="curve" smooth="yes"/>
			<point x="210" y="585"/>
			<point x="220" y="576"/>
			<point x="220" y="545" type="curve" smooth="yes"/>
			<point x="220" y="535" type="line" smooth="yes"/>
			<point x="220" y="504"/>
			<point x="210" y="495"/>
		</contour>
	</outline>
</glyph>
<glyph name="AE" format="2">
	<advance width="1057" height="0"/>
	<unicode hex="00C6"/>
	<anchor x="529" y="0" name="bottom"/>
	<anchor x="529" y="700" name="top"/>
	<outline>
		<contour>
			<point x="2" y="0" type="line"/>
			<point x="266" y="0" type="line" name="ab02"/>
			<point x="316" y="94" type="line" name="hr01"/>
			<point x="482" y="94" type="line" name="sv03"/>
			<point x="482" y="0" type="line" name="hr02"/>
			<point x="1032" y="0" type="line" name="ab01"/>
			<point x="1032" y="192" type="line"/>
			<point x="746" y="192" type="line" name="sv02"/>
			<point x="746" y="274" type="line"/>
			<point x="1002" y="274" type="line" name="iv02"/>
			<point x="1002" y="436" type="line" name="iv01"/>
			<point x="746" y="436" type="line"/>
			<point x="746" y="508" type="line"/>
			<point x="1032" y="508" type="line" name="sv01"/>
			<point x="1032" y="700" type="line"/>
			<point x="402" y="700" type="line" name="at01"/>
		</contour>
		<contour>
			<point x="417" y="286" type="line" name="hr03"/>
			<point x="482" y="410" type="line" name="iv03"/>
			<point x="482" y="286" type="line" name="sh01"/>
		</contour>
	</outline>
</glyph>
<glyph name="Eth" format="2">
	<advance width="770" height="0"/>
	<unicode hex="00D0"/>
	<outline>
		<contour>
			<point x="90" y="0" type="line"/>
			<point x="395" y="0" type="line" smooth="yes" name="ih01"/>
			<point x="611" y="0"/>
			<point x="750" y="121"/>
			<point x="750" y="345" type="curve" smooth="yes"/>
			<point x="750" y="365" type="line" smooth="yes" name="at01"/>
			<point x="750" y="585" name="iv01"/>
			<point x="615" y="700"/>
			<point x="405" y="700" type="curve" smooth="yes"/>
			<point x="90" y="700" type="line" name="iv02"/>
			<point x="90" y="446" type="line"/>
			<point x="10" y="446" type="line"/>
			<point x="10" y="254" type="line" name="sv03"/>
			<point x="90" y="254" type="line"/>
		</contour>
		<contour>
			<point x="354" y="212" type="line" name="sv02"/>
			<point x="354" y="254" type="line"/>
			<point x="420" y="254" type="line" name="sv01"/>
			<point x="420" y="446" type="line"/>
			<point x="354" y="446" type="line"/>
			<point x="354" y="488" type="line" name="sh01"/>
			<point x="395" y="488" type="line" smooth="yes" name="ih02"/>
			<point x="452" y="488" name="ih03"/>
			<point x="480" y="460"/>
			<point x="480" y="365" type="curve" smooth="yes"/>
			<point x="480" y="345" type="line" smooth="yes"/>
			<point x="480" y="240"/>
			<point x="446" y="212"/>
			<point x="395" y="212" type="curve" smooth="yes"/>
		</contour>
	</outline>
</glyph>
<glyph name="multiply" format="2">
	<advance width="600" height="0"/>
	<unicode hex="00D7"/>
	<outline>
		<contour>
			<point x="174" y="90" type="line" name="sv02"/>
			<point x="300" y="216" type="line"/>
			<point x="426" y="90" type="line" name="iv01"/>
			<point x="570" y="234" type="line"/>
			<point x="444" y="360" type="line"/>
			<point x="570" y="486" type="line"/>
			<point x="426" y="630" type="line" name="sv01"/>
			<point x="300" y="504" type="line" name="ih01"/>
			<point x="174" y="630" type="line" name="av01"/>
			<point x="30" y="486" type="line"/>
			<point x="156" y="360" type="line"/>
			<point x="30" y="234" type="line"/>
		</contour>
	</outline>
</glyph>
<glyph name="Thorn" format="2">
	<advance width="685" height="0"/>
	<unicode hex="00DE"/>
	<anchor x="343" y="0" name="bottom"/>
	<anchor x="343" y="700" name="top"/>
	<outline>
		<contour>
			<point x="40" y="0" type="line"/>
			<point x="304" y="0" type="line" name="ab01"/>
			<point x="304" y="107" type="line"/>
			<point x="365" y="107" type="line" smooth="yes" name="sv01"/>
			<point x="580" y="107"/>
			<point x="670" y="197" name="sh01"/>
			<point x="670" y="360" type="curve" smooth="yes"/>
			<point x="670" y="523"/>
			<point x="580" y="613" name="at01"/>
			<point x="365" y="613" type="curve" smooth="yes"/>
			<point x="304" y="613" type="line"/>
			<point x="304" y="700" type="line" name="sv02"/>
			<point x="40" y="700" type="line"/>
		</contour>
		<contour>
			<point x="304" y="299" type="line" name="ih01"/>
			<point x="304" y="421" type="line" name="ih02"/>
			<point x="334" y="421" type="line" smooth="yes" name="ih03"/>
			<point x="387" y="421"/>
			<point x="406" y="393"/>
			<point x="406" y="360" type="curve" smooth="yes"/>
			<point x="406" y="327"/>
			<point x="389" y="299"/>
			<point x="334" y="299" type="curve" smooth="yes"/>
		</contour>
	</outline>
</glyph>
<glyph name="germandbls" format="2">
	<advance width="655" height="0"/>
	<unicode hex="00DF"/>
	<anchor x="328" y="0" name="bottom"/>
	<anchor x="328" y="774" name="top"/>
	<outline>
		<contour>
			<point x="40" y="0" type="line"/>
			<point x="260" y="0" type="line" name="ab01"/>
			<point x="260" y="460" type="line" smooth="yes"/>
			<point x="260" y="516" name="sv03"/>
			<point x="277" y="537"/>
			<point x="320" y="537" type="curve" smooth="yes" name="iv01"/>
			<point x="349" y="537"/>
			<point x="364" y="522"/>
			<point x="364" y="495" type="curve" smooth="yes" name="sv01"/>
			<point x="364" y="470"/>
			<point x="349" y="453"/>
			<point x="320" y="453" type="curve" smooth="yes" name="sv02"/>
			<point x="305" y="453" type="line"/>
			<point x="305" y="297" type="line"/>
			<point x="345" y="297" type="line" smooth="yes" name="ab02"/>
			<point x="388" y="297"/>
			<point x="410" y="274" name="hr01"/>
			<point x="410" y="239" type="curve" smooth="yes" name="iv02"/>
			<point x="410" y="229" type="line" smooth="yes"/>
			<point x="410" y="192" name="ih01"/>
			<point x="389" y="171"/>
			<point x="350" y="171" type="curve" smooth="yes" name="ih02"/>
			<point x="335" y="171" name="ih03"/>
			<point x="315" y="171"/>
			<point x="300" y="174" type="curve"/>
			<point x="300" y="-4" type="line"/>
			<point x="315" y="-7"/>
			<point x="335" y="-7"/>
			<point x="350" y="-7" type="curve" smooth="yes"/>
			<point x="565" y="-7"/>
			<point x="630" y="81"/>
			<point x="630" y="205" type="curve" smooth="yes"/>
			<point x="630" y="215" type="line" smooth="yes"/>
			<point x="630" y="287"/>
			<point x="592" y="368"/>
			<point x="490" y="384" type="curve"/>
			<point x="557" y="403"/>
			<point x="590" y="450" name="hr02"/>
			<point x="590" y="525" type="curve" smooth="yes" name="hr01"/>
			<point x="590" y="635"/>
			<point x="521" y="715"/>
			<point x="320" y="715" type="curve" smooth="yes"/>
			<point x="131" y="715"/>
			<point x="40" y="615"/>
			<point x="40" y="460" type="curve" smooth="yes"/>
		</contour>
	</outline>
</glyph>
<glyph name="divide" format="2">
	<advance width="600" height="0"/>
	<unicode hex="00F7"/>
	<outline>
		<contour>
			<point x="25" y="254" type="line"/>
			<point x="575" y="254" type="line" name="sv01"/>
			<point x="575" y="466" type="line" name="av01"/>
			<point x="25" y="466" type="line" name="sh01"/>
		</contour>
		<contour>
			<point x="300" y="-5" type="curve" smooth="yes"/>
			<point x="367" y="-5"/>
			<point x="420" y="48" name="sv02"/>
			<point x="420" y="115" type="curve" smooth="yes"/>
			<point x="420" y="184" name="ih01"/>
			<point x="367" y="235"/>
			<point x="300" y="235" type="curve" smooth="yes"/>
			<point x="233" y="235" name="sv03"/>
			<point x="180" y="184"/>
			<point x="180" y="115" type="curve" smooth="yes" name="sh02"/>
			<point x="180" y="48" name="ih02"/>
			<point x="233" y="-5" name="ih03"/>
		</contour>
		<contour>
			<point x="300" y="485" type="curve" smooth="yes"/>
			<point x="367" y="485"/>
			<point x="420" y="538"/>
			<point x="420" y="605" type="curve" smooth="yes"/>
			<point x="420" y="674"/>
			<point x="367" y="725"/>
			<point x="300" y="725" type="curve" smooth="yes"/>
			<point x="233" y="725"/>
			<point x="180" y="674"/>
			<point x="180" y="605" type="curve" smooth="yes"/>
			<point x="180" y="538"/>
			<point x="233" y="485"/>
		</contour>
	</outline>
</glyph>
<glyph name="oslash" format="2">
	<advance width="610" height="0"/>
	<unicode hex="00F8"/>
	<guideline y="265"/>
	<anchor x="305" y="530" name="top"/>
	<outline>
		<contour>
			<point x="305" y="-15" type="curve" smooth="yes"/>
			<point x="468" y="-15"/>
			<point x="595" y="79"/>
			<point x="595" y="260" type="curve" smooth="yes" name="iv02"/>
			<point x="595" y="280" type="line" smooth="yes"/>
			<point x="595" y="353" name="at02"/>
			<point x="573" y="412"/>
			<point x="534" y="455" type="curve" name="at01"/>
			<point x="560" y="485" type="line"/>
			<point x="492" y="545" type="line"/>
			<point x="461" y="510" type="line" name="iv01"/>
			<point x="416" y="533"/>
			<point x="364" y="545" name="ab01"/>
			<point x="305" y="545" type="curve" smooth="yes"/>
			<point x="142" y="545" name="ih01"/>
			<point x="15" y="453"/>
			<point x="15" y="280" type="curve" smooth="yes"/>
			<point x="15" y="260" type="line" smooth="yes" name="iv03"/>
			<point x="15" y="180"/>
			<point x="37" y="119"/>
			<point x="76" y="75" type="curve" name="sh01"/>
			<point x="50" y="45" type="line"/>
			<point x="118" y="-15" type="line"/>
			<point x="148" y="19" type="line" name="iv04"/>
			<point x="195" y="-4"/>
			<point x="247" y="-15"/>
		</contour>
		<contour>
			<point x="305" y="153" type="curve" smooth="yes" name="ih02"/>
			<point x="292" y="153" name="ih03"/>
			<point x="281" y="155"/>
			<point x="272" y="159" type="curve"/>
			<point x="379" y="280" type="line"/>
			<point x="379" y="278"/>
			<point x="379" y="277"/>
			<point x="379" y="275" type="curve"/>
			<point x="379" y="255" type="line" smooth="yes"/>
			<point x="379" y="183"/>
			<point x="352" y="153"/>
		</contour>
		<contour>
			<point x="305" y="377" type="curve" smooth="yes"/>
			<point x="317" y="377"/>
			<point x="328" y="375"/>
			<point x="338" y="371" type="curve"/>
			<point x="231" y="250" type="line"/>
			<point x="231" y="252"/>
			<point x="231" y="253"/>
			<point x="231" y="255" type="curve"/>
			<point x="231" y="275" type="line" smooth="yes"/>
			<point x="231" y="348"/>
			<point x="258" y="377"/>
		</contour>
	</outline>
</glyph>
<glyph name="dcroat" format="2">
	<advance width="654"/>
	<unicode hex="0111"/>
	<outline>
		<component base="d"/>
		<contour>
			<point x="263" y="651" type="line"/>
			<point x="263" y="571" type="line"/>
			<point x="654" y="571" type="line"/>
			<point x="654" y="651" type="line"/>
		</contour>
	</outline>
</glyph>
<glyph name="hbar" format="2">
	<advance width="628"/>
	<unicode hex="0127"/>
	<outline>
		<component base="h" xOffset="23"/>
		<contour>
			<point x="0" y="651" type="line"/>
			<point x="0" y="571" type="line"/>
			<point x="391" y="571" type="line"/>
			<point x="391" y="651" type="line"/>
		</contour>
	</outline>
</glyph>
<glyph name="dotlessi" format="2">
	<advance width="300"/>
	<unicode hex="0131"/>
	<anchor x="150" y="0" name="bottom"/>
	<anchor x="260" y="0" name="ogonek"/>
	<anchor x="150" y="530" name="top"/>
	<outline>
		<contour>
			<point x="40" y="0" type="line"/>
			<point x="260" y="0" type="line" name="ab01"/>
			<point x="260" y="530" type="line"/>
			<point x="40" y="530" type="line" name="ih01"/>
		</contour>
	</outline>
</glyph>
<glyph name="Lslash" format="2">
	<advance width="630" height="0"/>
	<unicode hex="0141"/>
	<outline>
		<contour>
			<point x="90" y="0" type="line"/>
			<point x="610" y="0" type="line" name="ab01"/>
			<point x="610" y="212" type="line"/>
			<point x="354" y="212" type="line" name="sv01"/>
			<point x="354" y="295" type="line" name="iv06"/>
			<point x="480" y="368" type="line"/>
			<point x="480" y="580" type="line" name="iv01"/>
			<point x="354" y="507" type="line" name="iv05"/>
			<point x="354" y="700" type="line" name="ih01"/>
			<point x="90" y="700" type="line" name="at01"/>
			<point x="90" y="355" type="line" name="iv04"/>
			<point x="10" y="308" type="line"/>
			<point x="10" y="96" type="line" name="iv02"/>
			<point x="90" y="142" type="line" name="iv03"/>
		</contour>
	</outline>
</glyph>
<glyph name="lslash" format="2">
	<advance width="410" height="0"/>
	<unicode hex="0142"/>
	<outline>
		<contour>
			<point x="295" y="-8" type="curve" smooth="yes"/>
			<point x="305" y="-8"/>
			<point x="362" y="-7"/>
			<point x="390" y="-4" type="curve"/>
			<point x="390" y="171" type="line"/>
			<point x="383" y="170"/>
			<point x="380" y="170"/>
			<point x="373" y="170" type="curve" smooth="yes"/>
			<point x="317" y="170"/>
			<point x="310" y="193"/>
			<point x="310" y="258" type="curve" smooth="yes"/>
			<point x="310" y="323" type="line"/>
			<point x="390" y="369" type="line"/>
			<point x="390" y="545" type="line"/>
			<point x="310" y="499" type="line"/>
			<point x="310" y="700" type="line"/>
			<point x="90" y="700" type="line"/>
			<point x="90" y="372" type="line"/>
			<point x="10" y="326" type="line"/>
			<point x="10" y="150" type="line"/>
			<point x="90" y="196" type="line"/>
			<point x="90" y="192" type="line" smooth="yes"/>
			<point x="90" y="8"/>
			<point x="186" y="-8"/>
		</contour>
	</outline>
</glyph>
<glyph name="Eng" format="2">
	<advance width="760"/>
	<unicode hex="014A"/>
	<anchor x="300" y="0" name="bottom"/>
	<anchor x="300" y="700" name="top"/>
	<outline>
		<contour>
			<point x="484" y="-215" type="curve" smooth="yes"/>
			<point x="632" y="-215"/>
			<point x="720" y="-171"/>
			<point x="720" y="0" type="curve" smooth="yes"/>
			<point x="720" y="530" type="line"/>
			<point x="500" y="530" type="line"/>
			<point x="500" y="25" type="line" smooth="yes"/>
			<point x="500" y="-26"/>
			<point x="487" y="-37"/>
			<point x="464" y="-37" type="curve" smooth="yes"/>
			<point x="455" y="-37"/>
			<point x="445" y="-36"/>
			<point x="435" y="-34" type="curve"/>
			<point x="435" y="-212" type="line"/>
			<point x="450" y="-215"/>
			<point x="469" y="-215"/>
		</contour>
		<component base="N"/>
	</outline>
</glyph>
<glyph name="eng" format="2">
	<advance width="605"/>
	<unicode hex="014B"/>
	<anchor x="303" y="0" name="bottom"/>
	<anchor x="303" y="530" name="top"/>
	<outline>
		<contour>
			<point x="339" y="-215" type="curve" smooth="yes"/>
			<point x="487" y="-215"/>
			<point x="575" y="-171"/>
			<point x="575" y="0" type="curve" smooth="yes"/>
			<point x="575" y="130" type="line"/>
			<point x="355" y="130" type="line"/>
			<point x="355" y="25" type="line" smooth="yes"/>
			<point x="355" y="-26"/>
			<point x="342" y="-37"/>
			<point x="319" y="-37" type="curve" smooth="yes"/>
			<point x="310" y="-37"/>
			<point x="300" y="-36"/>
			<point x="290" y="-34" type="curve"/>
			<point x="290" y="-212" type="line"/>
			<point x="305" y="-215"/>
			<point x="324" y="-215"/>
		</contour>
		<component base="n"/>
	</outline>
</glyph>
<glyph name="uni0237" format="2">
	<advance width="300" height="0"/>
	<unicode hex="0237"/>
	<anchor x="150" y="-226" name="bottom"/>
	<anchor x="150" y="530" name="top"/>
	<outline>
		<contour>
			<point x="24" y="-215" type="curve" smooth="yes"/>
			<point x="172" y="-215"/>
			<point x="260" y="-171"/>
			<point x="260" y="0" type="curve" smooth="yes"/>
			<point x="260" y="530" type="line"/>
			<point x="40" y="530" type="line"/>
			<point x="40" y="25" type="line" smooth="yes"/>
			<point x="40" y="-26"/>
			<point x="27" y="-37"/>
			<point x="4" y="-37" type="curve" smooth="yes"/>
			<point x="-5" y="-37"/>
			<point x="-15" y="-36"/>
			<point x="-25" y="-34" type="curve"/>
			<point x="-25" y="-212" type="line"/>
			<point x="-10" y="-215"/>
			<point x="9" y="-215"/>
		</contour>
	</outline>
</glyph>
<glyph name="gravecomb" format="2">
	<advance width="360" height="0"/>
	<unicode hex="0300"/>
	<anchor x="265" y="530" name="_top"/>
	<anchor x="180" y="740" name="top"/>
	<outline>
		<contour>
			<point x="190" y="580" type="line" name="ih01"/>
			<point x="340" y="580" type="line" name="ab01"/>
			<point x="230" y="740" type="line"/>
			<point x="20" y="740" type="line" name="sv01"/>
		</contour>
	</outline>
</glyph>
<glyph name="tildecomb" format="2">
	<advance width="440" height="0"/>
	<unicode hex="0303"/>
	<anchor x="220" y="530" name="_top"/>
	<anchor x="220" y="745" name="top"/>
	<outline>
		<contour>
			<point x="345" y="740" type="line"/>
			<point x="342" y="733"/>
			<point x="338" y="726"/>
			<point x="333" y="720" type="curve"/>
			<point x="325" y="709"/>
			<point x="312" y="700"/>
			<point x="295" y="700" type="curve" smooth="yes"/>
			<point x="245" y="700"/>
			<point x="220" y="745" name="hr01"/>
			<point x="155" y="745" type="curve" smooth="yes"/>
			<point x="107" y="745"/>
			<point x="75" y="720"/>
			<point x="52" y="695" type="curve"/>
			<point x="39" y="680"/>
			<point x="29" y="664"/>
			<point x="20" y="645" type="curve"/>
			<point x="95" y="580" type="line"/>
			<point x="98" y="587"/>
			<point x="102" y="594"/>
			<point x="107" y="600" type="curve"/>
			<point x="115" y="611"/>
			<point x="126" y="620"/>
			<point x="145" y="620" type="curve" smooth="yes"/>
			<point x="195" y="620"/>
			<point x="220" y="575" name="hr02"/>
			<point x="285" y="575" type="curve" smooth="yes"/>
			<point x="332" y="575"/>
			<point x="365" y="600"/>
			<point x="388" y="625" type="curve"/>
			<point x="401" y="640"/>
			<point x="411" y="656"/>
			<point x="420" y="675" type="curve"/>
		</contour>
	</outline>
</glyph>
<glyph name="uni0307" format="2">
	<advance width="280" height="0"/>
	<unicode hex="0307"/>
	<anchor x="140" y="530" name="_top"/>
	<anchor x="140" y="740" name="top"/>
	<outline>
		<contour>
			<point x="140" y="580" type="curve" smooth="yes"/>
			<point x="220" y="580"/>
			<point x="260" y="611" name="sv01"/>
			<point x="260" y="660" type="curve" smooth="yes"/>
			<point x="260" y="709" name="ih01"/>
			<point x="220" y="740" name="ih02"/>
			<point x="140" y="740" type="curve" smooth="yes" name="ih03"/>
			<point x="60" y="740"/>
			<point x="20" y="709"/>
			<point x="20" y="660" type="curve" smooth="yes"/>
			<point x="20" y="611"/>
			<point x="60" y="580"/>
		</contour>
	</outline>
</glyph>
<glyph name="uni0308" format="2">
	<advance width="470" height="0"/>
	<unicode hex="0308"/>
	<anchor x="235" y="530" name="_top"/>
	<anchor x="235" y="740" name="top"/>
	<outline>
		<contour>
			<point x="120" y="580" type="curve" smooth="yes"/>
			<point x="176" y="580"/>
			<point x="220" y="608"/>
			<point x="220" y="660" type="curve" smooth="yes"/>
			<point x="220" y="712"/>
			<point x="176" y="740"/>
			<point x="120" y="740" type="curve" smooth="yes"/>
			<point x="64" y="740"/>
			<point x="20" y="712"/>
			<point x="20" y="660" type="curve" smooth="yes"/>
			<point x="20" y="608"/>
			<point x="64" y="580"/>
		</contour>
		<contour>
			<point x="350" y="580" type="curve" smooth="yes"/>
			<point x="405" y="580"/>
			<point x="450" y="608"/>
			<point x="450" y="660" type="curve" smooth="yes"/>
			<point x="450" y="712"/>
			<point x="406" y="740"/>
			<point x="350" y="740" type="curve" smooth="yes"/>
			<point x="294" y="740"/>
			<point x="250" y="712"/>
			<point x="250" y="660" type="curve" smooth="yes"/>
			<point x="250" y="608"/>
			<point x="294" y="580"/>
		</contour>
	</outline>
</glyph>
<glyph name="uni030A" format="2">
	<advance width="330" height="0"/>
	<unicode hex="030A"/>
	<anchor x="165" y="530" name="_top"/>
	<anchor x="165" y="795" name="top"/>
	<outline>
		<contour>
			<point x="165" y="565" type="curve" smooth="yes"/>
			<point x="256" y="565"/>
			<point x="310" y="608" name="sv01"/>
			<point x="310" y="680" type="curve" smooth="yes"/>
			<point x="310" y="752" name="ih01"/>
			<point x="256" y="795"/>
			<point x="165" y="795" type="curve" smooth="yes"/>
			<point x="74" y="795" name="iv01"/>
			<point x="20" y="752"/>
			<point x="20" y="680" type="curve" smooth="yes" name="sh01"/>
			<point x="20" y="608" name="ih02"/>
			<point x="74" y="565" name="ih03"/>
		</contour>
		<contour>
			<point x="165" y="653" type="curve" smooth="yes"/>
			<point x="140" y="653"/>
			<point x="128" y="662"/>
			<point x="128" y="680" type="curve" smooth="yes"/>
			<point x="128" y="698"/>
			<point x="140" y="707"/>
			<point x="165" y="707" type="curve" smooth="yes"/>
			<point x="190" y="707"/>
			<point x="202" y="698"/>
			<point x="202" y="680" type="curve" smooth="yes"/>
			<point x="202" y="662"/>
			<point x="190" y="653"/>
		</contour>
	</outline>
</glyph>
<glyph name="uni030B" format="2">
	<advance width="720" height="0"/>
	<unicode hex="030B"/>
	<anchor x="305" y="530" name="_top"/>
	<anchor x="374" y="740" name="top"/>
	<outline>
		<contour>
			<point x="237" y="580" type="line"/>
			<point x="354" y="740" type="line" name="ih01"/>
			<point x="144" y="740" type="line" name="sv01"/>
			<point x="87" y="580" type="line" name="ab01"/>
		</contour>
		<contour>
			<point x="480" y="580" type="line"/>
			<point x="660" y="740" type="line" name="sv03"/>
			<point x="450" y="740" type="line" name="sv02"/>
			<point x="330" y="580" type="line" name="sh01"/>
		</contour>
	</outline>
</glyph>
<glyph name="uni0326" format="2">
	<advance width="230"/>
	<unicode hex="0326"/>
	<anchor x="115" y="0" name="_bottom"/>
	<outline>
		<contour>
			<point x="35" y="-226" type="line" name="sv02"/>
			<point x="144" y="-226" type="line" name="ih01"/>
			<point x="195" y="-136" type="line"/>
			<point x="195" y="-45" type="line"/>
			<point x="35" y="-45" type="line" name="sv01"/>
		</contour>
	</outline>
</glyph>
<glyph name="uni0327" format="2">
	<advance width="270" height="0"/>
	<unicode hex="0327"/>
	<anchor x="135" y="0" name="_bottom"/>
	<anchor x="135" y="-215" name="bottom"/>
	<outline>
		<contour>
			<point x="105" y="-215" type="curve" smooth="yes"/>
			<point x="212" y="-215"/>
			<point x="250" y="-176"/>
			<point x="250" y="-115" type="curve" smooth="yes"/>
			<point x="250" y="-74"/>
			<point x="224" y="-42"/>
			<point x="175" y="-34" type="curve"/>
			<point x="181" y="10" type="line"/>
			<point x="93" y="10" type="line"/>
			<point x="76" y="-81" type="line"/>
			<point x="107" y="-81"/>
			<point x="114" y="-91"/>
			<point x="114" y="-102" type="curve" smooth="yes"/>
			<point x="114" y="-115"/>
			<point x="105" y="-122" name="hr01"/>
			<point x="70" y="-122" type="curve" smooth="yes" name="hr01"/>
			<point x="55" y="-122"/>
			<point x="43" y="-121"/>
			<point x="34" y="-119" type="curve"/>
			<point x="20" y="-115" type="line"/>
			<point x="20" y="-205" type="line"/>
			<point x="25" y="-207"/>
			<point x="32" y="-209"/>
			<point x="40" y="-210" type="curve"/>
			<point x="55" y="-213"/>
			<point x="74" y="-215"/>
		</contour>
	</outline>
</glyph>
<glyph name="uni0328" format="2">
	<advance width="310"/>
	<unicode hex="0328"/>
	<anchor x="260" y="0" name="_ogonek"/>
	<outline>
		<contour>
			<point x="185" y="-215" type="curve" smooth="yes"/>
			<point x="216" y="-215"/>
			<point x="235" y="-213"/>
			<point x="250" y="-210" type="curve"/>
			<point x="258" y="-209"/>
			<point x="265" y="-207"/>
			<point x="270" y="-205" type="curve"/>
			<point x="270" y="-115" type="line"/>
			<point x="260" y="-118" type="line"/>
			<point x="247" y="-122"/>
			<point x="235" y="-122"/>
			<point x="224" y="-122" type="curve" smooth="yes" name="hr01"/>
			<point x="196" y="-122" name="hr01"/>
			<point x="176" y="-109"/>
			<point x="176" y="-82" type="curve" smooth="yes"/>
			<point x="176" y="-50"/>
			<point x="206" y="-21"/>
			<point x="260" y="0" type="curve" name="ab01"/>
			<point x="143" y="0" type="line"/>
			<point x="104" y="-14"/>
			<point x="40" y="-49"/>
			<point x="40" y="-115" type="curve" smooth="yes"/>
			<point x="40" y="-176"/>
			<point x="78" y="-215"/>
		</contour>
	</outline>
</glyph>
<glyph name="uni0404" format="2">
	<advance width="725" height="0"/>
	<unicode hex="0404"/>
	<outline>
		<contour>
			<point x="375" y="-15" type="curve" smooth="yes"/>
			<point x="554" y="-15" name="iv04"/>
			<point x="705" y="59"/>
			<point x="710" y="280" type="curve" name="sv02"/>
			<point x="470" y="280" type="line"/>
			<point x="463" y="225" name="iv03"/>
			<point x="426" y="199" name="iv02"/>
			<point x="375" y="199" type="curve" smooth="yes"/>
			<point x="327" y="199" name="sv01"/>
			<point x="296" y="220"/>
			<point x="281" y="263" type="curve" name="iv01"/>
			<point x="432" y="263" type="line" name="at01"/>
			<point x="432" y="435" type="line"/>
			<point x="278" y="435" type="line"/>
			<point x="293" y="483" name="ih01"/>
			<point x="323" y="501" name="ih02"/>
			<point x="375" y="501" type="curve" smooth="yes" name="ih03"/>
			<point x="426" y="501"/>
			<point x="463" y="473"/>
			<point x="470" y="420" type="curve"/>
			<point x="710" y="420" type="line"/>
			<point x="705" y="636"/>
			<point x="550" y="715"/>
			<point x="375" y="715" type="curve" smooth="yes"/>
			<point x="180" y="715"/>
			<point x="20" y="612"/>
			<point x="20" y="365" type="curve" smooth="yes"/>
			<point x="20" y="345" type="line" smooth="yes"/>
			<point x="20" y="84"/>
			<point x="175" y="-15"/>
		</contour>
	</outline>
</glyph>
<glyph name="uni0409" format="2">
	<advance width="1055" height="0"/>
	<unicode hex="0409"/>
	<outline>
		<contour>
			<point x="65" y="-15" type="curve" smooth="yes"/>
			<point x="225" y="-15"/>
			<point x="349" y="25"/>
			<point x="349" y="440" type="curve" smooth="yes" name="sv02"/>
			<point x="349" y="488" type="line" name="ih01"/>
			<point x="411" y="488" type="line" name="ab01"/>
			<point x="411" y="0" type="line" name="hr01"/>
			<point x="735" y="0" type="line" smooth="yes" name="iv01"/>
			<point x="950" y="0"/>
			<point x="1040" y="90"/>
			<point x="1040" y="253" type="curve" smooth="yes" name="at01"/>
			<point x="1040" y="406"/>
			<point x="950" y="496" name="sv01"/>
			<point x="735" y="496" type="curve" smooth="yes"/>
			<point x="675" y="496" type="line"/>
			<point x="675" y="700" type="line" name="hr01"/>
			<point x="105" y="700" type="line"/>
			<point x="105" y="460" type="line" smooth="yes" name="sh01"/>
			<point x="105" y="235" name="sv04"/>
			<point x="80" y="199"/>
			<point x="25" y="199" type="curve" smooth="yes" name="sv03"/>
			<point x="18" y="199" name="ih02"/>
			<point x="13" y="199" name="ih03"/>
			<point x="10" y="200" type="curve"/>
			<point x="10" y="-12" type="line"/>
			<point x="21" y="-15"/>
			<point x="54" y="-15"/>
		</contour>
		<contour>
			<point x="675" y="192" type="line"/>
			<point x="675" y="314" type="line"/>
			<point x="704" y="314" type="line" smooth="yes" name="hr03"/>
			<point x="759" y="314"/>
			<point x="776" y="286"/>
			<point x="776" y="253" type="curve" smooth="yes"/>
			<point x="776" y="220"/>
			<point x="757" y="192"/>
			<point x="704" y="192" type="curve" smooth="yes"/>
		</contour>
	</outline>
</glyph>
<glyph name="uni040A" format="2">
	<advance width="1100" height="0"/>
	<unicode hex="040A"/>
	<outline>
		<contour>
			<point x="40" y="0" type="line"/>
			<point x="304" y="0" type="line" name="ab02"/>
			<point x="304" y="264" type="line"/>
			<point x="456" y="264" type="line" name="sv01"/>
			<point x="456" y="0" type="line"/>
			<point x="780" y="0" type="line" smooth="yes" name="ab01"/>
			<point x="995" y="0"/>
			<point x="1085" y="84" name="iv01"/>
			<point x="1085" y="243" type="curve" smooth="yes"/>
			<point x="1085" y="391"/>
			<point x="995" y="476" name="at02"/>
			<point x="780" y="476" type="curve" smooth="yes" name="ih01"/>
			<point x="720" y="476" type="line"/>
			<point x="720" y="700" type="line"/>
			<point x="456" y="700" type="line" name="at01"/>
			<point x="456" y="476" type="line"/>
			<point x="304" y="476" type="line" name="sh01"/>
			<point x="304" y="700" type="line" name="sv03"/>
			<point x="40" y="700" type="line"/>
		</contour>
		<contour>
			<point x="720" y="192" type="line" name="sv02"/>
			<point x="720" y="294" type="line" name="ih02"/>
			<point x="749" y="294" type="line" smooth="yes" name="ih03"/>
			<point x="804" y="294"/>
			<point x="821" y="276"/>
			<point x="821" y="243" type="curve" smooth="yes"/>
			<point x="821" y="210"/>
			<point x="802" y="192"/>
			<point x="749" y="192" type="curve" smooth="yes"/>
		</contour>
	</outline>
</glyph>
<glyph name="uni040F" format="2">
	<advance width="740" height="0"/>
	<unicode hex="040F"/>
	<outline>
		<contour>
			<point x="253" y="-130" type="line"/>
			<point x="477" y="-130" type="line" name="av01"/>
			<point x="477" y="0" type="line"/>
			<point x="700" y="0" type="line" name="ab02"/>
			<point x="700" y="700" type="line"/>
			<point x="436" y="700" type="line" name="at02"/>
			<point x="436" y="212" type="line"/>
			<point x="304" y="212" type="line" name="sv01"/>
			<point x="304" y="700" type="line" name="ih01"/>
			<point x="40" y="700" type="line" name="at01"/>
			<point x="40" y="0" type="line"/>
			<point x="253" y="0" type="line" name="ab01"/>
		</contour>
	</outline>
</glyph>
<glyph name="uni0411" format="2">
	<advance width="700" height="0"/>
	<unicode hex="0411"/>
	<outline>
		<contour>
			<point x="40" y="0" type="line"/>
			<point x="370" y="0" type="line" smooth="yes" name="ab01"/>
			<point x="590" y="0"/>
			<point x="680" y="85" name="sh01"/>
			<point x="680" y="232" type="curve" smooth="yes"/>
			<point x="680" y="369"/>
			<point x="590" y="454" name="sv01"/>
			<point x="370" y="454" type="curve" smooth="yes"/>
			<point x="304" y="454" type="line" name="at01"/>
			<point x="304" y="518" type="line"/>
			<point x="615" y="518" type="line"/>
			<point x="615" y="700" type="line" name="iv01"/>
			<point x="40" y="700" type="line"/>
		</contour>
		<contour>
			<point x="304" y="182" type="line" name="ih01"/>
			<point x="304" y="282" type="line" name="ih02"/>
			<point x="345" y="282" type="line" smooth="yes" name="ih03"/>
			<point x="389" y="282"/>
			<point x="410" y="269"/>
			<point x="410" y="232" type="curve" smooth="yes"/>
			<point x="410" y="195"/>
			<point x="389" y="182"/>
			<point x="345" y="182" type="curve" smooth="yes"/>
		</contour>
	</outline>
</glyph>
<glyph name="uni0413" format="2">
	<advance width="570" height="0"/>
	<unicode hex="0413"/>
	<anchor x="550" y="0" name="bottomright"/>
	<anchor x="291" y="700" name="top"/>
	<outline>
		<contour>
			<point x="40" y="0" type="line"/>
			<point x="304" y="0" type="line" name="ab01"/>
			<point x="304" y="488" type="line" name="ih01"/>
			<point x="550" y="488" type="line" name="sv01"/>
			<point x="550" y="700" type="line"/>
			<point x="40" y="700" type="line" name="at01"/>
		</contour>
	</outline>
</glyph>
<glyph name="uni0416" format="2">
	<advance width="1090" height="0"/>
	<unicode hex="0416"/>
	<anchor x="1070" y="0" name="bottomright"/>
	<anchor x="545" y="700" name="top"/>
	<outline>
		<contour>
			<point x="5" y="0" type="line"/>
			<point x="277" y="0" type="line" name="ab03"/>
			<point x="393" y="267" type="line"/>
			<point x="413" y="267" type="line" name="sv04"/>
			<point x="413" y="0" type="line"/>
			<point x="677" y="0" type="line" name="ab02"/>
			<point x="677" y="267" type="line"/>
			<point x="697" y="267" type="line" name="sv01"/>
			<point x="805" y="0" type="line"/>
			<point x="1085" y="0" type="line" name="ab01"/>
			<point x="915" y="378" type="line" name="iv02"/>
			<point x="1075" y="700" type="line"/>
			<point x="811" y="700" type="line" name="at03"/>
			<point x="697" y="443" type="line" name="iv01"/>
			<point x="677" y="443" type="line"/>
			<point x="677" y="700" type="line"/>
			<point x="413" y="700" type="line" name="at02"/>
			<point x="413" y="443" type="line" name="ih01"/>
			<point x="393" y="443" type="line" name="sv03"/>
			<point x="287" y="700" type="line"/>
			<point x="15" y="700" type="line" name="at01"/>
			<point x="175" y="353" type="line" name="sv02"/>
		</contour>
	</outline>
</glyph>
<glyph name="uni0417" format="2">
	<advance width="720" height="0"/>
	<unicode hex="0417"/>
	<anchor x="360" y="0" name="bottom"/>
	<anchor x="360" y="700" name="top"/>
	<outline>
		<contour>
			<point x="360" y="-15" type="curve" smooth="yes"/>
			<point x="580" y="-15"/>
			<point x="700" y="66" name="iv05"/>
			<point x="700" y="198" type="curve" smooth="yes"/>
			<point x="700" y="289" name="at01"/>
			<point x="657" y="345" name="iv04"/>
			<point x="571" y="365" type="curve"/>
			<point x="639" y="388" name="sv02"/>
			<point x="680" y="441"/>
			<point x="680" y="513" type="curve" smooth="yes" name="iv02"/>
			<point x="680" y="652"/>
			<point x="559" y="715"/>
			<point x="355" y="715" type="curve" smooth="yes" name="iv03"/>
			<point x="142" y="715"/>
			<point x="25" y="622" name="sv01"/>
			<point x="25" y="425" type="curve"/>
			<point x="265" y="425" type="line" name="iv01"/>
			<point x="265" y="478" name="ih01"/>
			<point x="274" y="531" name="ih02"/>
			<point x="355" y="531" type="curve" smooth="yes" name="ih03"/>
			<point x="392" y="531"/>
			<point x="410" y="516"/>
			<point x="410" y="485" type="curve" smooth="yes"/>
			<point x="410" y="450"/>
			<point x="390" y="436"/>
			<point x="335" y="436" type="curve" smooth="yes"/>
			<point x="295" y="436" type="line"/>
			<point x="295" y="274" type="line"/>
			<point x="335" y="274" type="line" smooth="yes"/>
			<point x="412" y="274"/>
			<point x="430" y="261"/>
			<point x="430" y="223" type="curve" smooth="yes"/>
			<point x="430" y="184"/>
			<point x="403" y="169"/>
			<point x="360" y="169" type="curve" smooth="yes"/>
			<point x="263" y="169"/>
			<point x="260" y="237"/>
			<point x="260" y="290" type="curve"/>
			<point x="20" y="290" type="line"/>
			<point x="20" y="110"/>
			<point x="116" y="-15"/>
		</contour>
	</outline>
</glyph>
<glyph name="uni041A" format="2">
	<advance width="765" height="0"/>
	<unicode hex="041A"/>
	<anchor x="745" y="0" name="bottomright"/>
	<anchor x="385" y="700" name="top"/>
	<outline>
		<contour>
			<point x="40" y="0" type="line"/>
			<point x="304" y="0" type="line" name="ab02"/>
			<point x="304" y="267" type="line" name="sv01"/>
			<point x="334" y="267" type="line"/>
			<point x="464" y="0" type="line"/>
			<point x="760" y="0" type="line" name="ab01"/>
			<point x="555" y="375" type="line" name="iv02"/>
			<point x="750" y="700" type="line"/>
			<point x="470" y="700" type="line" name="at02"/>
			<point x="334" y="443" type="line" name="ih01"/>
			<point x="304" y="443" type="line" name="iv01"/>
			<point x="304" y="700" type="line"/>
			<point x="40" y="700" type="line" name="at01"/>
		</contour>
	</outline>
</glyph>
<glyph name="uni041B" format="2">
	<advance width="715" height="0"/>
	<unicode hex="041B"/>
	<outline>
		<contour>
			<point x="65" y="-15" type="curve" smooth="yes"/>
			<point x="225" y="-15"/>
			<point x="349" y="25" name="ih01"/>
			<point x="349" y="440" type="curve" smooth="yes" name="sv02"/>
			<point x="349" y="488" type="line"/>
			<point x="411" y="488" type="line" name="ab01"/>
			<point x="411" y="0" type="line" name="hr01"/>
			<point x="675" y="0" type="line" name="at01"/>
			<point x="675" y="700" type="line"/>
			<point x="105" y="700" type="line" name="sv01"/>
			<point x="105" y="460" type="line" smooth="yes"/>
			<point x="105" y="235"/>
			<point x="80" y="199" name="ab02"/>
			<point x="25" y="199" type="curve" smooth="yes" name="hr01"/>
			<point x="18" y="199" name="ih02"/>
			<point x="13" y="199"/>
			<point x="10" y="200" type="curve"/>
			<point x="10" y="-12" type="line"/>
			<point x="21" y="-15"/>
			<point x="54" y="-15"/>
		</contour>
	</outline>
</glyph>
<glyph name="uni0426" format="2">
	<advance width="785" height="0"/>
	<unicode hex="0426"/>
	<outline>
		<contour>
			<point x="546" y="-130" type="line"/>
			<point x="770" y="-130" type="line" name="av01"/>
			<point x="770" y="212" type="line" name="sv03"/>
			<point x="700" y="212" type="line" name="sv02"/>
			<point x="700" y="700" type="line"/>
			<point x="436" y="700" type="line" name="at02"/>
			<point x="436" y="212" type="line" name="ih01"/>
			<point x="304" y="212" type="line" name="sv01"/>
			<point x="304" y="700" type="line"/>
			<point x="40" y="700" type="line" name="at01"/>
			<point x="40" y="0" type="line"/>
			<point x="546" y="0" type="line" name="ab01"/>
		</contour>
	</outline>
</glyph>
<glyph name="uni0427" format="2">
	<advance width="690" height="0"/>
	<unicode hex="0427"/>
	<anchor x="670" y="0" name="bottomright"/>
	<anchor x="345" y="700" name="top"/>
	<outline>
		<contour>
			<point x="386" y="0" type="line"/>
			<point x="650" y="0" type="line" name="ab01"/>
			<point x="650" y="700" type="line"/>
			<point x="386" y="700" type="line" name="at02"/>
			<point x="386" y="441" type="line"/>
			<point x="371" y="432" name="ih01"/>
			<point x="354" y="427"/>
			<point x="335" y="427" type="curve" smooth="yes"/>
			<point x="296" y="427" name="at01"/>
			<point x="284" y="440"/>
			<point x="284" y="495" type="curve" smooth="yes" name="sv01"/>
			<point x="284" y="700" type="line" name="iv01"/>
			<point x="20" y="700" type="line" name="ih02"/>
			<point x="20" y="443" type="line" smooth="yes" name="ih03"/>
			<point x="20" y="282"/>
			<point x="87" y="213"/>
			<point x="231" y="213" type="curve" smooth="yes"/>
			<point x="306" y="213"/>
			<point x="351" y="231"/>
			<point x="386" y="254" type="curve"/>
		</contour>
	</outline>
</glyph>
<glyph name="uni042A" format="2">
	<advance width="775" height="0"/>
	<unicode hex="042A"/>
	<anchor x="388" y="700" name="top"/>
	<outline>
		<contour>
			<point x="130" y="0" type="line"/>
			<point x="455" y="0" type="line" smooth="yes" name="ab01"/>
			<point x="670" y="0"/>
			<point x="760" y="90" name="iv01"/>
			<point x="760" y="253" type="curve" smooth="yes"/>
			<point x="760" y="406" name="ih01"/>
			<point x="670" y="496" name="at01"/>
			<point x="455" y="496" type="curve" smooth="yes"/>
			<point x="394" y="496" type="line" name="sv01"/>
			<point x="394" y="700" type="line"/>
			<point x="20" y="700" type="line" name="sh01"/>
			<point x="20" y="508" type="line" name="sv03"/>
			<point x="130" y="508" type="line"/>
		</contour>
		<contour>
			<point x="394" y="192" type="line" name="sv02"/>
			<point x="394" y="314" type="line" name="ih02"/>
			<point x="424" y="314" type="line" smooth="yes" name="ih03"/>
			<point x="479" y="314"/>
			<point x="496" y="286"/>
			<point x="496" y="253" type="curve" smooth="yes"/>
			<point x="496" y="220"/>
			<point x="477" y="192"/>
			<point x="424" y="192" type="curve" smooth="yes"/>
		</contour>
	</outline>
</glyph>
<glyph name="uni042C" format="2">
	<advance width="685" height="0"/>
	<unicode hex="042C"/>
	<outline>
		<contour>
			<point x="40" y="0" type="line"/>
			<point x="365" y="0" type="line" smooth="yes" name="ab01"/>
			<point x="580" y="0"/>
			<point x="670" y="90" name="sh01"/>
			<point x="670" y="253" type="curve" smooth="yes"/>
			<point x="670" y="406"/>
			<point x="580" y="496" name="at01"/>
			<point x="365" y="496" type="curve" smooth="yes"/>
			<point x="304" y="496" type="line"/>
			<point x="304" y="700" type="line" name="sv01"/>
			<point x="40" y="700" type="line"/>
		</contour>
		<contour>
			<point x="304" y="192" type="line" name="ih01"/>
			<point x="304" y="314" type="line" name="ih02"/>
			<point x="334" y="314" type="line" smooth="yes" name="ih03"/>
			<point x="389" y="314"/>
			<point x="406" y="286"/>
			<point x="406" y="253" type="curve" smooth="yes"/>
			<point x="406" y="220"/>
			<point x="387" y="192"/>
			<point x="334" y="192" type="curve" smooth="yes"/>
		</contour>
	</outline>
</glyph>
<glyph name="uni0431" format="2">
	<advance width="615" height="0"/>
	<unicode hex="0431"/>
	<outline>
		<contour>
			<point x="310" y="-15" type="curve" smooth="yes"/>
			<point x="473" y="-15"/>
			<point x="600" y="71"/>
			<point x="600" y="235" type="curve" smooth="yes" name="iv01"/>
			<point x="600" y="255" type="line" smooth="yes" name="iv02"/>
			<point x="600" y="415" name="sv02"/>
			<point x="506" y="485"/>
			<point x="378" y="485" type="curve" smooth="yes" name="sv01"/>
			<point x="256" y="485" name="at01"/>
			<point x="208" y="438"/>
			<point x="181" y="403" type="curve"/>
			<point x="197" y="483" name="ih01"/>
			<point x="225" y="520"/>
			<point x="330" y="520" type="curve" smooth="yes"/>
			<point x="484" y="520"/>
			<point x="533" y="532" name="sv03"/>
			<point x="553" y="545" type="curve"/>
			<point x="553" y="725" type="line"/>
			<point x="509" y="704" name="sh01"/>
			<point x="398" y="705" name="ih02"/>
			<point x="314" y="702" type="curve" smooth="yes" name="ih03"/>
			<point x="97" y="691"/>
			<point x="20" y="558"/>
			<point x="20" y="320" type="curve" smooth="yes"/>
			<point x="20" y="300" type="line" smooth="yes"/>
			<point x="20" y="74"/>
			<point x="147" y="-15"/>
		</contour>
		<contour>
			<point x="310" y="163" type="curve" smooth="yes"/>
			<point x="273" y="163"/>
			<point x="246" y="190"/>
			<point x="246" y="235" type="curve" smooth="yes"/>
			<point x="246" y="255" type="line" smooth="yes"/>
			<point x="246" y="300"/>
			<point x="273" y="327"/>
			<point x="310" y="327" type="curve" smooth="yes"/>
			<point x="347" y="327"/>
			<point x="374" y="300"/>
			<point x="374" y="255" type="curve" smooth="yes"/>
			<point x="374" y="235" type="line" smooth="yes"/>
			<point x="374" y="190"/>
			<point x="347" y="163"/>
		</contour>
	</outline>
</glyph>
<glyph name="uni0436" format="2">
	<advance width="854" height="0"/>
	<unicode hex="0436"/>
	<anchor x="834" y="0" name="bottomright"/>
	<anchor x="427" y="530" name="top"/>
	<outline>
		<contour>
			<point x="2" y="0" type="line"/>
			<point x="230" y="0" type="line" name="ab03"/>
			<point x="305" y="190" type="line"/>
			<point x="315" y="190" type="line" name="sv04"/>
			<point x="315" y="0" type="line"/>
			<point x="535" y="0" type="line" name="ab02"/>
			<point x="535" y="190" type="line"/>
			<point x="545" y="190" type="line" name="sv01"/>
			<point x="614" y="0" type="line"/>
			<point x="852" y="0" type="line" name="ab01"/>
			<point x="722" y="295" type="line" name="iv02"/>
			<point x="842" y="530" type="line"/>
			<point x="620" y="530" type="line" name="at03"/>
			<point x="545" y="350" type="line" name="iv01"/>
			<point x="535" y="350" type="line"/>
			<point x="535" y="530" type="line" name="ih01"/>
			<point x="315" y="530" type="line" name="at02"/>
			<point x="315" y="350" type="line"/>
			<point x="305" y="350" type="line" name="sv03"/>
			<point x="236" y="530" type="line"/>
			<point x="12" y="530" type="line" name="at01"/>
			<point x="132" y="274" type="line" name="sv02"/>
		</contour>
	</outline>
</glyph>
<glyph name="uni0438" format="2">
	<advance width="620" height="0"/>
	<unicode hex="0438"/>
	<anchor x="600" y="0" name="bottomright"/>
	<anchor x="310" y="530" name="top"/>
	<outline>
		<contour>
			<point x="35" y="0" type="line"/>
			<point x="220" y="0" type="line" name="ab02"/>
			<point x="365" y="220" type="line" name="iv02"/>
			<point x="365" y="0" type="line"/>
			<point x="585" y="0" type="line" name="ab01"/>
			<point x="585" y="530" type="line"/>
			<point x="400" y="530" type="line" name="at02"/>
			<point x="255" y="310" type="line" name="iv01"/>
			<point x="255" y="530" type="line" name="ih01"/>
			<point x="35" y="530" type="line" name="at01"/>
		</contour>
	</outline>
</glyph>
<glyph name="uni043A" format="2">
	<advance width="607" height="0"/>
	<unicode hex="043A"/>
	<anchor x="587" y="0" name="bottomright"/>
	<anchor x="308" y="530" name="top"/>
	<outline>
		<contour>
			<point x="35" y="0" type="line"/>
			<point x="255" y="0" type="line" name="ab02"/>
			<point x="255" y="190" type="line" name="sv01"/>
			<point x="275" y="190" type="line"/>
			<point x="357" y="0" type="line"/>
			<point x="605" y="0" type="line" name="ab01"/>
			<point x="469" y="292" type="line" name="iv02"/>
			<point x="595" y="530" type="line"/>
			<point x="363" y="530" type="line" name="at02"/>
			<point x="275" y="350" type="line" name="ih01"/>
			<point x="255" y="350" type="line" name="iv01"/>
			<point x="255" y="530" type="line"/>
			<point x="35" y="530" type="line" name="at01"/>
		</contour>
	</outline>
</glyph>
<glyph name="uni043B" format="2">
	<advance width="600" height="0"/>
	<unicode hex="043B"/>
	<outline>
		<contour>
			<point x="65" y="-15" type="curve" smooth="yes"/>
			<point x="196" y="-15"/>
			<point x="275" y="25" name="ih01"/>
			<point x="275" y="270" type="curve" smooth="yes" name="sv02"/>
			<point x="275" y="354" type="line"/>
			<point x="345" y="354" type="line" name="ab01"/>
			<point x="345" y="0" type="line"/>
			<point x="565" y="0" type="line" name="at01"/>
			<point x="565" y="530" type="line"/>
			<point x="85" y="530" type="line" name="sv01"/>
			<point x="85" y="290" type="line" smooth="yes"/>
			<point x="85" y="185"/>
			<point x="60" y="163" name="ab02"/>
			<point x="25" y="163" type="curve" smooth="yes" name="ih02"/>
			<point x="18" y="163" name="ih03"/>
			<point x="13" y="163"/>
			<point x="10" y="164" type="curve"/>
			<point x="10" y="-12" type="line"/>
			<point x="21" y="-15"/>
			<point x="54" y="-15"/>
		</contour>
	</outline>
</glyph>
<glyph name="uni043C" format="2">
	<advance width="770" height="0"/>
	<unicode hex="043C"/>
	<outline>
		<contour>
			<point x="35" y="0" type="line"/>
			<point x="235" y="0" type="line" name="ab02"/>
			<point x="235" y="285" type="line" name="iv03"/>
			<point x="315" y="90" type="line" name="iv01"/>
			<point x="455" y="90" type="line"/>
			<point x="535" y="285" type="line" name="iv02"/>
			<point x="535" y="0" type="line"/>
			<point x="735" y="0" type="line" name="ab01"/>
			<point x="735" y="530" type="line"/>
			<point x="459" y="530" type="line" name="at02"/>
			<point x="388" y="330" type="line" name="ih01"/>
			<point x="317" y="530" type="line"/>
			<point x="35" y="530" type="line" name="at01"/>
		</contour>
	</outline>
</glyph>
<glyph name="uni043D" format="2">
	<advance width="620" height="0"/>
	<unicode hex="043D"/>
	<anchor x="600" y="0" name="bottomright"/>
	<outline>
		<contour>
			<point x="35" y="0" type="line"/>
			<point x="255" y="0" type="line" name="ab02"/>
			<point x="255" y="182" type="line"/>
			<point x="365" y="182" type="line" name="sv01"/>
			<point x="365" y="0" type="line"/>
			<point x="585" y="0" type="line" name="ab01"/>
			<point x="585" y="530" type="line"/>
			<point x="365" y="530" type="line" name="at02"/>
			<point x="365" y="358" type="line" name="iv01"/>
			<point x="255" y="358" type="line"/>
			<point x="255" y="530" type="line" name="ih01"/>
			<point x="35" y="530" type="line" name="at01"/>
		</contour>
	</outline>
</glyph>
<glyph name="uni0444" format="2">
	<advance width="810" height="0"/>
	<unicode hex="0444"/>
	<outline>
		<contour>
			<point x="295" y="-200" type="line"/>
			<point x="515" y="-200" type="line" name="ab01"/>
			<point x="515" y="-15" type="line" name="ab02"/>
			<point x="687" y="-15"/>
			<point x="795" y="74"/>
			<point x="795" y="255" type="curve" smooth="yes" name="at03"/>
			<point x="795" y="275" type="line" smooth="yes"/>
			<point x="795" y="447" name="at01"/>
			<point x="687" y="545" name="at02"/>
			<point x="515" y="545" type="curve"/>
			<point x="515" y="700" type="line"/>
			<point x="295" y="700" type="line" name="sh01"/>
			<point x="295" y="545" type="line"/>
			<point x="120" y="545" name="sv01"/>
			<point x="15" y="448" name="ih01"/>
			<point x="15" y="275" type="curve" smooth="yes"/>
			<point x="15" y="255" type="line" smooth="yes"/>
			<point x="15" y="74" name="sv02"/>
			<point x="120" y="-15" name="sh02"/>
			<point x="295" y="-15" type="curve"/>
		</contour>
		<contour>
			<point x="569" y="255" type="line" smooth="yes" name="ih02"/>
			<point x="569" y="196" name="ih03"/>
			<point x="548" y="163"/>
			<point x="505" y="163" type="curve"/>
			<point x="505" y="367" type="line"/>
			<point x="548" y="367"/>
			<point x="569" y="334"/>
			<point x="569" y="275" type="curve" smooth="yes"/>
		</contour>
		<contour>
			<point x="241" y="275" type="line" smooth="yes"/>
			<point x="241" y="334"/>
			<point x="262" y="367"/>
			<point x="305" y="367" type="curve"/>
			<point x="305" y="163" type="line"/>
			<point x="262" y="163"/>
			<point x="241" y="196"/>
			<point x="241" y="255" type="curve" smooth="yes"/>
		</contour>
	</outline>
</glyph>
<glyph name="uni0447" format="2">
	<advance width="580" height="0"/>
	<unicode hex="0447"/>
	<anchor x="560" y="0" name="bottomright"/>
	<anchor x="290" y="530" name="top"/>
	<outline>
		<contour>
			<point x="325" y="0" type="line"/>
			<point x="545" y="0" type="line" name="ab01"/>
			<point x="545" y="530" type="line"/>
			<point x="325" y="530" type="line" name="at02"/>
			<point x="325" y="327" type="line"/>
			<point x="318" y="320" name="ih01"/>
			<point x="304" y="314"/>
			<point x="285" y="314" type="curve" smooth="yes"/>
			<point x="258" y="314" name="at01"/>
			<point x="245" y="327"/>
			<point x="245" y="352" type="curve" smooth="yes" name="sv01"/>
			<point x="245" y="530" type="line" name="iv01"/>
			<point x="25" y="530" type="line" name="ih02"/>
			<point x="25" y="327" type="line" smooth="yes" name="ih03"/>
			<point x="25" y="195"/>
			<point x="74" y="136"/>
			<point x="205" y="136" type="curve" smooth="yes"/>
			<point x="258" y="136"/>
			<point x="294" y="147"/>
			<point x="325" y="163" type="curve"/>
		</contour>
	</outline>
</glyph>
<glyph name="uni044A" format="2">
	<advance width="625" height="0"/>
	<unicode hex="044A"/>
	<outline>
		<contour>
			<point x="100" y="0" type="line"/>
			<point x="385" y="0" type="line" smooth="yes" name="ab01"/>
			<point x="553" y="0"/>
			<point x="610" y="85" name="iv01"/>
			<point x="610" y="189" type="curve" smooth="yes"/>
			<point x="610" y="320" name="ih01"/>
			<point x="526" y="368" name="at01"/>
			<point x="385" y="368" type="curve" smooth="yes"/>
			<point x="320" y="368" type="line" name="sv01"/>
			<point x="320" y="530" type="line" name="hr01"/>
			<point x="10" y="530" type="line" name="sh01"/>
			<point x="10" y="354" type="line"/>
			<point x="100" y="354" type="line"/>
		</contour>
		<contour>
			<point x="320" y="156" type="line" name="sv02"/>
			<point x="320" y="222" type="line" name="ih02"/>
			<point x="348" y="222" type="line" smooth="yes" name="ih03"/>
			<point x="375" y="222"/>
			<point x="390" y="213"/>
			<point x="390" y="189" type="curve" smooth="yes"/>
			<point x="390" y="167"/>
			<point x="376" y="156"/>
			<point x="349" y="156" type="curve" smooth="yes"/>
		</contour>
	</outline>
</glyph>
<glyph name="uni044C" format="2">
	<advance width="565" height="0"/>
	<unicode hex="044C"/>
	<outline>
		<contour>
			<point x="40" y="0" type="line"/>
			<point x="325" y="0" type="line" smooth="yes" name="ab01"/>
			<point x="493" y="0"/>
			<point x="550" y="85" name="iv01"/>
			<point x="550" y="189" type="curve" smooth="yes"/>
			<point x="550" y="320" name="sh01"/>
			<point x="466" y="368" name="at01"/>
			<point x="325" y="368" type="curve" smooth="yes"/>
			<point x="260" y="368" type="line" name="iv02"/>
			<point x="260" y="530" type="line" name="ih01"/>
			<point x="40" y="530" type="line"/>
		</contour>
		<contour>
			<point x="260" y="156" type="line" name="sv01"/>
			<point x="260" y="222" type="line" name="ih02"/>
			<point x="288" y="222" type="line" smooth="yes" name="ih03"/>
			<point x="315" y="222"/>
			<point x="330" y="213"/>
			<point x="330" y="189" type="curve" smooth="yes"/>
			<point x="330" y="167"/>
			<point x="316" y="156"/>
			<point x="289" y="156" type="curve" smooth="yes"/>
		</contour>
	</outline>
</glyph>
<glyph name="uni044D" format="2">
	<advance width="600" height="0"/>
	<unicode hex="044D"/>
	<anchor x="300" y="530" name="top"/>
	<outline>
		<contour>
			<point x="305" y="-15" type="curve" smooth="yes"/>
			<point x="475" y="-15"/>
			<point x="585" y="96"/>
			<point x="585" y="260" type="curve" smooth="yes" name="at01"/>
			<point x="585" y="280" type="line" smooth="yes" name="iv04"/>
			<point x="585" y="435"/>
			<point x="475" y="545" name="sv02"/>
			<point x="305" y="545" type="curve" smooth="yes" name="iv02"/>
			<point x="101" y="545"/>
			<point x="26" y="442"/>
			<point x="15" y="310" type="curve" name="iv03"/>
			<point x="201" y="310" type="line" name="sv01"/>
			<point x="212" y="350"/>
			<point x="240" y="367" name="iv01"/>
			<point x="285" y="367" type="curve" smooth="yes" name="ih01"/>
			<point x="325" y="367" name="ih02"/>
			<point x="348" y="354" name="ih03"/>
			<point x="360" y="329" type="curve"/>
			<point x="245" y="329" type="line"/>
			<point x="245" y="201" type="line"/>
			<point x="358" y="201" type="line"/>
			<point x="345" y="176"/>
			<point x="321" y="163"/>
			<point x="285" y="163" type="curve" smooth="yes"/>
			<point x="234" y="163"/>
			<point x="212" y="180"/>
			<point x="201" y="220" type="curve" name="hr01"/>
			<point x="15" y="220" type="line"/>
			<point x="26" y="73"/>
			<point x="101" y="-15"/>
		</contour>
	</outline>
</glyph>
<glyph name="uni044F" format="2">
	<advance width="595" height="0"/>
	<unicode hex="044F"/>
	<anchor x="298" y="530" name="top"/>
	<outline>
		<contour>
			<point x="10" y="0" type="line"/>
			<point x="248" y="0" type="line" name="ab02"/>
			<point x="319" y="154" type="line" name="sh01"/>
			<point x="340" y="154" type="line" name="sv01"/>
			<point x="340" y="0" type="line"/>
			<point x="560" y="0" type="line" name="ab01"/>
			<point x="560" y="530" type="line"/>
			<point x="260" y="530" type="line" smooth="yes" name="at01"/>
			<point x="100" y="530"/>
			<point x="30" y="452" name="sv02"/>
			<point x="30" y="337" type="curve" smooth="yes"/>
			<point x="30" y="270"/>
			<point x="55" y="218" name="sv03"/>
			<point x="114" y="186" type="curve" name="iv01"/>
		</contour>
		<contour>
			<point x="250" y="337" type="curve" smooth="yes" name="ih01"/>
			<point x="250" y="365"/>
			<point x="271" y="374" name="ih02"/>
			<point x="295" y="374" type="curve" smooth="yes" name="ih03"/>
			<point x="340" y="374" type="line"/>
			<point x="340" y="300" type="line"/>
			<point x="295" y="300" type="line" smooth="yes"/>
			<point x="271" y="300"/>
			<point x="250" y="310"/>
		</contour>
	</outline>
</glyph>
<glyph name="uni0452" format="2">
	<advance width="655" height="0"/>
	<unicode hex="0452"/>
	<outline>
		<contour>
			<point x="100" y="0" type="line"/>
			<point x="320" y="0" type="line" name="ab02"/>
			<point x="320" y="140" type="line" smooth="yes"/>
			<point x="320" y="176" name="sv05"/>
			<point x="335" y="197"/>
			<point x="367" y="197" type="curve" smooth="yes"/>
			<point x="398" y="197" name="sv04"/>
			<point x="410" y="177"/>
			<point x="410" y="140" type="curve" smooth="yes"/>
			<point x="410" y="25" type="line" smooth="yes" name="ab01"/>
			<point x="410" y="-26"/>
			<point x="397" y="-37"/>
			<point x="374" y="-37" type="curve" smooth="yes" name="iv01"/>
			<point x="365" y="-37" name="iv02"/>
			<point x="355" y="-36" name="sv03"/>
			<point x="345" y="-34" type="curve" name="sv02"/>
			<point x="345" y="-212" type="line"/>
			<point x="360" y="-215" name="at03"/>
			<point x="379" y="-215" name="ih01"/>
			<point x="394" y="-215" type="curve" smooth="yes" name="at01"/>
			<point x="542" y="-215"/>
			<point x="630" y="-171" name="at02"/>
			<point x="630" y="0" type="curve" smooth="yes"/>
			<point x="630" y="185" type="line" smooth="yes" name="sv01"/>
			<point x="630" y="313" name="ih02"/>
			<point x="571" y="375" name="ih03"/>
			<point x="460" y="375" type="curve" smooth="yes"/>
			<point x="388" y="375"/>
			<point x="344" y="342"/>
			<point x="320" y="305" type="curve"/>
			<point x="320" y="394" type="line"/>
			<point x="500" y="394" type="line"/>
			<point x="500" y="530" type="line"/>
			<point x="320" y="530" type="line"/>
			<point x="320" y="700" type="line"/>
			<point x="100" y="700" type="line"/>
			<point x="100" y="530" type="line"/>
			<point x="10" y="530" type="line"/>
			<point x="10" y="394" type="line"/>
			<point x="100" y="394" type="line"/>
		</contour>
	</outline>
</glyph>
<glyph name="uni0454" format="2">
	<advance width="600" height="0"/>
	<unicode hex="0454"/>
	<outline>
		<contour>
			<point x="295" y="-15" type="curve" smooth="yes"/>
			<point x="499" y="-15" name="iv04"/>
			<point x="574" y="73"/>
			<point x="585" y="220" type="curve" name="sv02"/>
			<point x="399" y="220" type="line"/>
			<point x="388" y="180" name="iv03"/>
			<point x="366" y="163" name="iv02"/>
			<point x="315" y="163" type="curve" smooth="yes"/>
			<point x="278" y="163" name="sv01"/>
			<point x="253" y="176"/>
			<point x="241" y="201" type="curve" name="iv01"/>
			<point x="355" y="201" type="line" name="at01"/>
			<point x="355" y="329" type="line"/>
			<point x="240" y="329" type="line"/>
			<point x="251" y="354" name="ih01"/>
			<point x="276" y="367" name="ih02"/>
			<point x="315" y="367" type="curve" smooth="yes" name="ih03"/>
			<point x="360" y="367"/>
			<point x="388" y="350"/>
			<point x="399" y="310" type="curve" name="hr02"/>
			<point x="585" y="310" type="line"/>
			<point x="574" y="442"/>
			<point x="499" y="545"/>
			<point x="295" y="545" type="curve" smooth="yes"/>
			<point x="125" y="545"/>
			<point x="15" y="435"/>
			<point x="15" y="280" type="curve" smooth="yes"/>
			<point x="15" y="260" type="line" smooth="yes"/>
			<point x="15" y="96"/>
			<point x="125" y="-15"/>
		</contour>
	</outline>
</glyph>
<glyph name="uni0459" format="2">
	<advance width="870" height="0"/>
	<unicode hex="0459"/>
	<outline>
		<contour>
			<point x="65" y="-15" type="curve" smooth="yes"/>
			<point x="196" y="-15"/>
			<point x="275" y="25"/>
			<point x="275" y="270" type="curve" smooth="yes" name="sv02"/>
			<point x="275" y="354" type="line" name="ih01"/>
			<point x="345" y="354" type="line" name="ab01"/>
			<point x="345" y="0" type="line" name="hr01"/>
			<point x="630" y="0" type="line" smooth="yes" name="iv01"/>
			<point x="798" y="0"/>
			<point x="855" y="85"/>
			<point x="855" y="189" type="curve" smooth="yes" name="at01"/>
			<point x="855" y="320"/>
			<point x="771" y="368" name="sv01"/>
			<point x="630" y="368" type="curve" smooth="yes"/>
			<point x="565" y="368" type="line"/>
			<point x="565" y="530" type="line" name="hr01"/>
			<point x="85" y="530" type="line"/>
			<point x="85" y="290" type="line" smooth="yes" name="sh01"/>
			<point x="85" y="185"/>
			<point x="60" y="163"/>
			<point x="25" y="163" type="curve" smooth="yes" name="sv03"/>
			<point x="18" y="163" name="ih02"/>
			<point x="13" y="163" name="ih03"/>
			<point x="10" y="164" type="curve"/>
			<point x="10" y="-12" type="line"/>
			<point x="21" y="-15"/>
			<point x="54" y="-15"/>
		</contour>
		<contour>
			<point x="565" y="156" type="line"/>
			<point x="565" y="222" type="line"/>
			<point x="593" y="222" type="line" smooth="yes" name="hr03"/>
			<point x="620" y="222"/>
			<point x="635" y="213"/>
			<point x="635" y="189" type="curve" smooth="yes"/>
			<point x="635" y="167"/>
			<point x="621" y="156"/>
			<point x="594" y="156" type="curve" smooth="yes"/>
		</contour>
	</outline>
</glyph>
<glyph name="uni045B" format="2">
	<advance width="655" height="0"/>
	<unicode hex="045B"/>
	<outline>
		<contour>
			<point x="100" y="0" type="line"/>
			<point x="320" y="0" type="line" name="ab02"/>
			<point x="320" y="140" type="line" smooth="yes"/>
			<point x="320" y="176" name="sv04"/>
			<point x="335" y="197"/>
			<point x="367" y="197" type="curve" smooth="yes"/>
			<point x="398" y="197" name="ab01"/>
			<point x="410" y="177"/>
			<point x="410" y="140" type="curve" smooth="yes" name="iv01"/>
			<point x="410" y="0" type="line" name="iv02"/>
			<point x="630" y="0" type="line" name="sv03"/>
			<point x="630" y="185" type="line" smooth="yes" name="sv02"/>
			<point x="630" y="313"/>
			<point x="571" y="375" name="at03"/>
			<point x="460" y="375" type="curve" smooth="yes" name="ih01"/>
			<point x="388" y="375" name="at01"/>
			<point x="344" y="342"/>
			<point x="320" y="305" type="curve" name="at02"/>
			<point x="320" y="394" type="line"/>
			<point x="500" y="394" type="line" name="sv01"/>
			<point x="500" y="530" type="line" name="ih02"/>
			<point x="320" y="530" type="line" name="ih03"/>
			<point x="320" y="700" type="line"/>
			<point x="100" y="700" type="line"/>
			<point x="100" y="530" type="line"/>
			<point x="10" y="530" type="line"/>
			<point x="10" y="394" type="line"/>
			<point x="100" y="394" type="line"/>
		</contour>
	</outline>
</glyph>
<glyph name="uni0491" format="2">
	<advance width="465" height="0"/>
	<unicode hex="0491"/>
	<outline>
		<contour>
			<point x="35" y="0" type="line"/>
			<point x="255" y="0" type="line" name="ab01"/>
			<point x="255" y="354" type="line" name="ih01"/>
			<point x="445" y="354" type="line" name="sv02"/>
			<point x="445" y="655" type="line"/>
			<point x="265" y="655" type="line" name="sv01"/>
			<point x="265" y="530" type="line"/>
			<point x="35" y="530" type="line" name="at01"/>
		</contour>
	</outline>
</glyph>
<glyph name="uni0492" format="2">
	<advance width="620" height="0"/>
	<unicode hex="0492"/>
	<guideline y="354"/>
	<outline>
		<contour>
			<point x="90" y="435" type="line"/>
			<point x="10" y="435" type="line" name="sv04"/>
			<point x="10" y="243" type="line"/>
			<point x="90" y="243" type="line" name="sv03"/>
			<point x="90" y="0" type="line"/>
			<point x="354" y="0" type="line" name="ab01"/>
			<point x="354" y="243" type="line"/>
			<point x="480" y="243" type="line" name="sv02"/>
			<point x="480" y="435" type="line" name="iv01"/>
			<point x="354" y="435" type="line"/>
			<point x="354" y="488" type="line" name="ih01"/>
			<point x="600" y="488" type="line" name="sv01"/>
			<point x="600" y="700" type="line"/>
			<point x="90" y="700" type="line" name="at01"/>
		</contour>
	</outline>
</glyph>
<glyph name="uni0493" format="2">
	<advance width="500" height="0"/>
	<unicode hex="0493"/>
	<guideline y="259"/>
	<outline>
		<contour>
			<point x="10" y="132" type="line"/>
			<point x="70" y="132" type="line" name="sv04"/>
			<point x="70" y="0" type="line"/>
			<point x="290" y="0" type="line" name="ab01"/>
			<point x="290" y="132" type="line"/>
			<point x="395" y="132" type="line" name="sv03"/>
			<point x="395" y="308" type="line" name="iv01"/>
			<point x="290" y="308" type="line"/>
			<point x="290" y="354" type="line" name="ih01"/>
			<point x="480" y="354" type="line" name="sv02"/>
			<point x="480" y="530" type="line"/>
			<point x="70" y="530" type="line" name="at01"/>
			<point x="70" y="308" type="line"/>
			<point x="10" y="308" type="line" name="sv01"/>
		</contour>
	</outline>
</glyph>
<glyph name="uni0496" format="2">
	<advance width="1132" height="0"/>
	<unicode hex="0496"/>
	<outline>
		<contour>
			<point x="1117" y="-129" type="line"/>
			<point x="1117" y="213" type="line"/>
			<point x="989" y="213" type="line" name="sv04"/>
			<point x="915" y="378" type="line" name="iv02"/>
			<point x="1075" y="700" type="line"/>
			<point x="811" y="700" type="line" name="at03"/>
			<point x="697" y="443" type="line"/>
			<point x="677" y="443" type="line" name="iv01"/>
			<point x="677" y="700" type="line"/>
			<point x="413" y="700" type="line" name="at02"/>
			<point x="413" y="443" type="line" name="sv03"/>
			<point x="393" y="443" type="line"/>
			<point x="287" y="700" type="line"/>
			<point x="15" y="700" type="line" name="at01"/>
			<point x="175" y="353" type="line" name="sv02"/>
			<point x="5" y="0" type="line"/>
			<point x="277" y="0" type="line" name="ab03"/>
			<point x="393" y="267" type="line"/>
			<point x="413" y="267" type="line" name="sv01"/>
			<point x="413" y="0" type="line"/>
			<point x="677" y="0" type="line" name="ab02"/>
			<point x="677" y="267" type="line" name="ih01"/>
			<point x="697" y="267" type="line"/>
			<point x="805" y="0" type="line"/>
			<point x="893" y="0" type="line" name="ab01"/>
			<point x="893" y="-129" type="line" name="av01"/>
		</contour>
	</outline>
</glyph>
<glyph name="uni0498" format="2">
	<advance width="720"/>
	<unicode hex="0498"/>
	<outline>
		<component base="uni0417"/>
		<contour>
			<point x="482" y="-5" type="line" name="ab01"/>
			<point x="258" y="-4" type="line"/>
			<point x="258" y="-130" type="line"/>
			<point x="482" y="-130" type="line" name="av01"/>
		</contour>
	</outline>
</glyph>
<glyph name="uni049A" format="2">
	<advance width="807" height="0"/>
	<unicode hex="049A"/>
	<guideline y="0"/>
	<outline>
		<contour>
			<point x="792" y="-129" type="line"/>
			<point x="792" y="213" type="line"/>
			<point x="643" y="213" type="line" name="sv02"/>
			<point x="555" y="375" type="line" name="iv02"/>
			<point x="750" y="700" type="line"/>
			<point x="470" y="700" type="line" name="at02"/>
			<point x="334" y="443" type="line"/>
			<point x="304" y="443" type="line" name="iv01"/>
			<point x="304" y="700" type="line"/>
			<point x="40" y="700" type="line" name="at01"/>
			<point x="40" y="0" type="line"/>
			<point x="304" y="0" type="line" name="ab02"/>
			<point x="304" y="267" type="line" name="sv01"/>
			<point x="334" y="267" type="line"/>
			<point x="464" y="0" type="line" name="ih01"/>
			<point x="568" y="0" type="line" name="ab01"/>
			<point x="568" y="-129" type="line" name="av01"/>
		</contour>
	</outline>
</glyph>
<glyph name="uni049B" format="2">
	<advance width="642" height="0"/>
	<unicode hex="049B"/>
	<guideline y="0"/>
	<outline>
		<contour>
			<point x="627" y="-125" type="line"/>
			<point x="627" y="176" type="line"/>
			<point x="523" y="176" type="line" name="sv02"/>
			<point x="469" y="292" type="line" name="iv02"/>
			<point x="595" y="530" type="line"/>
			<point x="363" y="530" type="line" name="at02"/>
			<point x="275" y="350" type="line"/>
			<point x="255" y="350" type="line" name="iv01"/>
			<point x="255" y="530" type="line"/>
			<point x="35" y="530" type="line" name="at01"/>
			<point x="35" y="0" type="line"/>
			<point x="255" y="0" type="line" name="ab02"/>
			<point x="255" y="190" type="line" name="sv01"/>
			<point x="275" y="190" type="line"/>
			<point x="357" y="0" type="line" name="ih01"/>
			<point x="447" y="0" type="line" name="ab01"/>
			<point x="447" y="-125" type="line" name="av01"/>
		</contour>
	</outline>
</glyph>
<glyph name="uni049C" format="2">
	<advance width="907" height="0"/>
	<unicode hex="049C"/>
	<outline>
		<contour>
			<point x="40" y="0" type="line"/>
			<point x="304" y="0" type="line" name="ab02"/>
			<point x="304" y="267" type="line" name="sv03"/>
			<point x="330" y="267" type="line"/>
			<point x="330" y="152" type="line" name="sv05"/>
			<point x="488" y="152" type="line"/>
			<point x="488" y="267" type="line" name="sv04"/>
			<point x="506" y="267" type="line"/>
			<point x="616" y="0" type="line"/>
			<point x="902" y="0" type="line" name="ab01"/>
			<point x="737" y="375" type="line" name="iv02"/>
			<point x="892" y="700" type="line"/>
			<point x="612" y="700" type="line" name="at02"/>
			<point x="506" y="443" type="line"/>
			<point x="488" y="443" type="line" name="sv02"/>
			<point x="488" y="559" type="line" name="ih01"/>
			<point x="330" y="559" type="line" name="sv01"/>
			<point x="330" y="443" type="line"/>
			<point x="304" y="443" type="line" name="iv01"/>
			<point x="304" y="700" type="line"/>
			<point x="40" y="700" type="line" name="at01"/>
		</contour>
	</outline>
</glyph>
<glyph name="uni049D" format="2">
	<advance width="752" height="0"/>
	<unicode hex="049D"/>
	<outline>
		<contour>
			<point x="35" y="0" type="line"/>
			<point x="255" y="0" type="line" name="ab02"/>
			<point x="255" y="190" type="line" name="sv03"/>
			<point x="288" y="190" type="line"/>
			<point x="288" y="107" type="line" name="sv05"/>
			<point x="426" y="107" type="line"/>
			<point x="426" y="190" type="line" name="sv04"/>
			<point x="448" y="190" type="line"/>
			<point x="502" y="0" type="line"/>
			<point x="750" y="0" type="line" name="ab01"/>
			<point x="642" y="292" type="line" name="iv02"/>
			<point x="719" y="530" type="line"/>
			<point x="487" y="530" type="line" name="at02"/>
			<point x="448" y="350" type="line"/>
			<point x="426" y="350" type="line" name="sv02"/>
			<point x="426" y="434" type="line" name="ih01"/>
			<point x="288" y="434" type="line" name="sv01"/>
			<point x="288" y="350" type="line"/>
			<point x="255" y="350" type="line" name="iv01"/>
			<point x="255" y="530" type="line"/>
			<point x="35" y="530" type="line" name="at01"/>
		</contour>
	</outline>
</glyph>
<glyph name="uni04A0" format="2">
	<advance width="855" height="0"/>
	<unicode hex="04A0"/>
	<guideline y="651"/>
	<outline>
		<contour>
			<point x="20" y="508" type="line"/>
			<point x="130" y="508" type="line" name="sv02"/>
			<point x="130" y="0" type="line"/>
			<point x="394" y="0" type="line" name="ab02"/>
			<point x="394" y="267" type="line" name="sv01"/>
			<point x="424" y="267" type="line"/>
			<point x="554" y="0" type="line"/>
			<point x="850" y="0" type="line" name="ab01"/>
			<point x="645" y="375" type="line" name="iv02"/>
			<point x="840" y="700" type="line"/>
			<point x="560" y="700" type="line" name="at02"/>
			<point x="424" y="443" type="line" name="ih01"/>
			<point x="394" y="443" type="line" name="iv01"/>
			<point x="394" y="700" type="line"/>
			<point x="20" y="700" type="line" name="at01"/>
		</contour>
	</outline>
</glyph>
<glyph name="uni04A2" format="2">
	<advance width="808" height="0"/>
	<unicode hex="04A2"/>
	<outline>
		<contour>
			<point x="793" y="-129" type="line"/>
			<point x="793" y="213" type="line"/>
			<point x="720" y="213" type="line" name="sv02"/>
			<point x="720" y="700" type="line"/>
			<point x="456" y="700" type="line" name="at02"/>
			<point x="456" y="461" type="line" name="iv01"/>
			<point x="304" y="461" type="line"/>
			<point x="304" y="700" type="line"/>
			<point x="40" y="700" type="line" name="at01"/>
			<point x="40" y="0" type="line"/>
			<point x="304" y="0" type="line" name="ab02"/>
			<point x="304" y="249" type="line"/>
			<point x="456" y="249" type="line" name="sv01"/>
			<point x="456" y="0" type="line" name="ih01"/>
			<point x="569" y="0" type="line" name="ab01"/>
			<point x="569" y="-129" type="line" name="av01"/>
		</contour>
	</outline>
</glyph>
<glyph name="uni04A3" format="2">
	<advance width="650" height="0"/>
	<unicode hex="04A3"/>
	<outline>
		<contour>
			<point x="635" y="-125" type="line"/>
			<point x="635" y="176" type="line" name="hr02"/>
			<point x="585" y="176" type="line" name="sv02"/>
			<point x="585" y="530" type="line"/>
			<point x="365" y="530" type="line" name="at02"/>
			<point x="365" y="358" type="line" name="iv01"/>
			<point x="255" y="358" type="line"/>
			<point x="255" y="530" type="line"/>
			<point x="35" y="530" type="line" name="at01"/>
			<point x="35" y="0" type="line"/>
			<point x="255" y="0" type="line" name="ab02"/>
			<point x="255" y="182" type="line"/>
			<point x="365" y="182" type="line" name="sv01"/>
			<point x="365" y="0" type="line" name="hr01"/>
			<point x="455" y="0" type="line" name="ab01"/>
			<point x="455" y="-125" type="line" name="av01"/>
		</contour>
	</outline>
</glyph>
<glyph name="uni04A4" format="2">
	<advance width="986" height="0"/>
	<unicode hex="04A4"/>
	<guideline y="401"/>
	<guideline y="319"/>
	<outline>
		<contour>
			<point x="304" y="0" type="line"/>
			<point x="304" y="249" type="line"/>
			<point x="456" y="249" type="line" name="sv02"/>
			<point x="456" y="0" type="line"/>
			<point x="720" y="0" type="line" name="ab02"/>
			<point x="720" y="488" type="line"/>
			<point x="966" y="488" type="line" name="sv01"/>
			<point x="966" y="700" type="line"/>
			<point x="456" y="700" type="line" name="at02"/>
			<point x="456" y="461" type="line" name="ih01"/>
			<point x="304" y="461" type="line"/>
			<point x="304" y="700" type="line"/>
			<point x="40" y="700" type="line" name="at01"/>
			<point x="40" y="0" type="line" name="ab01"/>
		</contour>
	</outline>
</glyph>
<glyph name="uni04AA" format="2">
	<advance width="725" height="0"/>
	<unicode hex="04AA"/>
	<outline>
		<contour>
			<point x="482" y="-130" type="line"/>
			<point x="482" y="-5" type="line"/>
			<point x="490" y="-3"/>
			<point x="494" y="-2"/>
			<point x="502" y="0" type="curve" smooth="yes"/>
			<point x="620" y="30"/>
			<point x="706" y="115"/>
			<point x="710" y="280" type="curve"/>
			<point x="450" y="280" type="line"/>
			<point x="443" y="215"/>
			<point x="411" y="199"/>
			<point x="375" y="199" type="curve" smooth="yes"/>
			<point x="324" y="199"/>
			<point x="290" y="244"/>
			<point x="290" y="345" type="curve" smooth="yes"/>
			<point x="290" y="365" type="line" smooth="yes"/>
			<point x="290" y="466"/>
			<point x="331" y="501"/>
			<point x="375" y="501" type="curve" smooth="yes"/>
			<point x="410" y="501"/>
			<point x="443" y="484"/>
			<point x="450" y="420" type="curve"/>
			<point x="710" y="420" type="line"/>
			<point x="705" y="636"/>
			<point x="550" y="715"/>
			<point x="375" y="715" type="curve" smooth="yes"/>
			<point x="180" y="715"/>
			<point x="20" y="612"/>
			<point x="20" y="365" type="curve" smooth="yes"/>
			<point x="20" y="345" type="line" smooth="yes"/>
			<point x="20" y="150"/>
			<point x="107" y="43"/>
			<point x="235" y="4" type="curve"/>
			<point x="244" y="2"/>
			<point x="249" y="0"/>
			<point x="258" y="-2" type="curve"/>
			<point x="258" y="-130" type="line"/>
		</contour>
	</outline>
</glyph>
<glyph name="uni04AE" format="2">
	<advance width="744" height="0"/>
	<unicode hex="04AE"/>
	<outline>
		<contour>
			<point x="514" y="0" type="line"/>
			<point x="514" y="245" type="line"/>
			<point x="742" y="700" type="line"/>
			<point x="470" y="700" type="line" name="at02"/>
			<point x="391" y="515" type="line" name="ih01"/>
			<point x="304" y="700" type="line"/>
			<point x="2" y="700" type="line" name="at01"/>
			<point x="250" y="245" type="line"/>
			<point x="250" y="0" type="line" name="ab01"/>
		</contour>
	</outline>
</glyph>
<glyph name="uni04AF" format="2">
	<advance width="624" height="0"/>
	<unicode hex="04AF"/>
	<outline>
		<contour>
			<point x="443" y="-226" type="line"/>
			<point x="443" y="11" type="line" name="sv01"/>
			<point x="622" y="530" type="line"/>
			<point x="417" y="530" type="line" name="at02"/>
			<point x="335" y="250" type="line" name="ih01"/>
			<point x="237" y="530" type="line"/>
			<point x="2" y="530" type="line" name="at01"/>
			<point x="223" y="-8" type="line" name="ab01"/>
			<point x="223" y="-226" type="line" name="av01"/>
		</contour>
	</outline>
</glyph>
<glyph name="uni04B0" format="2">
	<advance width="744" height="0"/>
	<unicode hex="04B0"/>
	<guideline y="219"/>
	<outline>
		<contour>
			<point x="250" y="0" type="line"/>
			<point x="514" y="0" type="line" name="ab01"/>
			<point x="514" y="111" type="line"/>
			<point x="617" y="111" type="line" name="sv03"/>
			<point x="617" y="303" type="line"/>
			<point x="529" y="303" type="line" name="sv02"/>
			<point x="742" y="700" type="line"/>
			<point x="470" y="700" type="line" name="at02"/>
			<point x="391" y="527" type="line" name="ih01"/>
			<point x="304" y="700" type="line"/>
			<point x="2" y="700" type="line" name="at01"/>
			<point x="234" y="303" type="line" name="iv01"/>
			<point x="147" y="303" type="line"/>
			<point x="147" y="111" type="line"/>
			<point x="250" y="111" type="line" name="sv01"/>
		</contour>
	</outline>
</glyph>
<glyph name="uni04B1" format="2">
	<advance width="657" height="0"/>
	<unicode hex="04B1"/>
	<outline>
		<contour>
			<point x="72" y="0" type="line"/>
			<point x="223" y="0" type="line" name="ab02"/>
			<point x="223" y="-226" type="line"/>
			<point x="443" y="-226" type="line" name="av01"/>
			<point x="443" y="0" type="line"/>
			<point x="573" y="0" type="line" name="ab01"/>
			<point x="573" y="178" type="line" name="sv03"/>
			<point x="494" y="178" type="line" name="sv02"/>
			<point x="622" y="530" type="line"/>
			<point x="417" y="530" type="line" name="at02"/>
			<point x="335" y="250" type="line" name="ih01"/>
			<point x="237" y="530" type="line"/>
			<point x="2" y="530" type="line" name="at01"/>
			<point x="159" y="178" type="line"/>
			<point x="72" y="178" type="line" name="sv01"/>
		</contour>
	</outline>
</glyph>
<glyph name="uni04B2" format="2">
	<advance width="830" height="0"/>
	<unicode hex="04B2"/>
	<guideline y="0"/>
	<outline>
		<contour>
			<point x="815" y="-129" type="line"/>
			<point x="815" y="213" type="line"/>
			<point x="663" y="213" type="line" name="sv01"/>
			<point x="577" y="365" type="line"/>
			<point x="775" y="700" type="line"/>
			<point x="485" y="700" type="line" name="at02"/>
			<point x="397" y="536" type="line" name="ih01"/>
			<point x="309" y="700" type="line"/>
			<point x="15" y="700" type="line" name="at01"/>
			<point x="214" y="362" type="line"/>
			<point x="5" y="0" type="line"/>
			<point x="297" y="0" type="line" name="ab02"/>
			<point x="393" y="191" type="line" name="iv01"/>
			<point x="489" y="0" type="line"/>
			<point x="591" y="0" type="line" name="ab01"/>
			<point x="591" y="-129" type="line" name="av01"/>
		</contour>
	</outline>
</glyph>
<glyph name="uni04B3" format="2">
	<advance width="649" height="0"/>
	<unicode hex="04B3"/>
	<guideline y="0"/>
	<outline>
		<contour>
			<point x="634" y="-125" type="line"/>
			<point x="634" y="176" type="line"/>
			<point x="514" y="176" type="line" name="sv01"/>
			<point x="462" y="280" type="line"/>
			<point x="592" y="530" type="line"/>
			<point x="359" y="530" type="line" name="at02"/>
			<point x="306" y="401" type="line" name="ih01"/>
			<point x="250" y="530" type="line"/>
			<point x="12" y="530" type="line" name="at01"/>
			<point x="142" y="275" type="line"/>
			<point x="2" y="0" type="line"/>
			<point x="236" y="0" type="line" name="ab02"/>
			<point x="298" y="153" type="line" name="iv01"/>
			<point x="364" y="0" type="line"/>
			<point x="454" y="0" type="line" name="ab01"/>
			<point x="454" y="-125" type="line" name="av01"/>
		</contour>
	</outline>
</glyph>
<glyph name="uni04B6" format="2">
	<advance width="735" height="0"/>
	<unicode hex="04B6"/>
	<outline>
		<contour>
			<point x="496" y="0" type="line"/>
			<point x="496" y="-130" type="line"/>
			<point x="720" y="-130" type="line"/>
			<point x="720" y="212" type="line"/>
			<point x="650" y="212" type="line"/>
			<point x="650" y="700" type="line"/>
			<point x="386" y="700" type="line"/>
			<point x="386" y="441" type="line"/>
			<point x="371" y="432"/>
			<point x="354" y="427"/>
			<point x="335" y="427" type="curve" smooth="yes"/>
			<point x="296" y="427"/>
			<point x="284" y="440"/>
			<point x="284" y="495" type="curve" smooth="yes"/>
			<point x="284" y="700" type="line"/>
			<point x="20" y="700" type="line"/>
			<point x="20" y="443" type="line" smooth="yes"/>
			<point x="20" y="282"/>
			<point x="86" y="213"/>
			<point x="231" y="213" type="curve" smooth="yes"/>
			<point x="307" y="213"/>
			<point x="351" y="231"/>
			<point x="386" y="254" type="curve"/>
			<point x="386" y="0" type="line"/>
		</contour>
	</outline>
</glyph>
<glyph name="uni04B8" format="2">
	<advance width="850" height="0"/>
	<unicode hex="04B8"/>
	<outline>
		<contour>
			<point x="810" y="0" type="line"/>
			<point x="810" y="700" type="line"/>
			<point x="546" y="700" type="line" name="at02"/>
			<point x="546" y="470" type="line"/>
			<point x="531" y="459" name="sv04"/>
			<point x="515" y="450"/>
			<point x="498" y="443" type="curve" name="sv03"/>
			<point x="498" y="558" type="line" name="iv01"/>
			<point x="340" y="558" type="line"/>
			<point x="340" y="433" type="line"/>
			<point x="299" y="444" name="at01"/>
			<point x="284" y="469"/>
			<point x="284" y="524" type="curve" smooth="yes"/>
			<point x="284" y="700" type="line" name="sv01"/>
			<point x="20" y="700" type="line" name="sv02"/>
			<point x="20" y="472" type="line" smooth="yes"/>
			<point x="20" y="214" name="ih01"/>
			<point x="250" y="234" name="ih03"/>
			<point x="340" y="233" type="curve"/>
			<point x="340" y="131" type="line"/>
			<point x="498" y="131" type="line"/>
			<point x="498" y="261" type="line"/>
			<point x="515" y="268"/>
			<point x="531" y="275"/>
			<point x="546" y="283" type="curve"/>
			<point x="546" y="0" type="line"/>
		</contour>
	</outline>
</glyph>
<glyph name="uni04B9" format="2">
	<advance width="710" height="0"/>
	<unicode hex="04B9"/>
	<guideline y="232"/>
	<outline>
		<contour>
			<point x="455" y="0" type="line"/>
			<point x="675" y="0" type="line" name="ab01"/>
			<point x="675" y="530" type="line"/>
			<point x="455" y="530" type="line" name="at02"/>
			<point x="455" y="357" type="line"/>
			<point x="446" y="354" name="iv01"/>
			<point x="435" y="351"/>
			<point x="422" y="349" type="curve"/>
			<point x="422" y="443" type="line" name="sv02"/>
			<point x="284" y="443" type="line"/>
			<point x="284" y="353" type="line"/>
			<point x="257" y="364" name="at01"/>
			<point x="245" y="386"/>
			<point x="245" y="430" type="curve" smooth="yes" name="sv01"/>
			<point x="245" y="530" type="line"/>
			<point x="25" y="530" type="line"/>
			<point x="25" y="390" type="line" smooth="yes" name="ih01"/>
			<point x="25" y="258"/>
			<point x="92" y="169"/>
			<point x="284" y="166" type="curve"/>
			<point x="284" y="94" type="line" name="ih02"/>
			<point x="422" y="94" type="line" name="ih03"/>
			<point x="422" y="183" type="line"/>
			<point x="436" y="186"/>
			<point x="446" y="189"/>
			<point x="455" y="193" type="curve"/>
		</contour>
	</outline>
</glyph>
<glyph name="uni04C7" format="2">
	<advance width="760" height="0"/>
	<unicode hex="04C7"/>
	<outline>
		<contour>
			<point x="40" y="0" type="line"/>
			<point x="304" y="0" type="line" name="ab01"/>
			<point x="304" y="249" type="line"/>
			<point x="456" y="249" type="line" name="sv02"/>
			<point x="456" y="0" type="line" smooth="yes"/>
			<point x="456" y="-37" name="sv01"/>
			<point x="437" y="-51" name="hr01"/>
			<point x="405" y="-51" type="curve" smooth="yes" name="ih01"/>
			<point x="370" y="-51" type="line" name="av01"/>
			<point x="370" y="-226" type="line"/>
			<point x="427" y="-226" type="line" smooth="yes"/>
			<point x="586" y="-226" name="at02"/>
			<point x="720" y="-182" name="iv01"/>
			<point x="720" y="-17" type="curve" smooth="yes"/>
			<point x="720" y="700" type="line"/>
			<point x="456" y="700" type="line" name="at01"/>
			<point x="456" y="461" type="line" name="ih02"/>
			<point x="304" y="461" type="line" name="ih03"/>
			<point x="304" y="700" type="line"/>
			<point x="40" y="700" type="line"/>
		</contour>
	</outline>
</glyph>
<glyph name="uni04C8" format="2">
	<advance width="620" height="0"/>
	<unicode hex="04C8"/>
	<outline>
		<contour>
			<point x="35" y="0" type="line"/>
			<point x="255" y="0" type="line"/>
			<point x="255" y="182" type="line"/>
			<point x="365" y="182" type="line"/>
			<point x="365" y="25" type="line" smooth="yes"/>
			<point x="365" y="-26"/>
			<point x="352" y="-37"/>
			<point x="329" y="-37" type="curve" smooth="yes"/>
			<point x="320" y="-37"/>
			<point x="310" y="-36"/>
			<point x="300" y="-34" type="curve"/>
			<point x="300" y="-212" type="line"/>
			<point x="315" y="-215"/>
			<point x="334" y="-215"/>
			<point x="349" y="-215" type="curve" smooth="yes"/>
			<point x="497" y="-215"/>
			<point x="585" y="-171"/>
			<point x="585" y="0" type="curve" smooth="yes"/>
			<point x="585" y="530" type="line"/>
			<point x="365" y="530" type="line"/>
			<point x="365" y="358" type="line"/>
			<point x="255" y="358" type="line"/>
			<point x="255" y="530" type="line"/>
			<point x="35" y="530" type="line"/>
		</contour>
	</outline>
</glyph>
<glyph name="uni04CC" format="2">
	<advance width="580" height="0"/>
	<unicode hex="04CC"/>
	<guideline y="232"/>
	<outline>
		<contour>
			<point x="275" y="-125" type="line"/>
			<point x="455" y="-125" type="line" name="av01"/>
			<point x="455" y="0" type="line"/>
			<point x="545" y="0" type="line" name="ab01"/>
			<point x="545" y="530" type="line"/>
			<point x="325" y="530" type="line" name="at02"/>
			<point x="325" y="346" type="line"/>
			<point x="318" y="339" name="ih01"/>
			<point x="304" y="333"/>
			<point x="285" y="333" type="curve" smooth="yes"/>
			<point x="258" y="333" name="at01"/>
			<point x="245" y="346"/>
			<point x="245" y="371" type="curve" smooth="yes" name="sv01"/>
			<point x="245" y="530" type="line"/>
			<point x="25" y="530" type="line"/>
			<point x="25" y="346" type="line" smooth="yes" name="iv01"/>
			<point x="25" y="214" name="ih02"/>
			<point x="74" y="155" name="ih03"/>
			<point x="205" y="155" type="curve" smooth="yes"/>
			<point x="258" y="155"/>
			<point x="294" y="166"/>
			<point x="325" y="182" type="curve"/>
			<point x="325" y="104" type="line"/>
			<point x="275" y="104" type="line" name="hr02"/>
		</contour>
	</outline>
</glyph>
<glyph name="uni04D8" format="2">
	<advance width="760" height="0"/>
	<unicode hex="04D8"/>
	<anchor x="380" y="700" name="top"/>
	<outline>
		<contour>
			<point x="386" y="-15" type="curve" smooth="yes"/>
			<point x="586" y="-15"/>
			<point x="740" y="98"/>
			<point x="740" y="345" type="curve" smooth="yes" name="at01"/>
			<point x="740" y="365" type="line" smooth="yes"/>
			<point x="740" y="612" name="iv02"/>
			<point x="570" y="715" name="ih01"/>
			<point x="378" y="715" type="curve" smooth="yes" name="iv01"/>
			<point x="210" y="715"/>
			<point x="69" y="638"/>
			<point x="45" y="450" type="curve" name="ab01"/>
			<point x="305" y="450" type="line"/>
			<point x="316" y="484"/>
			<point x="341" y="501" name="sv01"/>
			<point x="380" y="501" type="curve" smooth="yes" name="sh01"/>
			<point x="427" y="501" name="ih02"/>
			<point x="459" y="475" name="ih03"/>
			<point x="467" y="406" type="curve"/>
			<point x="30" y="406" type="line"/>
			<point x="30" y="325" type="line" smooth="yes"/>
			<point x="30" y="84"/>
			<point x="199" y="-15"/>
		</contour>
		<contour>
			<point x="362" y="199" type="curve" smooth="yes"/>
			<point x="311" y="199"/>
			<point x="287" y="226"/>
			<point x="272" y="293" type="curve"/>
			<point x="466" y="293" type="line"/>
			<point x="455" y="228"/>
			<point x="421" y="199"/>
		</contour>
	</outline>
</glyph>
<glyph name="uni04F9" format="2">
	<advance width="815"/>
	<unicode hex="04F9"/>
	<outline>
		<contour>
			<point x="35" y="0" type="line"/>
			<point x="310" y="0" type="line" smooth="yes"/>
			<point x="478" y="0"/>
			<point x="535" y="85"/>
			<point x="535" y="189" type="curve" smooth="yes"/>
			<point x="535" y="320"/>
			<point x="451" y="368"/>
			<point x="310" y="368" type="curve" smooth="yes"/>
			<point x="255" y="368" type="line"/>
			<point x="255" y="530" type="line"/>
			<point x="35" y="530" type="line"/>
		</contour>
		<contour>
			<point x="255" y="156" type="line"/>
			<point x="255" y="222" type="line"/>
			<point x="273" y="222" type="line" smooth="yes"/>
			<point x="300" y="222"/>
			<point x="315" y="213"/>
			<point x="315" y="189" type="curve" smooth="yes"/>
			<point x="315" y="167"/>
			<point x="301" y="156"/>
			<point x="274" y="156" type="curve" smooth="yes"/>
		</contour>
		<contour>
			<point x="555" y="0" type="line"/>
			<point x="775" y="0" type="line"/>
			<point x="775" y="530" type="line"/>
			<point x="555" y="530" type="line"/>
		</contour>
		<contour>
			<point x="288" y="580" type="curve" smooth="yes"/>
			<point x="344" y="580"/>
			<point x="388" y="608"/>
			<point x="388" y="660" type="curve" smooth="yes"/>
			<point x="388" y="712"/>
			<point x="344" y="740"/>
			<point x="288" y="740" type="curve" smooth="yes"/>
			<point x="232" y="740"/>
			<point x="188" y="712"/>
			<point x="188" y="660" type="curve" smooth="yes"/>
			<point x="188" y="608"/>
			<point x="232" y="580"/>
		</contour>
		<contour>
			<point x="518" y="580" type="curve" smooth="yes"/>
			<point x="573" y="580"/>
			<point x="618" y="608"/>
			<point x="618" y="660" type="curve" smooth="yes"/>
			<point x="618" y="712"/>
			<point x="574" y="740"/>
			<point x="518" y="740" type="curve" smooth="yes"/>
			<point x="462" y="740"/>
			<point x="418" y="712"/>
			<point x="418" y="660" type="curve" smooth="yes"/>
			<point x="418" y="608"/>
			<point x="462" y="580"/>
		</contour>
	</outline>
</glyph>
<glyph name="bullet" format="2">
	<advance width="400" height="0"/>
	<unicode hex="2022"/>
	<outline>
		<contour>
			<point x="200" y="105" type="curve" smooth="yes"/>
			<point x="296" y="105"/>
			<point x="370" y="179" name="sv01"/>
			<point x="370" y="275" type="curve" smooth="yes"/>
			<point x="370" y="371" name="ih01"/>
			<point x="296" y="445" name="ih02"/>
			<point x="200" y="445" type="curve" smooth="yes" name="ih03"/>
			<point x="104" y="445"/>
			<point x="30" y="371"/>
			<point x="30" y="275" type="curve" smooth="yes"/>
			<point x="30" y="179"/>
			<point x="104" y="105"/>
		</contour>
	</outline>
</glyph>
<glyph name="guilsinglleft" format="2">
	<advance width="270" height="0"/>
	<unicode hex="2039"/>
	<outline>
		<contour>
			<point x="235" y="0" type="line" name="av01"/>
			<point x="235" y="216" type="line"/>
			<point x="160" y="270" type="line" name="ih01"/>
			<point x="235" y="324" type="line"/>
			<point x="235" y="530" type="line" name="sv01"/>
			<point x="15" y="353" type="line"/>
			<point x="15" y="177" type="line"/>
		</contour>
	</outline>
</glyph>
<glyph name="fraction" format="2">
	<advance width="180" height="0"/>
	<unicode hex="2044"/>
	<outline>
		<contour>
			<point x="-250" y="0" type="line"/>
			<point x="-50" y="0" type="line" name="ab01"/>
			<point x="430" y="700" type="line"/>
			<point x="230" y="700" type="line" name="ih01"/>
		</contour>
	</outline>
</glyph>
<glyph name="uni20B4" format="2">
	<advance width="650" height="0"/>
	<unicode hex="20B4"/>
	<outline>
		<contour>
			<point x="20" y="367" type="line" name="sv04"/>
			<point x="630" y="367" type="line"/>
			<point x="630" y="509" type="line" name="sv03"/>
			<point x="565" y="509" type="line" name="sv02"/>
			<point x="572" y="528"/>
			<point x="575" y="546" name="ih01"/>
			<point x="575" y="575" type="curve" smooth="yes" name="iv03"/>
			<point x="575" y="650"/>
			<point x="506" y="715" name="iv02"/>
			<point x="325" y="715" type="curve" smooth="yes"/>
			<point x="146" y="715"/>
			<point x="78" y="650" name="sv01"/>
			<point x="75" y="530" type="curve"/>
			<point x="295" y="530" type="line"/>
			<point x="299" y="552" name="iv05"/>
			<point x="310" y="563" name="iv04"/>
			<point x="327" y="563" type="curve" smooth="yes" name="hr01"/>
			<point x="346" y="563"/>
			<point x="355" y="554" name="sv06"/>
			<point x="355" y="535" type="curve" smooth="yes"/>
			<point x="355" y="528" name="iv01"/>
			<point x="353" y="516" name="sv05"/>
			<point x="348" y="509" type="curve"/>
			<point x="20" y="509" type="line"/>
		</contour>
		<contour>
			<point x="325" y="-15" type="curve" smooth="yes" name="sh01"/>
			<point x="522" y="-15" name="ih02"/>
			<point x="580" y="56" name="ih03"/>
			<point x="585" y="170" type="curve" name="hr02"/>
			<point x="365" y="170" type="line"/>
			<point x="360" y="149"/>
			<point x="350" y="137" name="hr03"/>
			<point x="323" y="137" type="curve" smooth="yes"/>
			<point x="295" y="137"/>
			<point x="285" y="146"/>
			<point x="285" y="165" type="curve" smooth="yes"/>
			<point x="285" y="174"/>
			<point x="287" y="182"/>
			<point x="292" y="187" type="curve"/>
			<point x="630" y="187" type="line"/>
			<point x="630" y="329" type="line"/>
			<point x="20" y="329" type="line"/>
			<point x="20" y="187" type="line"/>
			<point x="76" y="187" type="line"/>
			<point x="67" y="168"/>
			<point x="65" y="153"/>
			<point x="65" y="130" type="curve" smooth="yes"/>
			<point x="65" y="45"/>
			<point x="132" y="-15"/>
		</contour>
	</outline>
</glyph>
<glyph name="uni20B8" format="2">
	<advance width="670" height="0"/>
	<unicode hex="20B8"/>
	<outline>
		<contour>
			<point x="20" y="508" type="line"/>
			<point x="650" y="508" type="line" name="sv01"/>
			<point x="650" y="700" type="line"/>
			<point x="20" y="700" type="line" name="sh01"/>
		</contour>
		<contour>
			<point x="467" y="0" type="line"/>
			<point x="467" y="278" type="line"/>
			<point x="650" y="278" type="line" name="sv03"/>
			<point x="650" y="470" type="line"/>
			<point x="20" y="470" type="line" name="iv01"/>
			<point x="20" y="278" type="line" name="sv02"/>
			<point x="203" y="278" type="line"/>
			<point x="203" y="0" type="line" name="ih01"/>
		</contour>
	</outline>
</glyph>
<glyph name="uni20BD" format="2">
	<advance width="735" height="0"/>
	<unicode hex="20BD"/>
	<outline>
		<contour>
			<point x="110" y="0" type="line"/>
			<point x="374" y="0" type="line" name="ab01"/>
			<point x="374" y="64" type="line"/>
			<point x="560" y="64" type="line" name="sv05"/>
			<point x="560" y="206" type="line"/>
			<point x="374" y="206" type="line" name="sv04"/>
			<point x="374" y="244" type="line" name="ih01"/>
			<point x="425" y="244" type="line" smooth="yes" name="sv03"/>
			<point x="640" y="244"/>
			<point x="710" y="334"/>
			<point x="710" y="457" type="curve" smooth="yes" name="at01"/>
			<point x="710" y="610" name="iv01"/>
			<point x="640" y="700"/>
			<point x="425" y="700" type="curve" smooth="yes"/>
			<point x="110" y="700" type="line" name="sv02"/>
			<point x="110" y="406" type="line" name="iv02"/>
			<point x="20" y="406" type="line"/>
			<point x="20" y="244" type="line"/>
			<point x="110" y="244" type="line" name="sv01"/>
			<point x="110" y="206" type="line"/>
			<point x="20" y="206" type="line" name="sh01"/>
			<point x="20" y="64" type="line" name="sv07"/>
			<point x="110" y="64" type="line"/>
		</contour>
		<contour>
			<point x="374" y="406" type="line" name="sv06"/>
			<point x="374" y="508" type="line" name="ih02"/>
			<point x="394" y="508" type="line" smooth="yes" name="ih03"/>
			<point x="429" y="508"/>
			<point x="446" y="491"/>
			<point x="446" y="457" type="curve" smooth="yes"/>
			<point x="446" y="423"/>
			<point x="429" y="406"/>
			<point x="394" y="406" type="curve" smooth="yes"/>
		</contour>
	</outline>
</glyph>
<glyph name="uni2116" format="2">
	<advance width="1140" height="0"/>
	<unicode hex="2116"/>
	<outline>
		<contour>
			<point x="50" y="0" type="line"/>
			<point x="294" y="0" type="line"/>
			<point x="294" y="290" type="line"/>
			<point x="516" y="0" type="line"/>
			<point x="730" y="0" type="line"/>
			<point x="730" y="700" type="line"/>
			<point x="486" y="700" type="line"/>
			<point x="486" y="410" type="line"/>
			<point x="264" y="700" type="line"/>
			<point x="50" y="700" type="line"/>
		</contour>
		<contour>
			<point x="945" y="365" type="curve" smooth="yes"/>
			<point x="1064" y="365"/>
			<point x="1130" y="431"/>
			<point x="1130" y="535" type="curve" smooth="yes"/>
			<point x="1130" y="545" type="line" smooth="yes"/>
			<point x="1130" y="649"/>
			<point x="1064" y="715" name="hr01"/>
			<point x="945" y="715" type="curve" smooth="yes" name="hr01"/>
			<point x="826" y="715"/>
			<point x="760" y="649"/>
			<point x="760" y="545" type="curve" smooth="yes"/>
			<point x="760" y="535" type="line" smooth="yes"/>
			<point x="760" y="431"/>
			<point x="826" y="365"/>
		</contour>
		<contour>
			<point x="945" y="495" type="curve" smooth="yes"/>
			<point x="930" y="495"/>
			<point x="920" y="504"/>
			<point x="920" y="535" type="curve" smooth="yes"/>
			<point x="920" y="545" type="line" smooth="yes"/>
			<point x="920" y="576"/>
			<point x="930" y="585"/>
			<point x="945" y="585" type="curve" smooth="yes"/>
			<point x="960" y="585"/>
			<point x="970" y="576"/>
			<point x="970" y="545" type="curve" smooth="yes"/>
			<point x="970" y="535" type="line" smooth="yes"/>
			<point x="970" y="504"/>
			<point x="960" y="495"/>
		</contour>
		<contour>
			<point x="770" y="206" type="line"/>
			<point x="1120" y="206" type="line"/>
			<point x="1120" y="334" type="line"/>
			<point x="770" y="334" type="line"/>
		</contour>
	</outline>
</glyph>
<glyph name="trademark" format="2">
	<advance width="930" height="0"/>
	<unicode hex="2122"/>
	<outline>
		<contour>
			<point x="105" y="300" type="line"/>
			<point x="275" y="300" type="line" name="iv01"/>
			<point x="275" y="572" type="line" name="sv02"/>
			<point x="375" y="572" type="line"/>
			<point x="375" y="700" type="line" name="sh01"/>
			<point x="5" y="700" type="line" name="at01"/>
			<point x="5" y="572" type="line"/>
			<point x="105" y="572" type="line" name="sv01"/>
		</contour>
		<contour>
			<point x="420" y="300" type="line"/>
			<point x="580" y="300" type="line" name="sv04"/>
			<point x="580" y="461" type="line" name="iv04"/>
			<point x="627" y="370" type="line" name="iv02"/>
			<point x="702" y="370" type="line"/>
			<point x="750" y="461" type="line" name="sv08"/>
			<point x="750" y="300" type="line"/>
			<point x="910" y="300" type="line" name="sv07"/>
			<point x="910" y="700" type="line" name="sv06"/>
			<point x="754" y="700" type="line" name="sv05"/>
			<point x="667" y="530" type="line" name="iv03"/>
			<point x="580" y="700" type="line" name="sv03"/>
			<point x="420" y="700" type="line" name="ih01"/>
		</contour>
	</outline>
</glyph>
<glyph name="arrowup" format="2">
	<advance width="750" height="0"/>
	<unicode hex="2191"/>
	<outline>
		<contour>
			<point x="265" y="0" type="line"/>
			<point x="485" y="0" type="line" name="ab01"/>
			<point x="485" y="347" type="line" name="iv04"/>
			<point x="675" y="157" type="line" name="iv03"/>
			<point x="675" y="415" type="line"/>
			<point x="375" y="715" type="line" name="ih01"/>
			<point x="75" y="415" type="line"/>
			<point x="75" y="157" type="line" name="iv02"/>
			<point x="265" y="347" type="line" name="iv01"/>
		</contour>
	</outline>
</glyph>
<glyph name="arrowright" format="2">
	<advance width="750" height="0"/>
	<unicode hex="2192"/>
	<outline>
		<contour>
			<point x="182" y="50" type="line"/>
			<point x="440" y="50" type="line" name="sv02"/>
			<point x="740" y="350" type="line"/>
			<point x="440" y="650" type="line"/>
			<point x="182" y="650" type="line" name="sv01"/>
			<point x="376" y="456" type="line" name="av01"/>
			<point x="25" y="456" type="line"/>
			<point x="25" y="244" type="line"/>
			<point x="376" y="244" type="line" name="ih01"/>
		</contour>
	</outline>
</glyph>
<glyph name="uni2206" format="2">
	<advance width="744" height="0"/>
	<unicode hex="2206"/>
	<outline>
		<contour>
			<point x="2" y="0" type="line"/>
			<point x="742" y="0" type="line" name="ab01"/>
			<point x="515" y="700" type="line"/>
			<point x="229" y="700" type="line" name="sh01"/>
		</contour>
		<contour>
			<point x="354" y="440" type="line" name="ih01"/>
			<point x="426" y="192" type="line"/>
			<point x="283" y="192" type="line" name="sv01"/>
		</contour>
	</outline>
</glyph>
<glyph name="uni2215" format="2">
	<advance width="600" height="0"/>
	<unicode hex="2215"/>
	<outline>
		<contour>
			<point x="20" y="0" type="line"/>
			<point x="240" y="0" type="line" name="ab01"/>
			<point x="580" y="700" type="line"/>
			<point x="360" y="700" type="line" name="ih01"/>
		</contour>
	</outline>
</glyph>
<glyph name="radical" format="2">
	<advance width="690" height="0"/>
	<unicode hex="221A"/>
	<outline>
		<contour>
			<point x="10" y="179" type="line" name="sv02"/>
			<point x="64" y="179" type="line"/>
			<point x="193" y="-100" type="line"/>
			<point x="457" y="-100" type="line" name="av01"/>
			<point x="614" y="588" type="line"/>
			<point x="680" y="588" type="line" name="sv01"/>
			<point x="680" y="800" type="line" name="av02"/>
			<point x="442" y="800" type="line"/>
			<point x="310" y="198" type="line" name="ih01"/>
			<point x="230" y="391" type="line"/>
			<point x="10" y="391" type="line" name="iv01"/>
		</contour>
	</outline>
</glyph>
<glyph name="approxequal" format="2">
	<advance width="600" height="0"/>
	<unicode hex="2248"/>
	<outline>
		<contour>
			<point x="395" y="83" type="curve" smooth="yes"/>
			<point x="464" y="83"/>
			<point x="509" y="123"/>
			<point x="537" y="164" type="curve" smooth="yes"/>
			<point x="553" y="187"/>
			<point x="566" y="214"/>
			<point x="575" y="245" type="curve"/>
			<point x="450" y="357" type="line" name="hr01"/>
			<point x="446" y="346"/>
			<point x="441" y="336"/>
			<point x="434" y="327" type="curve"/>
			<point x="423" y="312"/>
			<point x="405" y="297" name="hr02"/>
			<point x="380" y="297" type="curve" smooth="yes"/>
			<point x="329" y="297"/>
			<point x="285" y="357" name="hr03"/>
			<point x="205" y="357" type="curve" smooth="yes"/>
			<point x="135" y="357"/>
			<point x="89" y="316"/>
			<point x="62" y="276" type="curve" smooth="yes"/>
			<point x="45" y="252"/>
			<point x="33" y="225"/>
			<point x="25" y="195" type="curve"/>
			<point x="150" y="83" type="line" name="hr04"/>
			<point x="154" y="94"/>
			<point x="159" y="104"/>
			<point x="166" y="113" type="curve"/>
			<point x="177" y="128"/>
			<point x="195" y="143" name="hr05"/>
			<point x="220" y="143" type="curve" smooth="yes"/>
			<point x="271" y="143"/>
			<point x="315" y="83" name="hr06"/>
		</contour>
		<contour>
			<point x="395" y="363" type="curve" smooth="yes"/>
			<point x="464" y="363"/>
			<point x="509" y="403"/>
			<point x="537" y="444" type="curve" smooth="yes"/>
			<point x="553" y="467"/>
			<point x="566" y="494"/>
			<point x="575" y="525" type="curve"/>
			<point x="450" y="637" type="line"/>
			<point x="446" y="626" name="hr07"/>
			<point x="441" y="616"/>
			<point x="434" y="607" type="curve"/>
			<point x="423" y="592"/>
			<point x="405" y="577"/>
			<point x="380" y="577" type="curve" smooth="yes" name="hr08"/>
			<point x="329" y="577"/>
			<point x="285" y="637"/>
			<point x="205" y="637" type="curve" smooth="yes" name="hr09"/>
			<point x="135" y="637"/>
			<point x="89" y="596"/>
			<point x="62" y="556" type="curve" smooth="yes"/>
			<point x="45" y="532"/>
			<point x="33" y="505"/>
			<point x="25" y="475" type="curve"/>
			<point x="150" y="363" type="line"/>
			<point x="154" y="374" name="hr10"/>
			<point x="159" y="384"/>
			<point x="166" y="393" type="curve"/>
			<point x="177" y="408"/>
			<point x="195" y="423"/>
			<point x="220" y="423" type="curve" smooth="yes" name="hr11"/>
			<point x="271" y="423"/>
			<point x="315" y="363"/>
		</contour>
	</outline>
</glyph>
<glyph name="lessequal" format="2">
	<advance width="600" height="0"/>
	<unicode hex="2264"/>
	<outline>
		<contour>
			<point x="25" y="0" type="line"/>
			<point x="575" y="0" type="line" name="ab01"/>
			<point x="575" y="212" type="line"/>
			<point x="25" y="212" type="line" name="sv01"/>
		</contour>
		<contour>
			<point x="575" y="86" type="line"/>
			<point x="575" y="310" type="line" name="iv04"/>
			<point x="320" y="403" type="line" name="ih01"/>
			<point x="575" y="495" type="line" name="iv03"/>
			<point x="575" y="715" type="line" name="at01"/>
			<point x="25" y="488" type="line" name="iv02"/>
			<point x="25" y="312" type="line" name="iv01"/>
		</contour>
	</outline>
</glyph>
<glyph name="greaterequal" format="2">
	<advance width="600" height="0"/>
	<unicode hex="2265"/>
	<outline>
		<contour>
			<point x="25" y="0" type="line"/>
			<point x="575" y="0" type="line" name="ab01"/>
			<point x="575" y="212" type="line"/>
			<point x="25" y="212" type="line"/>
		</contour>
		<contour>
			<point x="25" y="715" type="line" name="at01"/>
			<point x="25" y="490" type="line" name="iv04"/>
			<point x="280" y="397" type="line" name="ih01"/>
			<point x="25" y="305" type="line" name="iv03"/>
			<point x="25" y="86" type="line" name="sv01"/>
			<point x="575" y="312" type="line" name="iv02"/>
			<point x="575" y="488" type="line" name="iv01"/>
		</contour>
	</outline>
</glyph>
<glyph name="uniF53D" format="2">
	<advance width="465" height="0"/>
	<unicode hex="F53D"/>
	<guideline y="259"/>
	<outline>
		<contour>
			<point x="255" y="0" type="line"/>
			<point x="255" y="132" type="line"/>
			<point x="360" y="132" type="line" name="iv02"/>
			<point x="360" y="308" type="line" name="iv01"/>
			<point x="255" y="308" type="line"/>
			<point x="255" y="354" type="line" name="ih01"/>
			<point x="445" y="354" type="line" name="sv01"/>
			<point x="445" y="530" type="line"/>
			<point x="35" y="530" type="line" name="at01"/>
			<point x="35" y="0" type="line" name="ab01"/>
		</contour>
	</outline>
</glyph>
<glyph name="uniF6D4" format="2">
	<advance width="460" height="0"/>
	<unicode hex="F6D4"/>
	<outline>
		<contour>
			<point x="230" y="585" type="curve" smooth="yes"/>
			<point x="381" y="585" name="sv03"/>
			<point x="440" y="643" name="sv02"/>
			<point x="440" y="735" type="curve" name="iv01"/>
			<point x="270" y="735" type="line"/>
			<point x="270" y="696" name="sv01"/>
			<point x="257" y="683" name="ih01"/>
			<point x="230" y="683" type="curve" smooth="yes" name="ih02"/>
			<point x="203" y="683" name="ih03"/>
			<point x="190" y="696"/>
			<point x="190" y="735" type="curve" name="hr01"/>
			<point x="20" y="735" type="line"/>
			<point x="20" y="643"/>
			<point x="79" y="585"/>
		</contour>
	</outline>
</glyph>
<glyph name="acutecomb.case" format="2">
	<advance width="380"/>
	<anchor x="105" y="700" name="_top"/>
	<anchor x="190" y="900" name="top"/>
	<outline>
		<contour>
			<point x="20" y="750" type="line"/>
			<point x="190" y="750" type="line" name="ih01"/>
			<point x="360" y="900" type="line"/>
			<point x="130" y="900" type="line" name="sv01"/>
		</contour>
	</outline>
</glyph>
<glyph name="approxequal.tab" format="2">
	<advance width="670" height="0"/>
	<outline>
		<contour>
			<point x="430" y="83" type="curve" smooth="yes"/>
			<point x="499" y="83"/>
			<point x="544" y="123"/>
			<point x="572" y="164" type="curve" smooth="yes"/>
			<point x="588" y="187"/>
			<point x="601" y="214"/>
			<point x="610" y="245" type="curve"/>
			<point x="485" y="357" type="line" name="hr01"/>
			<point x="481" y="346"/>
			<point x="476" y="336"/>
			<point x="469" y="327" type="curve"/>
			<point x="458" y="312"/>
			<point x="440" y="297" name="hr02"/>
			<point x="415" y="297" type="curve" smooth="yes"/>
			<point x="364" y="297"/>
			<point x="320" y="357" name="hr03"/>
			<point x="240" y="357" type="curve" smooth="yes"/>
			<point x="170" y="357"/>
			<point x="124" y="316"/>
			<point x="97" y="276" type="curve" smooth="yes"/>
			<point x="80" y="252"/>
			<point x="68" y="225"/>
			<point x="60" y="195" type="curve"/>
			<point x="185" y="83" type="line" name="hr04"/>
			<point x="189" y="94"/>
			<point x="194" y="104"/>
			<point x="201" y="113" type="curve"/>
			<point x="212" y="128"/>
			<point x="230" y="143" name="hr05"/>
			<point x="255" y="143" type="curve" smooth="yes"/>
			<point x="306" y="143"/>
			<point x="350" y="83" name="hr06"/>
		</contour>
		<contour>
			<point x="430" y="363" type="curve" smooth="yes"/>
			<point x="499" y="363"/>
			<point x="544" y="403"/>
			<point x="572" y="444" type="curve" smooth="yes"/>
			<point x="588" y="467"/>
			<point x="601" y="494"/>
			<point x="610" y="525" type="curve"/>
			<point x="485" y="637" type="line"/>
			<point x="481" y="626" name="hr07"/>
			<point x="476" y="616"/>
			<point x="469" y="607" type="curve"/>
			<point x="458" y="592"/>
			<point x="440" y="577"/>
			<point x="415" y="577" type="curve" smooth="yes" name="hr08"/>
			<point x="364" y="577"/>
			<point x="320" y="637"/>
			<point x="240" y="637" type="curve" smooth="yes" name="hr09"/>
			<point x="170" y="637"/>
			<point x="124" y="596"/>
			<point x="97" y="556" type="curve" smooth="yes"/>
			<point x="80" y="532"/>
			<point x="68" y="505"/>
			<point x="60" y="475" type="curve"/>
			<point x="185" y="363" type="line"/>
			<point x="189" y="374" name="hr10"/>
			<point x="194" y="384"/>
			<point x="201" y="393" type="curve"/>
			<point x="212" y="408"/>
			<point x="230" y="423"/>
			<point x="255" y="423" type="curve" smooth="yes" name="hr11"/>
			<point x="306" y="423"/>
			<point x="350" y="363"/>
		</contour>
	</outline>
</glyph>
<glyph name="asciitilde.tab" format="2">
	<advance width="670" height="0"/>
	<outline>
		<contour>
			<point x="430" y="223" type="curve" smooth="yes"/>
			<point x="499" y="223"/>
			<point x="544" y="263"/>
			<point x="572" y="304" type="curve" smooth="yes"/>
			<point x="588" y="327"/>
			<point x="601" y="354"/>
			<point x="610" y="385" type="curve"/>
			<point x="485" y="497" type="line" name="hr01"/>
			<point x="481" y="486"/>
			<point x="476" y="476"/>
			<point x="469" y="467" type="curve"/>
			<point x="458" y="452"/>
			<point x="440" y="437" name="hr02"/>
			<point x="415" y="437" type="curve" smooth="yes"/>
			<point x="364" y="437"/>
			<point x="320" y="497" name="hr03"/>
			<point x="240" y="497" type="curve" smooth="yes"/>
			<point x="170" y="497"/>
			<point x="124" y="456"/>
			<point x="97" y="416" type="curve" smooth="yes"/>
			<point x="80" y="392"/>
			<point x="68" y="365"/>
			<point x="60" y="335" type="curve"/>
			<point x="185" y="223" type="line" name="hr04"/>
			<point x="189" y="234"/>
			<point x="194" y="244"/>
			<point x="201" y="253" type="curve"/>
			<point x="212" y="268"/>
			<point x="230" y="283" name="hr05"/>
			<point x="255" y="283" type="curve" smooth="yes"/>
			<point x="306" y="283"/>
			<point x="350" y="223" name="hr06"/>
		</contour>
	</outline>
</glyph>
<glyph name="five.osf" format="2">
	<advance width="630" height="0"/>
	<outline>
		<contour>
			<point x="326" y="-215" type="curve" smooth="yes"/>
			<point x="505" y="-215"/>
			<point x="605" y="-114" name="iv02"/>
			<point x="605" y="57" type="curve" smooth="yes" name="iv04"/>
			<point x="605" y="233"/>
			<point x="501" y="285" name="sv01"/>
			<point x="382" y="285" type="curve" smooth="yes"/>
			<point x="327" y="285" name="at01"/>
			<point x="297" y="266"/>
			<point x="274" y="247" type="curve" name="iv03"/>
			<point x="274" y="318" type="line" name="sv02"/>
			<point x="566" y="318" type="line"/>
			<point x="566" y="530" type="line" name="ih01"/>
			<point x="50" y="530" type="line"/>
			<point x="50" y="95" type="line" name="iv01"/>
			<point x="274" y="95" type="line" name="ab01"/>
			<point x="281" y="114" name="ih02"/>
			<point x="292" y="123" name="ih03"/>
			<point x="308" y="123" type="curve" smooth="yes"/>
			<point x="328" y="123"/>
			<point x="341" y="109"/>
			<point x="341" y="53" type="curve" smooth="yes"/>
			<point x="341" y="-6"/>
			<point x="335" y="-23"/>
			<point x="312" y="-23" type="curve" smooth="yes"/>
			<point x="292" y="-23"/>
			<point x="279" y="-16"/>
			<point x="279" y="45" type="curve"/>
			<point x="35" y="45" type="line"/>
			<point x="35" y="-102"/>
			<point x="105" y="-215"/>
		</contour>
	</outline>
</glyph>
<glyph name="four.tf" format="2">
	<advance width="670" height="0"/>
	<outline>
		<contour>
			<point x="579" y="0" type="line" name="ab01"/>
			<point x="579" y="99" type="line"/>
			<point x="645" y="99" type="line" name="sv03"/>
			<point x="645" y="311" type="line"/>
			<point x="579" y="311" type="line" name="sv02"/>
			<point x="579" y="700" type="line"/>
			<point x="305" y="700" type="line" name="at01"/>
			<point x="35" y="281" type="line" name="sv01"/>
			<point x="35" y="99" type="line"/>
			<point x="315" y="99" type="line" name="ih01"/>
			<point x="315" y="0" type="line"/>
		</contour>
		<contour>
			<point x="315" y="447" type="line" name="iv01"/>
			<point x="315" y="311" type="line" name="sh01"/>
			<point x="227" y="311" type="line"/>
		</contour>
	</outline>
</glyph>
<glyph name="less.tab" format="2">
	<advance width="670" height="0"/>
	<outline>
		<contour>
			<point x="605" y="45" type="line" name="av01"/>
			<point x="605" y="270" type="line" name="iv04"/>
			<point x="350" y="363" type="line" name="ih01"/>
			<point x="605" y="455" type="line" name="iv03"/>
			<point x="605" y="675" type="line" name="sv01"/>
			<point x="55" y="448" type="line" name="iv02"/>
			<point x="55" y="272" type="line" name="iv01"/>
		</contour>
	</outline>
</glyph>
<glyph name="multiply.tab" format="2">
	<advance width="670" height="0"/>
	<outline>
		<contour>
			<point x="209" y="90" type="line" name="sv02"/>
			<point x="335" y="216" type="line"/>
			<point x="461" y="90" type="line" name="iv01"/>
			<point x="605" y="234" type="line"/>
			<point x="479" y="360" type="line"/>
			<point x="605" y="486" type="line"/>
			<point x="461" y="630" type="line" name="sv01"/>
			<point x="335" y="504" type="line" name="ih01"/>
			<point x="209" y="630" type="line" name="av01"/>
			<point x="65" y="486" type="line"/>
			<point x="191" y="360" type="line"/>
			<point x="65" y="234" type="line"/>
		</contour>
	</outline>
</glyph>
<glyph name="nine.osf" format="2">
	<advance width="665" height="0"/>
	<outline>
		<contour>
			<point x="315" y="-215" type="curve" smooth="yes"/>
			<point x="516" y="-215"/>
			<point x="635" y="-110"/>
			<point x="635" y="160" type="curve" smooth="yes"/>
			<point x="635" y="180" type="line" smooth="yes"/>
			<point x="635" y="436"/>
			<point x="525" y="545"/>
			<point x="318" y="545" type="curve" smooth="yes"/>
			<point x="130" y="545"/>
			<point x="25" y="450"/>
			<point x="25" y="285" type="curve" smooth="yes"/>
			<point x="25" y="275" type="line" smooth="yes"/>
			<point x="25" y="144"/>
			<point x="91" y="45"/>
			<point x="231" y="45" type="curve" smooth="yes"/>
			<point x="306" y="45"/>
			<point x="352" y="64"/>
			<point x="377" y="95" type="curve"/>
			<point x="377" y="-1"/>
			<point x="356" y="-23"/>
			<point x="320" y="-23" type="curve" smooth="yes"/>
			<point x="281" y="-23"/>
			<point x="271" y="-10"/>
			<point x="264" y="10" type="curve" name="hr01"/>
			<point x="40" y="10" type="line"/>
			<point x="51" y="-164"/>
			<point x="151" y="-215"/>
		</contour>
		<contour>
			<point x="330" y="207" type="curve" smooth="yes"/>
			<point x="299" y="207"/>
			<point x="289" y="232"/>
			<point x="289" y="275" type="curve" smooth="yes"/>
			<point x="289" y="285" type="line" smooth="yes"/>
			<point x="289" y="328"/>
			<point x="299" y="353"/>
			<point x="330" y="353" type="curve" smooth="yes"/>
			<point x="361" y="353"/>
			<point x="371" y="328"/>
			<point x="371" y="285" type="curve" smooth="yes"/>
			<point x="371" y="275" type="line" smooth="yes"/>
			<point x="371" y="232"/>
			<point x="361" y="207"/>
		</contour>
	</outline>
</glyph>
<glyph name="one.osf" format="2">
	<advance width="467" height="0"/>
	<outline>
		<contour>
			<point x="153" y="0" type="line"/>
			<point x="417" y="0" type="line" name="ab01"/>
			<point x="417" y="530" type="line"/>
			<point x="176" y="530" type="line" name="ih01"/>
			<point x="20" y="419" type="line"/>
			<point x="20" y="180" type="line" name="iv01"/>
			<point x="153" y="275" type="line" name="iv02"/>
		</contour>
	</outline>
</glyph>
<glyph name="one.tf" format="2">
	<advance width="670" height="0"/>
	<outline>
		<contour>
			<point x="620" y="0" type="line"/>
			<point x="620" y="212" type="line" name="sv03"/>
			<point x="497" y="212" type="line" name="sv02"/>
			<point x="497" y="700" type="line"/>
			<point x="256" y="700" type="line" name="ih01"/>
			<point x="90" y="579" type="line"/>
			<point x="90" y="340" type="line" name="iv01"/>
			<point x="233" y="445" type="line" name="iv02"/>
			<point x="233" y="212" type="line"/>
			<point x="70" y="212" type="line" name="sv01"/>
			<point x="70" y="0" type="line" name="ab01"/>
		</contour>
	</outline>
</glyph>
<glyph name="one.tosf" format="2">
	<advance width="660" height="0"/>
	<outline>
		<contour>
			<point x="54" y="0" type="line"/>
			<point x="606" y="0" type="line" name="ab01"/>
			<point x="606" y="162" type="line" name="sv03"/>
			<point x="475" y="162" type="line" name="sv02"/>
			<point x="475" y="530" type="line"/>
			<point x="234" y="530" type="line" name="ih01"/>
			<point x="78" y="419" type="line"/>
			<point x="78" y="200" type="line" name="iv01"/>
			<point x="211" y="295" type="line" name="iv02"/>
			<point x="211" y="162" type="line"/>
			<point x="54" y="162" type="line" name="sv01"/>
		</contour>
	</outline>
</glyph>
<glyph name="radical.tab" format="2">
	<advance width="670" height="0"/>
	<outline>
		<contour>
			<point x="0" y="179" type="line" name="sv02"/>
			<point x="54" y="179" type="line"/>
			<point x="183" y="-100" type="line"/>
			<point x="447" y="-100" type="line" name="av01"/>
			<point x="604" y="588" type="line"/>
			<point x="670" y="588" type="line" name="sv01"/>
			<point x="670" y="800" type="line" name="av02"/>
			<point x="432" y="800" type="line"/>
			<point x="300" y="198" type="line" name="ih01"/>
			<point x="220" y="391" type="line"/>
			<point x="0" y="391" type="line" name="iv01"/>
		</contour>
	</outline>
</glyph>
<glyph name="seven.tosf" format="2">
	<advance width="660" height="0"/>
	<outline>
		<contour>
			<point x="410" y="-200" type="line"/>
			<point x="620" y="348" type="line" name="sv01"/>
			<point x="620" y="530" type="line"/>
			<point x="40" y="530" type="line" name="at01"/>
			<point x="40" y="318" type="line"/>
			<point x="355" y="318" type="line" name="ih01"/>
			<point x="135" y="-200" type="line" name="ab01"/>
		</contour>
	</outline>
</glyph>
